G04 #@! TF.FileFunction,Legend,Top*
%FSLAX46Y46*%
G04 Gerber Fmt 4.6, Leading zero omitted, Abs format (unit mm)*
G04 Created by KiCad (PCBNEW 4.0.2-stable) date 25-Jul-16 9:15:29 PM*
%MOMM*%
G01*
G04 APERTURE LIST*
%ADD10C,0.100000*%
%ADD11C,0.200000*%
%ADD12C,0.150000*%
G04 APERTURE END LIST*
D10*
X136525048Y-79319429D02*
X137286953Y-79319429D01*
X136906001Y-79700381D02*
X136906001Y-78938476D01*
X141970714Y-74239429D02*
X142732619Y-74239429D01*
X142351667Y-74620381D02*
X142351667Y-73858476D01*
X143732619Y-74620381D02*
X143161190Y-74620381D01*
X143446904Y-74620381D02*
X143446904Y-73620381D01*
X143351666Y-73763238D01*
X143256428Y-73858476D01*
X143161190Y-73906095D01*
X144113571Y-73715619D02*
X144161190Y-73668000D01*
X144256428Y-73620381D01*
X144494524Y-73620381D01*
X144589762Y-73668000D01*
X144637381Y-73715619D01*
X144685000Y-73810857D01*
X144685000Y-73906095D01*
X144637381Y-74048952D01*
X144065952Y-74620381D01*
X144685000Y-74620381D01*
X145018333Y-73953714D02*
X145256428Y-74620381D01*
X145494524Y-73953714D01*
X146494524Y-73953714D02*
X146875476Y-73953714D01*
X146637381Y-73620381D02*
X146637381Y-74477524D01*
X146685000Y-74572762D01*
X146780238Y-74620381D01*
X146875476Y-74620381D01*
X147351667Y-74620381D02*
X147256429Y-74572762D01*
X147208810Y-74525143D01*
X147161191Y-74429905D01*
X147161191Y-74144190D01*
X147208810Y-74048952D01*
X147256429Y-74001333D01*
X147351667Y-73953714D01*
X147494525Y-73953714D01*
X147589763Y-74001333D01*
X147637382Y-74048952D01*
X147685001Y-74144190D01*
X147685001Y-74429905D01*
X147637382Y-74525143D01*
X147589763Y-74572762D01*
X147494525Y-74620381D01*
X147351667Y-74620381D01*
X149446906Y-74620381D02*
X149113572Y-74144190D01*
X148875477Y-74620381D02*
X148875477Y-73620381D01*
X149256430Y-73620381D01*
X149351668Y-73668000D01*
X149399287Y-73715619D01*
X149446906Y-73810857D01*
X149446906Y-73953714D01*
X149399287Y-74048952D01*
X149351668Y-74096571D01*
X149256430Y-74144190D01*
X148875477Y-74144190D01*
X149827858Y-74334667D02*
X150304049Y-74334667D01*
X149732620Y-74620381D02*
X150065953Y-73620381D01*
X150399287Y-74620381D01*
X150637382Y-73620381D02*
X150875477Y-74620381D01*
X151065954Y-73906095D01*
X151256430Y-74620381D01*
X151494525Y-73620381D01*
X136271048Y-89733429D02*
X137032953Y-89733429D01*
X136652001Y-90114381D02*
X136652001Y-89352476D01*
X134747048Y-74493429D02*
X135508953Y-74493429D01*
X136271048Y-84399429D02*
X137032953Y-84399429D01*
X136271048Y-95829429D02*
X137032953Y-95829429D01*
X136271048Y-100401429D02*
X137032953Y-100401429D01*
X136652001Y-100782381D02*
X136652001Y-100020476D01*
X136152000Y-106171904D02*
X136104381Y-106267142D01*
X136104381Y-106409999D01*
X136152000Y-106552857D01*
X136247238Y-106648095D01*
X136342476Y-106695714D01*
X136532952Y-106743333D01*
X136675810Y-106743333D01*
X136866286Y-106695714D01*
X136961524Y-106648095D01*
X137056762Y-106552857D01*
X137104381Y-106409999D01*
X137104381Y-106314761D01*
X137056762Y-106171904D01*
X137009143Y-106124285D01*
X136675810Y-106124285D01*
X136675810Y-106314761D01*
X137104381Y-105695714D02*
X136104381Y-105695714D01*
X137104381Y-105124285D01*
X136104381Y-105124285D01*
X137104381Y-104648095D02*
X136104381Y-104648095D01*
X136104381Y-104410000D01*
X136152000Y-104267142D01*
X136247238Y-104171904D01*
X136342476Y-104124285D01*
X136532952Y-104076666D01*
X136675810Y-104076666D01*
X136866286Y-104124285D01*
X136961524Y-104171904D01*
X137056762Y-104267142D01*
X137104381Y-104410000D01*
X137104381Y-104648095D01*
X136469429Y-114037714D02*
X136469429Y-113275809D01*
X136850381Y-113656761D02*
X136088476Y-113656761D01*
X136850381Y-112275809D02*
X136850381Y-112847238D01*
X136850381Y-112561524D02*
X135850381Y-112561524D01*
X135993238Y-112656762D01*
X136088476Y-112752000D01*
X136136095Y-112847238D01*
X135945619Y-111894857D02*
X135898000Y-111847238D01*
X135850381Y-111752000D01*
X135850381Y-111513904D01*
X135898000Y-111418666D01*
X135945619Y-111371047D01*
X136040857Y-111323428D01*
X136136095Y-111323428D01*
X136278952Y-111371047D01*
X136850381Y-111942476D01*
X136850381Y-111323428D01*
X136183714Y-110990095D02*
X136850381Y-110752000D01*
X136183714Y-110513904D01*
X136945619Y-110371047D02*
X136945619Y-109609142D01*
X136850381Y-109371047D02*
X136183714Y-109371047D01*
X135850381Y-109371047D02*
X135898000Y-109418666D01*
X135945619Y-109371047D01*
X135898000Y-109323428D01*
X135850381Y-109371047D01*
X135945619Y-109371047D01*
X136183714Y-108894857D02*
X136850381Y-108894857D01*
X136278952Y-108894857D02*
X136231333Y-108847238D01*
X136183714Y-108752000D01*
X136183714Y-108609142D01*
X136231333Y-108513904D01*
X136326571Y-108466285D01*
X136850381Y-108466285D01*
D11*
X163532420Y-107950000D02*
G75*
G03X163532420Y-107950000I-718420J0D01*
G01*
X161544000Y-108966000D02*
X161544000Y-109220000D01*
X161544000Y-109220000D02*
X161544000Y-108966000D01*
X161544000Y-106934000D02*
X161544000Y-109220000D01*
X164084000Y-106934000D02*
X161544000Y-106934000D01*
X164084000Y-109220000D02*
X164084000Y-106934000D01*
X161544000Y-109220000D02*
X164084000Y-109220000D01*
D10*
X163139809Y-77509714D02*
X163377904Y-78176381D01*
X163616000Y-77509714D01*
X164568381Y-78176381D02*
X164235047Y-77700190D01*
X163996952Y-78176381D02*
X163996952Y-77176381D01*
X164377905Y-77176381D01*
X164473143Y-77224000D01*
X164520762Y-77271619D01*
X164568381Y-77366857D01*
X164568381Y-77509714D01*
X164520762Y-77604952D01*
X164473143Y-77652571D01*
X164377905Y-77700190D01*
X163996952Y-77700190D01*
X165377905Y-78128762D02*
X165282667Y-78176381D01*
X165092190Y-78176381D01*
X164996952Y-78128762D01*
X164949333Y-78033524D01*
X164949333Y-77652571D01*
X164996952Y-77557333D01*
X165092190Y-77509714D01*
X165282667Y-77509714D01*
X165377905Y-77557333D01*
X165425524Y-77652571D01*
X165425524Y-77747810D01*
X164949333Y-77843048D01*
X166282667Y-77509714D02*
X166282667Y-78319238D01*
X166235048Y-78414476D01*
X166187429Y-78462095D01*
X166092190Y-78509714D01*
X165949333Y-78509714D01*
X165854095Y-78462095D01*
X166282667Y-78128762D02*
X166187429Y-78176381D01*
X165996952Y-78176381D01*
X165901714Y-78128762D01*
X165854095Y-78081143D01*
X165806476Y-77985905D01*
X165806476Y-77700190D01*
X165854095Y-77604952D01*
X165901714Y-77557333D01*
X165996952Y-77509714D01*
X166187429Y-77509714D01*
X166282667Y-77557333D01*
X166520762Y-78271619D02*
X167282667Y-78271619D01*
X167520762Y-77652571D02*
X167854096Y-77652571D01*
X167996953Y-78176381D02*
X167520762Y-78176381D01*
X167520762Y-77176381D01*
X167996953Y-77176381D01*
X168425524Y-78176381D02*
X168425524Y-77176381D01*
X168996953Y-78176381D01*
X168996953Y-77176381D01*
X154821619Y-73191714D02*
X155059714Y-73858381D01*
X155297810Y-73191714D01*
X156250191Y-73858381D02*
X155916857Y-73382190D01*
X155678762Y-73858381D02*
X155678762Y-72858381D01*
X156059715Y-72858381D01*
X156154953Y-72906000D01*
X156202572Y-72953619D01*
X156250191Y-73048857D01*
X156250191Y-73191714D01*
X156202572Y-73286952D01*
X156154953Y-73334571D01*
X156059715Y-73382190D01*
X155678762Y-73382190D01*
X157059715Y-73810762D02*
X156964477Y-73858381D01*
X156774000Y-73858381D01*
X156678762Y-73810762D01*
X156631143Y-73715524D01*
X156631143Y-73334571D01*
X156678762Y-73239333D01*
X156774000Y-73191714D01*
X156964477Y-73191714D01*
X157059715Y-73239333D01*
X157107334Y-73334571D01*
X157107334Y-73429810D01*
X156631143Y-73525048D01*
X157964477Y-73191714D02*
X157964477Y-74001238D01*
X157916858Y-74096476D01*
X157869239Y-74144095D01*
X157774000Y-74191714D01*
X157631143Y-74191714D01*
X157535905Y-74144095D01*
X157964477Y-73810762D02*
X157869239Y-73858381D01*
X157678762Y-73858381D01*
X157583524Y-73810762D01*
X157535905Y-73763143D01*
X157488286Y-73667905D01*
X157488286Y-73382190D01*
X157535905Y-73286952D01*
X157583524Y-73239333D01*
X157678762Y-73191714D01*
X157869239Y-73191714D01*
X157964477Y-73239333D01*
X158678762Y-74191714D02*
X158678762Y-72763143D01*
X159393048Y-73858381D02*
X159393048Y-72858381D01*
X159964477Y-73858381D01*
X159964477Y-72858381D01*
X161012096Y-73858381D02*
X160678762Y-73382190D01*
X160440667Y-73858381D02*
X160440667Y-72858381D01*
X160821620Y-72858381D01*
X160916858Y-72906000D01*
X160964477Y-72953619D01*
X161012096Y-73048857D01*
X161012096Y-73191714D01*
X160964477Y-73286952D01*
X160916858Y-73334571D01*
X160821620Y-73382190D01*
X160440667Y-73382190D01*
X161774001Y-73334571D02*
X161440667Y-73334571D01*
X161440667Y-73858381D02*
X161440667Y-72858381D01*
X161916858Y-72858381D01*
X162535905Y-74191714D02*
X162535905Y-72763143D01*
X163107334Y-72858381D02*
X163440667Y-73858381D01*
X163774001Y-72858381D01*
X164678763Y-73763143D02*
X164631144Y-73810762D01*
X164488287Y-73858381D01*
X164393049Y-73858381D01*
X164250191Y-73810762D01*
X164154953Y-73715524D01*
X164107334Y-73620286D01*
X164059715Y-73429810D01*
X164059715Y-73286952D01*
X164107334Y-73096476D01*
X164154953Y-73001238D01*
X164250191Y-72906000D01*
X164393049Y-72858381D01*
X164488287Y-72858381D01*
X164631144Y-72906000D01*
X164678763Y-72953619D01*
X165678763Y-73763143D02*
X165631144Y-73810762D01*
X165488287Y-73858381D01*
X165393049Y-73858381D01*
X165250191Y-73810762D01*
X165154953Y-73715524D01*
X165107334Y-73620286D01*
X165059715Y-73429810D01*
X165059715Y-73286952D01*
X165107334Y-73096476D01*
X165154953Y-73001238D01*
X165250191Y-72906000D01*
X165393049Y-72858381D01*
X165488287Y-72858381D01*
X165631144Y-72906000D01*
X165678763Y-72953619D01*
D12*
X171450000Y-77597000D02*
X171450000Y-110744000D01*
X153797000Y-110744000D02*
X153670000Y-77597000D01*
X171450000Y-110744000D02*
X153797000Y-110744000D01*
X153670000Y-77597000D02*
X171450000Y-77597000D01*
X150550000Y-107991000D02*
X150550000Y-112989000D01*
X150690000Y-107999000D02*
X150690000Y-112981000D01*
X150830000Y-108015000D02*
X150830000Y-110395000D01*
X150830000Y-110585000D02*
X150830000Y-112965000D01*
X150970000Y-108039000D02*
X150970000Y-110000000D01*
X150970000Y-110980000D02*
X150970000Y-112941000D01*
X151110000Y-108072000D02*
X151110000Y-109833000D01*
X151110000Y-111147000D02*
X151110000Y-112908000D01*
X151250000Y-108113000D02*
X151250000Y-109726000D01*
X151250000Y-111254000D02*
X151250000Y-112867000D01*
X151390000Y-108163000D02*
X151390000Y-109655000D01*
X151390000Y-111325000D02*
X151390000Y-112817000D01*
X151530000Y-108224000D02*
X151530000Y-109611000D01*
X151530000Y-111369000D02*
X151530000Y-112756000D01*
X151670000Y-108294000D02*
X151670000Y-109592000D01*
X151670000Y-111388000D02*
X151670000Y-112686000D01*
X151810000Y-108376000D02*
X151810000Y-109594000D01*
X151810000Y-111386000D02*
X151810000Y-112604000D01*
X151950000Y-108471000D02*
X151950000Y-109619000D01*
X151950000Y-111361000D02*
X151950000Y-112509000D01*
X152090000Y-108582000D02*
X152090000Y-109667000D01*
X152090000Y-111313000D02*
X152090000Y-112398000D01*
X152230000Y-108710000D02*
X152230000Y-109745000D01*
X152230000Y-111235000D02*
X152230000Y-112270000D01*
X152370000Y-108859000D02*
X152370000Y-109862000D01*
X152370000Y-111118000D02*
X152370000Y-112121000D01*
X152510000Y-109038000D02*
X152510000Y-110050000D01*
X152510000Y-110930000D02*
X152510000Y-111942000D01*
X152650000Y-109257000D02*
X152650000Y-111723000D01*
X152790000Y-109546000D02*
X152790000Y-111434000D01*
X152930000Y-110018000D02*
X152930000Y-110962000D01*
X152625000Y-110490000D02*
G75*
G03X152625000Y-110490000I-900000J0D01*
G01*
X153012500Y-110490000D02*
G75*
G03X153012500Y-110490000I-2537500J0D01*
G01*
X142607000Y-107096000D02*
X142607000Y-108296000D01*
X140857000Y-108296000D02*
X140857000Y-107096000D01*
X159385000Y-76835000D02*
X164465000Y-76835000D01*
X164465000Y-76835000D02*
X164465000Y-74295000D01*
X164465000Y-74295000D02*
X159385000Y-74295000D01*
X156565000Y-74015000D02*
X158115000Y-74015000D01*
X159385000Y-74295000D02*
X159385000Y-76835000D01*
X158115000Y-77115000D02*
X156565000Y-77115000D01*
X156565000Y-77115000D02*
X156565000Y-74015000D01*
X168275000Y-74295000D02*
X170815000Y-74295000D01*
X165455000Y-74015000D02*
X167005000Y-74015000D01*
X168275000Y-74295000D02*
X168275000Y-76835000D01*
X167005000Y-77115000D02*
X165455000Y-77115000D01*
X165455000Y-77115000D02*
X165455000Y-74015000D01*
X168275000Y-76835000D02*
X170815000Y-76835000D01*
X170815000Y-76835000D02*
X170815000Y-74295000D01*
X143080000Y-106758000D02*
X143080000Y-110158000D01*
X143082944Y-106760944D02*
G75*
G02X147180000Y-108458000I1697056J-1697056D01*
G01*
X143082944Y-110155056D02*
G75*
G03X147180000Y-108458000I1697056J1697056D01*
G01*
X148415000Y-78280000D02*
X148415000Y-78480000D01*
X148415000Y-84280000D02*
X148415000Y-84080000D01*
X142415000Y-84280000D02*
X142415000Y-84080000D01*
X142415000Y-78280000D02*
X142415000Y-78480000D01*
X142415000Y-80080000D02*
X142415000Y-82480000D01*
X148415000Y-80080000D02*
X148415000Y-82480000D01*
X148415000Y-78280000D02*
X142415000Y-78280000D01*
X142415000Y-84280000D02*
X148415000Y-84280000D01*
X147115000Y-81280000D02*
G75*
G03X147115000Y-81280000I-1700000J0D01*
G01*
X148415000Y-99235000D02*
X148415000Y-99435000D01*
X148415000Y-105235000D02*
X148415000Y-105035000D01*
X142415000Y-105235000D02*
X142415000Y-105035000D01*
X142415000Y-99235000D02*
X142415000Y-99435000D01*
X142415000Y-101035000D02*
X142415000Y-103435000D01*
X148415000Y-101035000D02*
X148415000Y-103435000D01*
X148415000Y-99235000D02*
X142415000Y-99235000D01*
X142415000Y-105235000D02*
X148415000Y-105235000D01*
X147115000Y-102235000D02*
G75*
G03X147115000Y-102235000I-1700000J0D01*
G01*
X148415000Y-85265000D02*
X148415000Y-85465000D01*
X148415000Y-91265000D02*
X148415000Y-91065000D01*
X142415000Y-91265000D02*
X142415000Y-91065000D01*
X142415000Y-85265000D02*
X142415000Y-85465000D01*
X142415000Y-87065000D02*
X142415000Y-89465000D01*
X148415000Y-87065000D02*
X148415000Y-89465000D01*
X148415000Y-85265000D02*
X142415000Y-85265000D01*
X142415000Y-91265000D02*
X148415000Y-91265000D01*
X147115000Y-88265000D02*
G75*
G03X147115000Y-88265000I-1700000J0D01*
G01*
X148415000Y-92250000D02*
X148415000Y-92450000D01*
X148415000Y-98250000D02*
X148415000Y-98050000D01*
X142415000Y-98250000D02*
X142415000Y-98050000D01*
X142415000Y-92250000D02*
X142415000Y-92450000D01*
X142415000Y-94050000D02*
X142415000Y-96450000D01*
X148415000Y-94050000D02*
X148415000Y-96450000D01*
X148415000Y-92250000D02*
X142415000Y-92250000D01*
X142415000Y-98250000D02*
X148415000Y-98250000D01*
X147115000Y-95250000D02*
G75*
G03X147115000Y-95250000I-1700000J0D01*
G01*
X138938000Y-116459000D02*
X137033000Y-116459000D01*
X134493000Y-116459000D02*
X135255000Y-116459000D01*
X132080000Y-116459000D02*
X131953000Y-116459000D01*
X132080000Y-116459000D02*
X132715000Y-116459000D01*
X128270000Y-116459000D02*
X130048000Y-116459000D01*
X128270000Y-120142000D02*
X129921000Y-120142000D01*
X132588000Y-120269000D02*
X131953000Y-120269000D01*
X135128000Y-120269000D02*
X134493000Y-120269000D01*
X138938000Y-120142000D02*
X137287000Y-120142000D01*
X132080000Y-115316000D02*
X132080000Y-116459000D01*
X135128000Y-115316000D02*
X135128000Y-116459000D01*
X138938000Y-116459000D02*
X138938000Y-120142000D01*
X128270000Y-120142000D02*
X128270000Y-116459000D01*
X138938000Y-115316000D02*
X138938000Y-116459000D01*
X128270000Y-116459000D02*
X128270000Y-115316000D01*
X133604000Y-115316000D02*
X128270000Y-115316000D01*
X133604000Y-115316000D02*
X138938000Y-115316000D01*
X149733000Y-116459000D02*
X147828000Y-116459000D01*
X145288000Y-116459000D02*
X146050000Y-116459000D01*
X142875000Y-116459000D02*
X142748000Y-116459000D01*
X142875000Y-116459000D02*
X143510000Y-116459000D01*
X139065000Y-116459000D02*
X140843000Y-116459000D01*
X139065000Y-120142000D02*
X140716000Y-120142000D01*
X143383000Y-120269000D02*
X142748000Y-120269000D01*
X145923000Y-120269000D02*
X145288000Y-120269000D01*
X149733000Y-120142000D02*
X148082000Y-120142000D01*
X142875000Y-115316000D02*
X142875000Y-116459000D01*
X145923000Y-115316000D02*
X145923000Y-116459000D01*
X149733000Y-116459000D02*
X149733000Y-120142000D01*
X139065000Y-120142000D02*
X139065000Y-116459000D01*
X149733000Y-115316000D02*
X149733000Y-116459000D01*
X139065000Y-116459000D02*
X139065000Y-115316000D01*
X144399000Y-115316000D02*
X139065000Y-115316000D01*
X144399000Y-115316000D02*
X149733000Y-115316000D01*
X160401000Y-116459000D02*
X158496000Y-116459000D01*
X155956000Y-116459000D02*
X156718000Y-116459000D01*
X153543000Y-116459000D02*
X153416000Y-116459000D01*
X153543000Y-116459000D02*
X154178000Y-116459000D01*
X149733000Y-116459000D02*
X151511000Y-116459000D01*
X149733000Y-120142000D02*
X151384000Y-120142000D01*
X154051000Y-120269000D02*
X153416000Y-120269000D01*
X156591000Y-120269000D02*
X155956000Y-120269000D01*
X160401000Y-120142000D02*
X158750000Y-120142000D01*
X153543000Y-115316000D02*
X153543000Y-116459000D01*
X156591000Y-115316000D02*
X156591000Y-116459000D01*
X160401000Y-116459000D02*
X160401000Y-120142000D01*
X149733000Y-120142000D02*
X149733000Y-116459000D01*
X160401000Y-115316000D02*
X160401000Y-116459000D01*
X149733000Y-116459000D02*
X149733000Y-115316000D01*
X155067000Y-115316000D02*
X149733000Y-115316000D01*
X155067000Y-115316000D02*
X160401000Y-115316000D01*
X139065000Y-75565000D02*
X136525000Y-75565000D01*
X141885000Y-75845000D02*
X140335000Y-75845000D01*
X139065000Y-75565000D02*
X139065000Y-73025000D01*
X140335000Y-72745000D02*
X141885000Y-72745000D01*
X141885000Y-72745000D02*
X141885000Y-75845000D01*
X139065000Y-73025000D02*
X136525000Y-73025000D01*
X136525000Y-73025000D02*
X136525000Y-75565000D01*
X129540000Y-101660000D02*
X132334000Y-101660000D01*
X132334000Y-101660000D02*
X132334000Y-99120000D01*
X132334000Y-99120000D02*
X129540000Y-99120000D01*
X126365000Y-102472800D02*
X123825000Y-102472800D01*
X123825000Y-102472800D02*
X123825000Y-98408800D01*
X123825000Y-98408800D02*
X126365000Y-98408800D01*
X126365000Y-98408800D02*
X126365000Y-102472800D01*
X125349000Y-102066400D02*
X124714000Y-99018400D01*
X125476000Y-101939400D02*
X124841000Y-98891400D01*
X125708570Y-98972028D02*
G75*
G03X124741940Y-98919340I-509430J-452772D01*
G01*
X125628896Y-101914728D02*
G75*
G03X125676660Y-98926960I-1905496J1524728D01*
G01*
X124737156Y-98915589D02*
G75*
G03X124790200Y-102066400I1348444J-1553151D01*
G01*
X124740519Y-102015097D02*
G75*
G03X125666500Y-101873360I407821J431297D01*
G01*
X134112000Y-102422000D02*
X134112000Y-98358000D01*
X136017000Y-98358000D02*
X129540000Y-98358000D01*
X130302000Y-102041000D02*
X130302000Y-101660000D01*
X130302000Y-102041000D02*
X133477000Y-102041000D01*
X133477000Y-102041000D02*
X133477000Y-98739000D01*
X133477000Y-98739000D02*
X130302000Y-98739000D01*
X130302000Y-98739000D02*
X130302000Y-99120000D01*
X129159000Y-97900000D02*
X129159000Y-92820000D01*
X136017000Y-102422000D02*
X129540000Y-102422000D01*
X129540000Y-102422000D02*
X129540000Y-98358000D01*
X136017000Y-93455000D02*
X136017000Y-97392000D01*
X136017000Y-97242000D02*
X136017000Y-103338000D01*
X126746000Y-92820000D02*
X126746000Y-112990000D01*
X123571000Y-92670000D02*
X123571000Y-112990000D01*
X129159000Y-97750000D02*
X129159000Y-112926500D01*
X133794500Y-97455500D02*
X129540000Y-97455500D01*
X124740519Y-96985097D02*
G75*
G03X125666500Y-96843360I407821J431297D01*
G01*
X124737156Y-93885589D02*
G75*
G03X124790200Y-97036400I1348444J-1553151D01*
G01*
X125628896Y-96884728D02*
G75*
G03X125676660Y-93896960I-1905496J1524728D01*
G01*
X125708570Y-93942028D02*
G75*
G03X124741940Y-93889340I-509430J-452772D01*
G01*
X129540000Y-97061800D02*
X129540000Y-93759800D01*
X129540000Y-97442800D02*
X129540000Y-97061800D01*
X129540000Y-93378800D02*
X129540000Y-93759800D01*
X125476000Y-96909400D02*
X124841000Y-93861400D01*
X125349000Y-97036400D02*
X124714000Y-93988400D01*
X126365000Y-93378800D02*
X126365000Y-97442800D01*
X123825000Y-93378800D02*
X126365000Y-93378800D01*
X123825000Y-97442800D02*
X123825000Y-93378800D01*
X126365000Y-97442800D02*
X123825000Y-97442800D01*
X126619000Y-92820000D02*
X128143000Y-92820000D01*
X129159000Y-92820000D02*
X133858000Y-92820000D01*
X128143000Y-92820000D02*
X129159000Y-92820000D01*
X130302000Y-93759800D02*
X130302000Y-94140800D01*
X130302000Y-97061800D02*
X130302000Y-96680800D01*
X133477000Y-97061800D02*
X130302000Y-97061800D01*
X133477000Y-93759800D02*
X133477000Y-97061800D01*
X133477000Y-93759800D02*
X130302000Y-93759800D01*
X134112000Y-93378800D02*
X136017000Y-93378800D01*
X134112000Y-97442800D02*
X134112000Y-93378800D01*
X136017000Y-93378800D02*
X136017000Y-92820000D01*
X129540000Y-93378800D02*
X134112000Y-93378800D01*
X136017000Y-97442800D02*
X134112000Y-97442800D01*
X133604000Y-92312000D02*
X135255000Y-92312000D01*
X133858000Y-92820000D02*
X135001000Y-92820000D01*
X133604000Y-92312000D02*
X133858000Y-92820000D01*
X135001000Y-92820000D02*
X136017000Y-92820000D01*
X135255000Y-92312000D02*
X135001000Y-92820000D01*
X128397000Y-92312000D02*
X128143000Y-92820000D01*
X123571000Y-92312000D02*
X128397000Y-92312000D01*
X123571000Y-92820000D02*
X123571000Y-92312000D01*
X123571000Y-92820000D02*
X126619000Y-92820000D01*
X132334000Y-96680800D02*
X129540000Y-96680800D01*
X129540000Y-96680800D02*
X129540000Y-94140800D01*
X132334000Y-94140800D02*
X129540000Y-94140800D01*
X132334000Y-96680800D02*
X132334000Y-94140800D01*
X132334000Y-111694600D02*
X132334000Y-109154600D01*
X132334000Y-109154600D02*
X129540000Y-109154600D01*
X129540000Y-111694600D02*
X129540000Y-109154600D01*
X132334000Y-111694600D02*
X129540000Y-111694600D01*
X132334000Y-106690800D02*
X132334000Y-104150800D01*
X132334000Y-104150800D02*
X129540000Y-104150800D01*
X129540000Y-106690800D02*
X129540000Y-104150800D01*
X132334000Y-106690800D02*
X129540000Y-106690800D01*
X135001000Y-97455500D02*
X136017000Y-97455500D01*
X133858000Y-97455500D02*
X135001000Y-97455500D01*
X136017000Y-107452800D02*
X134112000Y-107452800D01*
X129540000Y-103388800D02*
X134112000Y-103388800D01*
X136017000Y-107452800D02*
X136017000Y-103388800D01*
X136017000Y-108392600D02*
X134112000Y-108392600D01*
X136017000Y-108392600D02*
X136017000Y-107452800D01*
X129540000Y-112456600D02*
X134112000Y-112456600D01*
X136017000Y-112990000D02*
X136017000Y-112456600D01*
X136017000Y-112456600D02*
X136017000Y-108392600D01*
X134112000Y-107452800D02*
X134112000Y-103388800D01*
X134112000Y-107452800D02*
X129540000Y-107452800D01*
X134112000Y-103388800D02*
X136017000Y-103388800D01*
X134112000Y-108392600D02*
X134112000Y-112456600D01*
X134112000Y-108392600D02*
X129540000Y-108392600D01*
X134112000Y-112456600D02*
X136017000Y-112456600D01*
X133477000Y-103769800D02*
X130302000Y-103769800D01*
X133477000Y-103769800D02*
X133477000Y-107071800D01*
X133477000Y-107071800D02*
X130302000Y-107071800D01*
X133477000Y-108773600D02*
X130302000Y-108773600D01*
X133477000Y-108773600D02*
X133477000Y-112075600D01*
X133477000Y-112075600D02*
X130302000Y-112075600D01*
X130302000Y-112075600D02*
X130302000Y-111694600D01*
X130302000Y-108773600D02*
X130302000Y-109154600D01*
X130302000Y-107071800D02*
X130302000Y-106690800D01*
X130302000Y-103769800D02*
X130302000Y-104150800D01*
X136017000Y-112990000D02*
X129159000Y-112990000D01*
X129159000Y-112990000D02*
X126619000Y-112990000D01*
X126619000Y-112990000D02*
X123571000Y-112990000D01*
X126365000Y-107452800D02*
X123825000Y-107452800D01*
X123825000Y-107452800D02*
X123825000Y-103388800D01*
X123825000Y-103388800D02*
X126365000Y-103388800D01*
X126365000Y-103388800D02*
X126365000Y-107452800D01*
X126365000Y-108392600D02*
X123825000Y-108392600D01*
X126365000Y-108392600D02*
X126365000Y-112456600D01*
X126365000Y-112456600D02*
X123825000Y-112456600D01*
X123825000Y-108392600D02*
X123825000Y-112456600D01*
X125349000Y-107046400D02*
X124714000Y-103998400D01*
X125476000Y-106919400D02*
X124841000Y-103871400D01*
X125349000Y-112050200D02*
X124714000Y-108999660D01*
X125476000Y-111923200D02*
X124841000Y-108875200D01*
X129540000Y-112456600D02*
X129540000Y-112075600D01*
X129540000Y-108392600D02*
X129540000Y-108773600D01*
X129540000Y-108773600D02*
X129540000Y-112075600D01*
X129540000Y-103388800D02*
X129540000Y-103769800D01*
X129540000Y-107452800D02*
X129540000Y-107071800D01*
X129540000Y-107071800D02*
X129540000Y-103769800D01*
X125708570Y-103952028D02*
G75*
G03X124741940Y-103899340I-509430J-452772D01*
G01*
X125628896Y-106894728D02*
G75*
G03X125676660Y-103906960I-1905496J1524728D01*
G01*
X124737156Y-103895589D02*
G75*
G03X124790200Y-107046400I1348444J-1553151D01*
G01*
X124740519Y-106995097D02*
G75*
G03X125666500Y-106853360I407821J431297D01*
G01*
X125711110Y-108955851D02*
G75*
G03X124741940Y-108900600I-511970J-452749D01*
G01*
X125628896Y-111895988D02*
G75*
G03X125676660Y-108908220I-1905496J1524728D01*
G01*
X124732153Y-108893427D02*
G75*
G03X124790200Y-112050200I1353447J-1554033D01*
G01*
X124742981Y-111999520D02*
G75*
G03X125666500Y-111854620I405359J431920D01*
G01*
X129540000Y-80498000D02*
X132334000Y-80498000D01*
X132334000Y-80498000D02*
X132334000Y-77958000D01*
X132334000Y-77958000D02*
X129540000Y-77958000D01*
X126365000Y-81310800D02*
X123825000Y-81310800D01*
X123825000Y-81310800D02*
X123825000Y-77246800D01*
X123825000Y-77246800D02*
X126365000Y-77246800D01*
X126365000Y-77246800D02*
X126365000Y-81310800D01*
X125349000Y-80904400D02*
X124714000Y-77856400D01*
X125476000Y-80777400D02*
X124841000Y-77729400D01*
X125708570Y-77810028D02*
G75*
G03X124741940Y-77757340I-509430J-452772D01*
G01*
X125628896Y-80752728D02*
G75*
G03X125676660Y-77764960I-1905496J1524728D01*
G01*
X124737156Y-77753589D02*
G75*
G03X124790200Y-80904400I1348444J-1553151D01*
G01*
X124740519Y-80853097D02*
G75*
G03X125666500Y-80711360I407821J431297D01*
G01*
X134112000Y-81260000D02*
X134112000Y-77196000D01*
X136017000Y-77196000D02*
X129540000Y-77196000D01*
X130302000Y-80879000D02*
X130302000Y-80498000D01*
X130302000Y-80879000D02*
X133477000Y-80879000D01*
X133477000Y-80879000D02*
X133477000Y-77577000D01*
X133477000Y-77577000D02*
X130302000Y-77577000D01*
X130302000Y-77577000D02*
X130302000Y-77958000D01*
X129159000Y-76738000D02*
X129159000Y-71658000D01*
X136017000Y-81260000D02*
X129540000Y-81260000D01*
X129540000Y-81260000D02*
X129540000Y-77196000D01*
X136017000Y-72293000D02*
X136017000Y-76230000D01*
X136017000Y-76080000D02*
X136017000Y-82176000D01*
X126746000Y-71658000D02*
X126746000Y-91828000D01*
X123571000Y-71508000D02*
X123571000Y-91828000D01*
X129159000Y-76588000D02*
X129159000Y-91764500D01*
X133794500Y-76293500D02*
X129540000Y-76293500D01*
X124740519Y-75823097D02*
G75*
G03X125666500Y-75681360I407821J431297D01*
G01*
X124737156Y-72723589D02*
G75*
G03X124790200Y-75874400I1348444J-1553151D01*
G01*
X125628896Y-75722728D02*
G75*
G03X125676660Y-72734960I-1905496J1524728D01*
G01*
X125708570Y-72780028D02*
G75*
G03X124741940Y-72727340I-509430J-452772D01*
G01*
X129540000Y-75899800D02*
X129540000Y-72597800D01*
X129540000Y-76280800D02*
X129540000Y-75899800D01*
X129540000Y-72216800D02*
X129540000Y-72597800D01*
X125476000Y-75747400D02*
X124841000Y-72699400D01*
X125349000Y-75874400D02*
X124714000Y-72826400D01*
X126365000Y-72216800D02*
X126365000Y-76280800D01*
X123825000Y-72216800D02*
X126365000Y-72216800D01*
X123825000Y-76280800D02*
X123825000Y-72216800D01*
X126365000Y-76280800D02*
X123825000Y-76280800D01*
X126619000Y-71658000D02*
X128143000Y-71658000D01*
X129159000Y-71658000D02*
X133858000Y-71658000D01*
X128143000Y-71658000D02*
X129159000Y-71658000D01*
X130302000Y-72597800D02*
X130302000Y-72978800D01*
X130302000Y-75899800D02*
X130302000Y-75518800D01*
X133477000Y-75899800D02*
X130302000Y-75899800D01*
X133477000Y-72597800D02*
X133477000Y-75899800D01*
X133477000Y-72597800D02*
X130302000Y-72597800D01*
X134112000Y-72216800D02*
X136017000Y-72216800D01*
X134112000Y-76280800D02*
X134112000Y-72216800D01*
X136017000Y-72216800D02*
X136017000Y-71658000D01*
X129540000Y-72216800D02*
X134112000Y-72216800D01*
X136017000Y-76280800D02*
X134112000Y-76280800D01*
X133604000Y-71150000D02*
X135255000Y-71150000D01*
X133858000Y-71658000D02*
X135001000Y-71658000D01*
X133604000Y-71150000D02*
X133858000Y-71658000D01*
X135001000Y-71658000D02*
X136017000Y-71658000D01*
X135255000Y-71150000D02*
X135001000Y-71658000D01*
X128397000Y-71150000D02*
X128143000Y-71658000D01*
X123571000Y-71150000D02*
X128397000Y-71150000D01*
X123571000Y-71658000D02*
X123571000Y-71150000D01*
X123571000Y-71658000D02*
X126619000Y-71658000D01*
X132334000Y-75518800D02*
X129540000Y-75518800D01*
X129540000Y-75518800D02*
X129540000Y-72978800D01*
X132334000Y-72978800D02*
X129540000Y-72978800D01*
X132334000Y-75518800D02*
X132334000Y-72978800D01*
X132334000Y-90532600D02*
X132334000Y-87992600D01*
X132334000Y-87992600D02*
X129540000Y-87992600D01*
X129540000Y-90532600D02*
X129540000Y-87992600D01*
X132334000Y-90532600D02*
X129540000Y-90532600D01*
X132334000Y-85528800D02*
X132334000Y-82988800D01*
X132334000Y-82988800D02*
X129540000Y-82988800D01*
X129540000Y-85528800D02*
X129540000Y-82988800D01*
X132334000Y-85528800D02*
X129540000Y-85528800D01*
X135001000Y-76293500D02*
X136017000Y-76293500D01*
X133858000Y-76293500D02*
X135001000Y-76293500D01*
X136017000Y-86290800D02*
X134112000Y-86290800D01*
X129540000Y-82226800D02*
X134112000Y-82226800D01*
X136017000Y-86290800D02*
X136017000Y-82226800D01*
X136017000Y-87230600D02*
X134112000Y-87230600D01*
X136017000Y-87230600D02*
X136017000Y-86290800D01*
X129540000Y-91294600D02*
X134112000Y-91294600D01*
X136017000Y-91828000D02*
X136017000Y-91294600D01*
X136017000Y-91294600D02*
X136017000Y-87230600D01*
X134112000Y-86290800D02*
X134112000Y-82226800D01*
X134112000Y-86290800D02*
X129540000Y-86290800D01*
X134112000Y-82226800D02*
X136017000Y-82226800D01*
X134112000Y-87230600D02*
X134112000Y-91294600D01*
X134112000Y-87230600D02*
X129540000Y-87230600D01*
X134112000Y-91294600D02*
X136017000Y-91294600D01*
X133477000Y-82607800D02*
X130302000Y-82607800D01*
X133477000Y-82607800D02*
X133477000Y-85909800D01*
X133477000Y-85909800D02*
X130302000Y-85909800D01*
X133477000Y-87611600D02*
X130302000Y-87611600D01*
X133477000Y-87611600D02*
X133477000Y-90913600D01*
X133477000Y-90913600D02*
X130302000Y-90913600D01*
X130302000Y-90913600D02*
X130302000Y-90532600D01*
X130302000Y-87611600D02*
X130302000Y-87992600D01*
X130302000Y-85909800D02*
X130302000Y-85528800D01*
X130302000Y-82607800D02*
X130302000Y-82988800D01*
X136017000Y-91828000D02*
X129159000Y-91828000D01*
X129159000Y-91828000D02*
X126619000Y-91828000D01*
X126619000Y-91828000D02*
X123571000Y-91828000D01*
X126365000Y-86290800D02*
X123825000Y-86290800D01*
X123825000Y-86290800D02*
X123825000Y-82226800D01*
X123825000Y-82226800D02*
X126365000Y-82226800D01*
X126365000Y-82226800D02*
X126365000Y-86290800D01*
X126365000Y-87230600D02*
X123825000Y-87230600D01*
X126365000Y-87230600D02*
X126365000Y-91294600D01*
X126365000Y-91294600D02*
X123825000Y-91294600D01*
X123825000Y-87230600D02*
X123825000Y-91294600D01*
X125349000Y-85884400D02*
X124714000Y-82836400D01*
X125476000Y-85757400D02*
X124841000Y-82709400D01*
X125349000Y-90888200D02*
X124714000Y-87837660D01*
X125476000Y-90761200D02*
X124841000Y-87713200D01*
X129540000Y-91294600D02*
X129540000Y-90913600D01*
X129540000Y-87230600D02*
X129540000Y-87611600D01*
X129540000Y-87611600D02*
X129540000Y-90913600D01*
X129540000Y-82226800D02*
X129540000Y-82607800D01*
X129540000Y-86290800D02*
X129540000Y-85909800D01*
X129540000Y-85909800D02*
X129540000Y-82607800D01*
X125708570Y-82790028D02*
G75*
G03X124741940Y-82737340I-509430J-452772D01*
G01*
X125628896Y-85732728D02*
G75*
G03X125676660Y-82744960I-1905496J1524728D01*
G01*
X124737156Y-82733589D02*
G75*
G03X124790200Y-85884400I1348444J-1553151D01*
G01*
X124740519Y-85833097D02*
G75*
G03X125666500Y-85691360I407821J431297D01*
G01*
X125711110Y-87793851D02*
G75*
G03X124741940Y-87738600I-511970J-452749D01*
G01*
X125628896Y-90733988D02*
G75*
G03X125676660Y-87746220I-1905496J1524728D01*
G01*
X124732153Y-87731427D02*
G75*
G03X124790200Y-90888200I1353447J-1554033D01*
G01*
X124742981Y-90837520D02*
G75*
G03X125666500Y-90692620I405359J431920D01*
G01*
X147153334Y-112498143D02*
X147105715Y-112545762D01*
X146962858Y-112593381D01*
X146867620Y-112593381D01*
X146724762Y-112545762D01*
X146629524Y-112450524D01*
X146581905Y-112355286D01*
X146534286Y-112164810D01*
X146534286Y-112021952D01*
X146581905Y-111831476D01*
X146629524Y-111736238D01*
X146724762Y-111641000D01*
X146867620Y-111593381D01*
X146962858Y-111593381D01*
X147105715Y-111641000D01*
X147153334Y-111688619D01*
X148105715Y-112593381D02*
X147534286Y-112593381D01*
X147820000Y-112593381D02*
X147820000Y-111593381D01*
X147724762Y-111736238D01*
X147629524Y-111831476D01*
X147534286Y-111879095D01*
X140660381Y-107481666D02*
X140184190Y-107815000D01*
X140660381Y-108053095D02*
X139660381Y-108053095D01*
X139660381Y-107672142D01*
X139708000Y-107576904D01*
X139755619Y-107529285D01*
X139850857Y-107481666D01*
X139993714Y-107481666D01*
X140088952Y-107529285D01*
X140136571Y-107576904D01*
X140184190Y-107672142D01*
X140184190Y-108053095D01*
X140660381Y-106529285D02*
X140660381Y-107100714D01*
X140660381Y-106815000D02*
X139660381Y-106815000D01*
X139803238Y-106910238D01*
X139898476Y-107005476D01*
X139946095Y-107100714D01*
X161357381Y-76398333D02*
X162071667Y-76398333D01*
X162214524Y-76445953D01*
X162309762Y-76541191D01*
X162357381Y-76684048D01*
X162357381Y-76779286D01*
X162357381Y-75922143D02*
X161357381Y-75922143D01*
X161357381Y-75541190D01*
X161405000Y-75445952D01*
X161452619Y-75398333D01*
X161547857Y-75350714D01*
X161690714Y-75350714D01*
X161785952Y-75398333D01*
X161833571Y-75445952D01*
X161881190Y-75541190D01*
X161881190Y-75922143D01*
X161452619Y-74969762D02*
X161405000Y-74922143D01*
X161357381Y-74826905D01*
X161357381Y-74588809D01*
X161405000Y-74493571D01*
X161452619Y-74445952D01*
X161547857Y-74398333D01*
X161643095Y-74398333D01*
X161785952Y-74445952D01*
X162357381Y-75017381D01*
X162357381Y-74398333D01*
X145883381Y-109219905D02*
X146692905Y-109219905D01*
X146788143Y-109172286D01*
X146835762Y-109124667D01*
X146883381Y-109029429D01*
X146883381Y-108838952D01*
X146835762Y-108743714D01*
X146788143Y-108696095D01*
X146692905Y-108648476D01*
X145883381Y-108648476D01*
X145883381Y-108267524D02*
X145883381Y-107648476D01*
X146264333Y-107981810D01*
X146264333Y-107838952D01*
X146311952Y-107743714D01*
X146359571Y-107696095D01*
X146454810Y-107648476D01*
X146692905Y-107648476D01*
X146788143Y-107696095D01*
X146835762Y-107743714D01*
X146883381Y-107838952D01*
X146883381Y-108124667D01*
X146835762Y-108219905D01*
X146788143Y-108267524D01*
X144208667Y-81684762D02*
X144351524Y-81732381D01*
X144589620Y-81732381D01*
X144684858Y-81684762D01*
X144732477Y-81637143D01*
X144780096Y-81541905D01*
X144780096Y-81446667D01*
X144732477Y-81351429D01*
X144684858Y-81303810D01*
X144589620Y-81256190D01*
X144399143Y-81208571D01*
X144303905Y-81160952D01*
X144256286Y-81113333D01*
X144208667Y-81018095D01*
X144208667Y-80922857D01*
X144256286Y-80827619D01*
X144303905Y-80780000D01*
X144399143Y-80732381D01*
X144637239Y-80732381D01*
X144780096Y-80780000D01*
X145113429Y-80732381D02*
X145351524Y-81732381D01*
X145542001Y-81018095D01*
X145732477Y-81732381D01*
X145970572Y-80732381D01*
X146875334Y-81732381D02*
X146303905Y-81732381D01*
X146589619Y-81732381D02*
X146589619Y-80732381D01*
X146494381Y-80875238D01*
X146399143Y-80970476D01*
X146303905Y-81018095D01*
X144081667Y-102512762D02*
X144224524Y-102560381D01*
X144462620Y-102560381D01*
X144557858Y-102512762D01*
X144605477Y-102465143D01*
X144653096Y-102369905D01*
X144653096Y-102274667D01*
X144605477Y-102179429D01*
X144557858Y-102131810D01*
X144462620Y-102084190D01*
X144272143Y-102036571D01*
X144176905Y-101988952D01*
X144129286Y-101941333D01*
X144081667Y-101846095D01*
X144081667Y-101750857D01*
X144129286Y-101655619D01*
X144176905Y-101608000D01*
X144272143Y-101560381D01*
X144510239Y-101560381D01*
X144653096Y-101608000D01*
X144986429Y-101560381D02*
X145224524Y-102560381D01*
X145415001Y-101846095D01*
X145605477Y-102560381D01*
X145843572Y-101560381D01*
X146176905Y-101655619D02*
X146224524Y-101608000D01*
X146319762Y-101560381D01*
X146557858Y-101560381D01*
X146653096Y-101608000D01*
X146700715Y-101655619D01*
X146748334Y-101750857D01*
X146748334Y-101846095D01*
X146700715Y-101988952D01*
X146129286Y-102560381D01*
X146748334Y-102560381D01*
X144081667Y-88796762D02*
X144224524Y-88844381D01*
X144462620Y-88844381D01*
X144557858Y-88796762D01*
X144605477Y-88749143D01*
X144653096Y-88653905D01*
X144653096Y-88558667D01*
X144605477Y-88463429D01*
X144557858Y-88415810D01*
X144462620Y-88368190D01*
X144272143Y-88320571D01*
X144176905Y-88272952D01*
X144129286Y-88225333D01*
X144081667Y-88130095D01*
X144081667Y-88034857D01*
X144129286Y-87939619D01*
X144176905Y-87892000D01*
X144272143Y-87844381D01*
X144510239Y-87844381D01*
X144653096Y-87892000D01*
X144986429Y-87844381D02*
X145224524Y-88844381D01*
X145415001Y-88130095D01*
X145605477Y-88844381D01*
X145843572Y-87844381D01*
X146129286Y-87844381D02*
X146748334Y-87844381D01*
X146415000Y-88225333D01*
X146557858Y-88225333D01*
X146653096Y-88272952D01*
X146700715Y-88320571D01*
X146748334Y-88415810D01*
X146748334Y-88653905D01*
X146700715Y-88749143D01*
X146653096Y-88796762D01*
X146557858Y-88844381D01*
X146272143Y-88844381D01*
X146176905Y-88796762D01*
X146129286Y-88749143D01*
X144081667Y-95654762D02*
X144224524Y-95702381D01*
X144462620Y-95702381D01*
X144557858Y-95654762D01*
X144605477Y-95607143D01*
X144653096Y-95511905D01*
X144653096Y-95416667D01*
X144605477Y-95321429D01*
X144557858Y-95273810D01*
X144462620Y-95226190D01*
X144272143Y-95178571D01*
X144176905Y-95130952D01*
X144129286Y-95083333D01*
X144081667Y-94988095D01*
X144081667Y-94892857D01*
X144129286Y-94797619D01*
X144176905Y-94750000D01*
X144272143Y-94702381D01*
X144510239Y-94702381D01*
X144653096Y-94750000D01*
X144986429Y-94702381D02*
X145224524Y-95702381D01*
X145415001Y-94988095D01*
X145605477Y-95702381D01*
X145843572Y-94702381D01*
X146653096Y-95035714D02*
X146653096Y-95702381D01*
X146415000Y-94654762D02*
X146176905Y-95369048D01*
X146795953Y-95369048D01*
X133635762Y-115101619D02*
X133540524Y-115054000D01*
X133445286Y-114958762D01*
X133302429Y-114815905D01*
X133207190Y-114768286D01*
X133111952Y-114768286D01*
X133159571Y-115006381D02*
X133064333Y-114958762D01*
X132969095Y-114863524D01*
X132921476Y-114673048D01*
X132921476Y-114339714D01*
X132969095Y-114149238D01*
X133064333Y-114054000D01*
X133159571Y-114006381D01*
X133350048Y-114006381D01*
X133445286Y-114054000D01*
X133540524Y-114149238D01*
X133588143Y-114339714D01*
X133588143Y-114673048D01*
X133540524Y-114863524D01*
X133445286Y-114958762D01*
X133350048Y-115006381D01*
X133159571Y-115006381D01*
X134540524Y-115006381D02*
X133969095Y-115006381D01*
X134254809Y-115006381D02*
X134254809Y-114006381D01*
X134159571Y-114149238D01*
X134064333Y-114244476D01*
X133969095Y-114292095D01*
X144430762Y-115101619D02*
X144335524Y-115054000D01*
X144240286Y-114958762D01*
X144097429Y-114815905D01*
X144002190Y-114768286D01*
X143906952Y-114768286D01*
X143954571Y-115006381D02*
X143859333Y-114958762D01*
X143764095Y-114863524D01*
X143716476Y-114673048D01*
X143716476Y-114339714D01*
X143764095Y-114149238D01*
X143859333Y-114054000D01*
X143954571Y-114006381D01*
X144145048Y-114006381D01*
X144240286Y-114054000D01*
X144335524Y-114149238D01*
X144383143Y-114339714D01*
X144383143Y-114673048D01*
X144335524Y-114863524D01*
X144240286Y-114958762D01*
X144145048Y-115006381D01*
X143954571Y-115006381D01*
X144764095Y-114101619D02*
X144811714Y-114054000D01*
X144906952Y-114006381D01*
X145145048Y-114006381D01*
X145240286Y-114054000D01*
X145287905Y-114101619D01*
X145335524Y-114196857D01*
X145335524Y-114292095D01*
X145287905Y-114434952D01*
X144716476Y-115006381D01*
X145335524Y-115006381D01*
X154971762Y-114847619D02*
X154876524Y-114800000D01*
X154781286Y-114704762D01*
X154638429Y-114561905D01*
X154543190Y-114514286D01*
X154447952Y-114514286D01*
X154495571Y-114752381D02*
X154400333Y-114704762D01*
X154305095Y-114609524D01*
X154257476Y-114419048D01*
X154257476Y-114085714D01*
X154305095Y-113895238D01*
X154400333Y-113800000D01*
X154495571Y-113752381D01*
X154686048Y-113752381D01*
X154781286Y-113800000D01*
X154876524Y-113895238D01*
X154924143Y-114085714D01*
X154924143Y-114419048D01*
X154876524Y-114609524D01*
X154781286Y-114704762D01*
X154686048Y-114752381D01*
X154495571Y-114752381D01*
X155257476Y-113752381D02*
X155876524Y-113752381D01*
X155543190Y-114133333D01*
X155686048Y-114133333D01*
X155781286Y-114180952D01*
X155828905Y-114228571D01*
X155876524Y-114323810D01*
X155876524Y-114561905D01*
X155828905Y-114657143D01*
X155781286Y-114704762D01*
X155686048Y-114752381D01*
X155400333Y-114752381D01*
X155305095Y-114704762D01*
X155257476Y-114657143D01*
X159194667Y-76176381D02*
X158861333Y-75700190D01*
X158623238Y-76176381D02*
X158623238Y-75176381D01*
X159004191Y-75176381D01*
X159099429Y-75224000D01*
X159147048Y-75271619D01*
X159194667Y-75366857D01*
X159194667Y-75509714D01*
X159147048Y-75604952D01*
X159099429Y-75652571D01*
X159004191Y-75700190D01*
X158623238Y-75700190D01*
X159623238Y-75652571D02*
X159956572Y-75652571D01*
X160099429Y-76176381D02*
X159623238Y-76176381D01*
X159623238Y-75176381D01*
X160099429Y-75176381D01*
X160861334Y-75652571D02*
X160528000Y-75652571D01*
X160528000Y-76176381D02*
X160528000Y-75176381D01*
X161004191Y-75176381D01*
X161528000Y-75176381D02*
X161528000Y-75414476D01*
X161289905Y-75319238D02*
X161528000Y-75414476D01*
X161766096Y-75319238D01*
X161385143Y-75604952D02*
X161528000Y-75414476D01*
X161670858Y-75604952D01*
X162289905Y-75176381D02*
X162289905Y-75414476D01*
X162051810Y-75319238D02*
X162289905Y-75414476D01*
X162528001Y-75319238D01*
X162147048Y-75604952D02*
X162289905Y-75414476D01*
X162432763Y-75604952D01*
M02*
