G04 #@! TF.FileFunction,Legend,Bot*
%FSLAX46Y46*%
G04 Gerber Fmt 4.6, Leading zero omitted, Abs format (unit mm)*
G04 Created by KiCad (PCBNEW 4.0.2-stable) date 19-Oct-16 7:33:17 PM*
%MOMM*%
G01*
G04 APERTURE LIST*
%ADD10C,0.100000*%
%ADD11C,0.150000*%
G04 APERTURE END LIST*
D10*
D11*
X139065000Y-76708000D02*
X141605000Y-76708000D01*
X141605000Y-76708000D02*
X141605000Y-79502000D01*
X139065000Y-76708000D02*
X136525000Y-76708000D01*
X136525000Y-76708000D02*
X136525000Y-79502000D01*
X149989953Y-90170000D02*
G75*
G03X149989953Y-90170000I-10924953J0D01*
G01*
X159004000Y-92456000D02*
X159004000Y-89408000D01*
X159004000Y-89408000D02*
X166116000Y-89408000D01*
X166116000Y-89408000D02*
X166116000Y-92456000D01*
X159004000Y-95504000D02*
X159004000Y-96266000D01*
X159004000Y-96266000D02*
X160528000Y-98552000D01*
X160528000Y-98552000D02*
X164592000Y-98552000D01*
X164592000Y-98552000D02*
X166116000Y-96266000D01*
X166116000Y-96266000D02*
X166116000Y-95504000D01*
X164250000Y-81780000D02*
X164250000Y-80780000D01*
X165950000Y-80780000D02*
X165950000Y-81780000D01*
X164250000Y-86860000D02*
X164250000Y-85860000D01*
X165950000Y-85860000D02*
X165950000Y-86860000D01*
X159805000Y-81780000D02*
X159805000Y-80780000D01*
X161505000Y-80780000D02*
X161505000Y-81780000D01*
X159805000Y-86860000D02*
X159805000Y-85860000D01*
X161505000Y-85860000D02*
X161505000Y-86860000D01*
X168910000Y-107950000D02*
X153670000Y-107950000D01*
X153670000Y-107950000D02*
X153670000Y-77470000D01*
X153670000Y-77470000D02*
X168910000Y-77470000D01*
X168910000Y-77470000D02*
X168910000Y-107950000D01*
X140104714Y-89336571D02*
X139961857Y-89384190D01*
X139914238Y-89431810D01*
X139866619Y-89527048D01*
X139866619Y-89669905D01*
X139914238Y-89765143D01*
X139961857Y-89812762D01*
X140057095Y-89860381D01*
X140438048Y-89860381D01*
X140438048Y-88860381D01*
X140104714Y-88860381D01*
X140009476Y-88908000D01*
X139961857Y-88955619D01*
X139914238Y-89050857D01*
X139914238Y-89146095D01*
X139961857Y-89241333D01*
X140009476Y-89288952D01*
X140104714Y-89336571D01*
X140438048Y-89336571D01*
X139580905Y-88860381D02*
X139009476Y-88860381D01*
X139295191Y-89860381D02*
X139295191Y-88860381D01*
X138152333Y-89860381D02*
X138723762Y-89860381D01*
X138438048Y-89860381D02*
X138438048Y-88860381D01*
X138533286Y-89003238D01*
X138628524Y-89098476D01*
X138723762Y-89146095D01*
X139445952Y-96083429D02*
X138684047Y-96083429D01*
X139445952Y-79827429D02*
X138684047Y-79827429D01*
X139064999Y-80208381D02*
X139064999Y-79446476D01*
X140072905Y-112323381D02*
X139501476Y-112323381D01*
X139787191Y-113323381D02*
X139787191Y-112323381D01*
X139168143Y-113323381D02*
X139168143Y-112323381D01*
X138787190Y-112323381D01*
X138691952Y-112371000D01*
X138644333Y-112418619D01*
X138596714Y-112513857D01*
X138596714Y-112656714D01*
X138644333Y-112751952D01*
X138691952Y-112799571D01*
X138787190Y-112847190D01*
X139168143Y-112847190D01*
X137644333Y-113323381D02*
X138215762Y-113323381D01*
X137930048Y-113323381D02*
X137930048Y-112323381D01*
X138025286Y-112466238D01*
X138120524Y-112561476D01*
X138215762Y-112609095D01*
X153788905Y-115117381D02*
X153217476Y-115117381D01*
X153503191Y-116117381D02*
X153503191Y-115117381D01*
X152884143Y-116117381D02*
X152884143Y-115117381D01*
X152503190Y-115117381D01*
X152407952Y-115165000D01*
X152360333Y-115212619D01*
X152312714Y-115307857D01*
X152312714Y-115450714D01*
X152360333Y-115545952D01*
X152407952Y-115593571D01*
X152503190Y-115641190D01*
X152884143Y-115641190D01*
X151979381Y-115117381D02*
X151360333Y-115117381D01*
X151693667Y-115498333D01*
X151550809Y-115498333D01*
X151455571Y-115545952D01*
X151407952Y-115593571D01*
X151360333Y-115688810D01*
X151360333Y-115926905D01*
X151407952Y-116022143D01*
X151455571Y-116069762D01*
X151550809Y-116117381D01*
X151836524Y-116117381D01*
X151931762Y-116069762D01*
X151979381Y-116022143D01*
X141977905Y-114228381D02*
X141406476Y-114228381D01*
X141692191Y-115228381D02*
X141692191Y-114228381D01*
X141073143Y-115228381D02*
X141073143Y-114228381D01*
X140692190Y-114228381D01*
X140596952Y-114276000D01*
X140549333Y-114323619D01*
X140501714Y-114418857D01*
X140501714Y-114561714D01*
X140549333Y-114656952D01*
X140596952Y-114704571D01*
X140692190Y-114752190D01*
X141073143Y-114752190D01*
X140120762Y-114323619D02*
X140073143Y-114276000D01*
X139977905Y-114228381D01*
X139739809Y-114228381D01*
X139644571Y-114276000D01*
X139596952Y-114323619D01*
X139549333Y-114418857D01*
X139549333Y-114514095D01*
X139596952Y-114656952D01*
X140168381Y-115228381D01*
X139549333Y-115228381D01*
X163357143Y-81113334D02*
X163404762Y-81065715D01*
X163452381Y-80922858D01*
X163452381Y-80827620D01*
X163404762Y-80684762D01*
X163309524Y-80589524D01*
X163214286Y-80541905D01*
X163023810Y-80494286D01*
X162880952Y-80494286D01*
X162690476Y-80541905D01*
X162595238Y-80589524D01*
X162500000Y-80684762D01*
X162452381Y-80827620D01*
X162452381Y-80922858D01*
X162500000Y-81065715D01*
X162547619Y-81113334D01*
X162452381Y-82018096D02*
X162452381Y-81541905D01*
X162928571Y-81494286D01*
X162880952Y-81541905D01*
X162833333Y-81637143D01*
X162833333Y-81875239D01*
X162880952Y-81970477D01*
X162928571Y-82018096D01*
X163023810Y-82065715D01*
X163261905Y-82065715D01*
X163357143Y-82018096D01*
X163404762Y-81970477D01*
X163452381Y-81875239D01*
X163452381Y-81637143D01*
X163404762Y-81541905D01*
X163357143Y-81494286D01*
X163357143Y-86193334D02*
X163404762Y-86145715D01*
X163452381Y-86002858D01*
X163452381Y-85907620D01*
X163404762Y-85764762D01*
X163309524Y-85669524D01*
X163214286Y-85621905D01*
X163023810Y-85574286D01*
X162880952Y-85574286D01*
X162690476Y-85621905D01*
X162595238Y-85669524D01*
X162500000Y-85764762D01*
X162452381Y-85907620D01*
X162452381Y-86002858D01*
X162500000Y-86145715D01*
X162547619Y-86193334D01*
X162785714Y-87050477D02*
X163452381Y-87050477D01*
X162404762Y-86812381D02*
X163119048Y-86574286D01*
X163119048Y-87193334D01*
X158912143Y-81113334D02*
X158959762Y-81065715D01*
X159007381Y-80922858D01*
X159007381Y-80827620D01*
X158959762Y-80684762D01*
X158864524Y-80589524D01*
X158769286Y-80541905D01*
X158578810Y-80494286D01*
X158435952Y-80494286D01*
X158245476Y-80541905D01*
X158150238Y-80589524D01*
X158055000Y-80684762D01*
X158007381Y-80827620D01*
X158007381Y-80922858D01*
X158055000Y-81065715D01*
X158102619Y-81113334D01*
X158007381Y-81446667D02*
X158007381Y-82065715D01*
X158388333Y-81732381D01*
X158388333Y-81875239D01*
X158435952Y-81970477D01*
X158483571Y-82018096D01*
X158578810Y-82065715D01*
X158816905Y-82065715D01*
X158912143Y-82018096D01*
X158959762Y-81970477D01*
X159007381Y-81875239D01*
X159007381Y-81589524D01*
X158959762Y-81494286D01*
X158912143Y-81446667D01*
X158912143Y-86193334D02*
X158959762Y-86145715D01*
X159007381Y-86002858D01*
X159007381Y-85907620D01*
X158959762Y-85764762D01*
X158864524Y-85669524D01*
X158769286Y-85621905D01*
X158578810Y-85574286D01*
X158435952Y-85574286D01*
X158245476Y-85621905D01*
X158150238Y-85669524D01*
X158055000Y-85764762D01*
X158007381Y-85907620D01*
X158007381Y-86002858D01*
X158055000Y-86145715D01*
X158102619Y-86193334D01*
X158102619Y-86574286D02*
X158055000Y-86621905D01*
X158007381Y-86717143D01*
X158007381Y-86955239D01*
X158055000Y-87050477D01*
X158102619Y-87098096D01*
X158197857Y-87145715D01*
X158293095Y-87145715D01*
X158435952Y-87098096D01*
X159007381Y-86526667D01*
X159007381Y-87145715D01*
D10*
X158930952Y-100682476D02*
X158530952Y-100682476D01*
X158930952Y-101101524D02*
X158740476Y-100968190D01*
X158930952Y-100872952D02*
X158530952Y-100872952D01*
X158530952Y-101025333D01*
X158550000Y-101063428D01*
X158569048Y-101082476D01*
X158607143Y-101101524D01*
X158664286Y-101101524D01*
X158702381Y-101082476D01*
X158721429Y-101063428D01*
X158740476Y-101025333D01*
X158740476Y-100872952D01*
X158969048Y-101539619D02*
X158950000Y-101501524D01*
X158911905Y-101463428D01*
X158854762Y-101406285D01*
X158835714Y-101368190D01*
X158835714Y-101330095D01*
X158930952Y-101349143D02*
X158911905Y-101311047D01*
X158873810Y-101272952D01*
X158797619Y-101253904D01*
X158664286Y-101253904D01*
X158588095Y-101272952D01*
X158550000Y-101311047D01*
X158530952Y-101349143D01*
X158530952Y-101425333D01*
X158550000Y-101463428D01*
X158588095Y-101501524D01*
X158664286Y-101520571D01*
X158797619Y-101520571D01*
X158873810Y-101501524D01*
X158911905Y-101463428D01*
X158930952Y-101425333D01*
X158930952Y-101349143D01*
X158930952Y-106479429D02*
X158530952Y-106479429D01*
X158816667Y-106612762D01*
X158530952Y-106746096D01*
X158930952Y-106746096D01*
X158930952Y-106936572D02*
X158530952Y-106936572D01*
X158911905Y-107108000D02*
X158930952Y-107165143D01*
X158930952Y-107260381D01*
X158911905Y-107298477D01*
X158892857Y-107317524D01*
X158854762Y-107336572D01*
X158816667Y-107336572D01*
X158778571Y-107317524D01*
X158759524Y-107298477D01*
X158740476Y-107260381D01*
X158721429Y-107184191D01*
X158702381Y-107146096D01*
X158683333Y-107127048D01*
X158645238Y-107108000D01*
X158607143Y-107108000D01*
X158569048Y-107127048D01*
X158550000Y-107146096D01*
X158530952Y-107184191D01*
X158530952Y-107279429D01*
X158550000Y-107336572D01*
X158530952Y-107584191D02*
X158530952Y-107660381D01*
X158550000Y-107698476D01*
X158588095Y-107736572D01*
X158664286Y-107755619D01*
X158797619Y-107755619D01*
X158873810Y-107736572D01*
X158911905Y-107698476D01*
X158930952Y-107660381D01*
X158930952Y-107584191D01*
X158911905Y-107546095D01*
X158873810Y-107508000D01*
X158797619Y-107488952D01*
X158664286Y-107488952D01*
X158588095Y-107508000D01*
X158550000Y-107546095D01*
X158530952Y-107584191D01*
X161470952Y-100463429D02*
X161070952Y-100463429D01*
X161356667Y-100596762D01*
X161070952Y-100730096D01*
X161470952Y-100730096D01*
X161070952Y-100996763D02*
X161070952Y-101072953D01*
X161090000Y-101111048D01*
X161128095Y-101149144D01*
X161204286Y-101168191D01*
X161337619Y-101168191D01*
X161413810Y-101149144D01*
X161451905Y-101111048D01*
X161470952Y-101072953D01*
X161470952Y-100996763D01*
X161451905Y-100958667D01*
X161413810Y-100920572D01*
X161337619Y-100901524D01*
X161204286Y-100901524D01*
X161128095Y-100920572D01*
X161090000Y-100958667D01*
X161070952Y-100996763D01*
X161451905Y-101320572D02*
X161470952Y-101377715D01*
X161470952Y-101472953D01*
X161451905Y-101511049D01*
X161432857Y-101530096D01*
X161394762Y-101549144D01*
X161356667Y-101549144D01*
X161318571Y-101530096D01*
X161299524Y-101511049D01*
X161280476Y-101472953D01*
X161261429Y-101396763D01*
X161242381Y-101358668D01*
X161223333Y-101339620D01*
X161185238Y-101320572D01*
X161147143Y-101320572D01*
X161109048Y-101339620D01*
X161090000Y-101358668D01*
X161070952Y-101396763D01*
X161070952Y-101492001D01*
X161090000Y-101549144D01*
X161470952Y-101720572D02*
X161070952Y-101720572D01*
X161451905Y-106593714D02*
X161470952Y-106650857D01*
X161470952Y-106746095D01*
X161451905Y-106784191D01*
X161432857Y-106803238D01*
X161394762Y-106822286D01*
X161356667Y-106822286D01*
X161318571Y-106803238D01*
X161299524Y-106784191D01*
X161280476Y-106746095D01*
X161261429Y-106669905D01*
X161242381Y-106631810D01*
X161223333Y-106612762D01*
X161185238Y-106593714D01*
X161147143Y-106593714D01*
X161109048Y-106612762D01*
X161090000Y-106631810D01*
X161070952Y-106669905D01*
X161070952Y-106765143D01*
X161090000Y-106822286D01*
X161432857Y-107222286D02*
X161451905Y-107203238D01*
X161470952Y-107146095D01*
X161470952Y-107108000D01*
X161451905Y-107050857D01*
X161413810Y-107012762D01*
X161375714Y-106993714D01*
X161299524Y-106974666D01*
X161242381Y-106974666D01*
X161166190Y-106993714D01*
X161128095Y-107012762D01*
X161090000Y-107050857D01*
X161070952Y-107108000D01*
X161070952Y-107146095D01*
X161090000Y-107203238D01*
X161109048Y-107222286D01*
X161470952Y-107393714D02*
X161070952Y-107393714D01*
X161470952Y-107622286D02*
X161242381Y-107450857D01*
X161070952Y-107622286D02*
X161299524Y-107393714D01*
X163972857Y-100815810D02*
X163991905Y-100796762D01*
X164010952Y-100739619D01*
X164010952Y-100701524D01*
X163991905Y-100644381D01*
X163953810Y-100606286D01*
X163915714Y-100587238D01*
X163839524Y-100568190D01*
X163782381Y-100568190D01*
X163706190Y-100587238D01*
X163668095Y-100606286D01*
X163630000Y-100644381D01*
X163610952Y-100701524D01*
X163610952Y-100739619D01*
X163630000Y-100796762D01*
X163649048Y-100815810D01*
X163991905Y-100968190D02*
X164010952Y-101025333D01*
X164010952Y-101120571D01*
X163991905Y-101158667D01*
X163972857Y-101177714D01*
X163934762Y-101196762D01*
X163896667Y-101196762D01*
X163858571Y-101177714D01*
X163839524Y-101158667D01*
X163820476Y-101120571D01*
X163801429Y-101044381D01*
X163782381Y-101006286D01*
X163763333Y-100987238D01*
X163725238Y-100968190D01*
X163687143Y-100968190D01*
X163649048Y-100987238D01*
X163630000Y-101006286D01*
X163610952Y-101044381D01*
X163610952Y-101139619D01*
X163630000Y-101196762D01*
X164010952Y-101368190D02*
X163610952Y-101368190D01*
X164010952Y-101596762D01*
X163610952Y-101596762D01*
X163972857Y-107050858D02*
X163991905Y-107031810D01*
X164010952Y-106974667D01*
X164010952Y-106936572D01*
X163991905Y-106879429D01*
X163953810Y-106841334D01*
X163915714Y-106822286D01*
X163839524Y-106803238D01*
X163782381Y-106803238D01*
X163706190Y-106822286D01*
X163668095Y-106841334D01*
X163630000Y-106879429D01*
X163610952Y-106936572D01*
X163610952Y-106974667D01*
X163630000Y-107031810D01*
X163649048Y-107050858D01*
X163801429Y-107222286D02*
X163801429Y-107355619D01*
X164010952Y-107412762D02*
X164010952Y-107222286D01*
X163610952Y-107222286D01*
X163610952Y-107412762D01*
X165642952Y-100558667D02*
X166042952Y-100692001D01*
X165642952Y-100825334D01*
X166004857Y-101187239D02*
X166023905Y-101168191D01*
X166042952Y-101111048D01*
X166042952Y-101072953D01*
X166023905Y-101015810D01*
X165985810Y-100977715D01*
X165947714Y-100958667D01*
X165871524Y-100939619D01*
X165814381Y-100939619D01*
X165738190Y-100958667D01*
X165700095Y-100977715D01*
X165662000Y-101015810D01*
X165642952Y-101072953D01*
X165642952Y-101111048D01*
X165662000Y-101168191D01*
X165681048Y-101187239D01*
X166004857Y-101587239D02*
X166023905Y-101568191D01*
X166042952Y-101511048D01*
X166042952Y-101472953D01*
X166023905Y-101415810D01*
X165985810Y-101377715D01*
X165947714Y-101358667D01*
X165871524Y-101339619D01*
X165814381Y-101339619D01*
X165738190Y-101358667D01*
X165700095Y-101377715D01*
X165662000Y-101415810D01*
X165642952Y-101472953D01*
X165642952Y-101511048D01*
X165662000Y-101568191D01*
X165681048Y-101587239D01*
X165662000Y-106803238D02*
X165642952Y-106765143D01*
X165642952Y-106708000D01*
X165662000Y-106650857D01*
X165700095Y-106612762D01*
X165738190Y-106593714D01*
X165814381Y-106574666D01*
X165871524Y-106574666D01*
X165947714Y-106593714D01*
X165985810Y-106612762D01*
X166023905Y-106650857D01*
X166042952Y-106708000D01*
X166042952Y-106746095D01*
X166023905Y-106803238D01*
X166004857Y-106822286D01*
X165871524Y-106822286D01*
X165871524Y-106746095D01*
X166042952Y-106993714D02*
X165642952Y-106993714D01*
X166042952Y-107222286D01*
X165642952Y-107222286D01*
X166042952Y-107412762D02*
X165642952Y-107412762D01*
X165642952Y-107508000D01*
X165662000Y-107565143D01*
X165700095Y-107603238D01*
X165738190Y-107622286D01*
X165814381Y-107641334D01*
X165871524Y-107641334D01*
X165947714Y-107622286D01*
X165985810Y-107603238D01*
X166023905Y-107565143D01*
X166042952Y-107508000D01*
X166042952Y-107412762D01*
X166483810Y-94113333D02*
X166102858Y-94113333D01*
X166560001Y-94341905D02*
X166293334Y-93541905D01*
X166026667Y-94341905D01*
X165760001Y-94341905D02*
X165760001Y-93541905D01*
X165493334Y-94113333D01*
X165226667Y-93541905D01*
X165226667Y-94341905D01*
X164883810Y-94303810D02*
X164769524Y-94341905D01*
X164579048Y-94341905D01*
X164502858Y-94303810D01*
X164464762Y-94265714D01*
X164426667Y-94189524D01*
X164426667Y-94113333D01*
X164464762Y-94037143D01*
X164502858Y-93999048D01*
X164579048Y-93960952D01*
X164731429Y-93922857D01*
X164807620Y-93884762D01*
X164845715Y-93846667D01*
X164883810Y-93770476D01*
X164883810Y-93694286D01*
X164845715Y-93618095D01*
X164807620Y-93580000D01*
X164731429Y-93541905D01*
X164540953Y-93541905D01*
X164426667Y-93580000D01*
X163664762Y-94341905D02*
X164121905Y-94341905D01*
X163893334Y-94341905D02*
X163893334Y-93541905D01*
X163969524Y-93656190D01*
X164045715Y-93732381D01*
X164121905Y-93770476D01*
X162902857Y-94341905D02*
X163360000Y-94341905D01*
X163131429Y-94341905D02*
X163131429Y-93541905D01*
X163207619Y-93656190D01*
X163283810Y-93732381D01*
X163360000Y-93770476D01*
X162140952Y-94341905D02*
X162598095Y-94341905D01*
X162369524Y-94341905D02*
X162369524Y-93541905D01*
X162445714Y-93656190D01*
X162521905Y-93732381D01*
X162598095Y-93770476D01*
X161874285Y-93541905D02*
X161340952Y-93541905D01*
X161683809Y-94341905D01*
X161226666Y-94418095D02*
X160617142Y-94418095D01*
X160502856Y-93541905D02*
X160007618Y-93541905D01*
X160274285Y-93846667D01*
X160159999Y-93846667D01*
X160083809Y-93884762D01*
X160045713Y-93922857D01*
X160007618Y-93999048D01*
X160007618Y-94189524D01*
X160045713Y-94265714D01*
X160083809Y-94303810D01*
X160159999Y-94341905D01*
X160388571Y-94341905D01*
X160464761Y-94303810D01*
X160502856Y-94265714D01*
X159740951Y-93808571D02*
X159550475Y-94341905D01*
X159359999Y-93808571D01*
X159131427Y-93541905D02*
X158636189Y-93541905D01*
X158902856Y-93846667D01*
X158788570Y-93846667D01*
X158712380Y-93884762D01*
X158674284Y-93922857D01*
X158636189Y-93999048D01*
X158636189Y-94189524D01*
X158674284Y-94265714D01*
X158712380Y-94303810D01*
X158788570Y-94341905D01*
X159017142Y-94341905D01*
X159093332Y-94303810D01*
X159131427Y-94265714D01*
D11*
X158718095Y-78192381D02*
X158146666Y-78192381D01*
X158432381Y-79192381D02*
X158432381Y-78192381D01*
X157908571Y-78192381D02*
X157241904Y-79192381D01*
X157241904Y-78192381D02*
X157908571Y-79192381D01*
X156670476Y-78192381D02*
X156575237Y-78192381D01*
X156479999Y-78240000D01*
X156432380Y-78287619D01*
X156384761Y-78382857D01*
X156337142Y-78573333D01*
X156337142Y-78811429D01*
X156384761Y-79001905D01*
X156432380Y-79097143D01*
X156479999Y-79144762D01*
X156575237Y-79192381D01*
X156670476Y-79192381D01*
X156765714Y-79144762D01*
X156813333Y-79097143D01*
X156860952Y-79001905D01*
X156908571Y-78811429D01*
X156908571Y-78573333D01*
X156860952Y-78382857D01*
X156813333Y-78287619D01*
X156765714Y-78240000D01*
X156670476Y-78192381D01*
X158122857Y-81732381D02*
X158456191Y-81256190D01*
X158694286Y-81732381D02*
X158694286Y-80732381D01*
X158313333Y-80732381D01*
X158218095Y-80780000D01*
X158170476Y-80827619D01*
X158122857Y-80922857D01*
X158122857Y-81065714D01*
X158170476Y-81160952D01*
X158218095Y-81208571D01*
X158313333Y-81256190D01*
X158694286Y-81256190D01*
X157789524Y-80732381D02*
X157122857Y-81732381D01*
X157122857Y-80732381D02*
X157789524Y-81732381D01*
X156218095Y-81732381D02*
X156789524Y-81732381D01*
X156503810Y-81732381D02*
X156503810Y-80732381D01*
X156599048Y-80875238D01*
X156694286Y-80970476D01*
X156789524Y-81018095D01*
X158027619Y-84272381D02*
X158360953Y-83796190D01*
X158599048Y-84272381D02*
X158599048Y-83272381D01*
X158218095Y-83272381D01*
X158122857Y-83320000D01*
X158075238Y-83367619D01*
X158027619Y-83462857D01*
X158027619Y-83605714D01*
X158075238Y-83700952D01*
X158122857Y-83748571D01*
X158218095Y-83796190D01*
X158599048Y-83796190D01*
X157646667Y-84224762D02*
X157503810Y-84272381D01*
X157265714Y-84272381D01*
X157170476Y-84224762D01*
X157122857Y-84177143D01*
X157075238Y-84081905D01*
X157075238Y-83986667D01*
X157122857Y-83891429D01*
X157170476Y-83843810D01*
X157265714Y-83796190D01*
X157456191Y-83748571D01*
X157551429Y-83700952D01*
X157599048Y-83653333D01*
X157646667Y-83558095D01*
X157646667Y-83462857D01*
X157599048Y-83367619D01*
X157551429Y-83320000D01*
X157456191Y-83272381D01*
X157218095Y-83272381D01*
X157075238Y-83320000D01*
X156789524Y-83272381D02*
X156218095Y-83272381D01*
X156503810Y-84272381D02*
X156503810Y-83272381D01*
X158241904Y-85860000D02*
X158337142Y-85812381D01*
X158479999Y-85812381D01*
X158622857Y-85860000D01*
X158718095Y-85955238D01*
X158765714Y-86050476D01*
X158813333Y-86240952D01*
X158813333Y-86383810D01*
X158765714Y-86574286D01*
X158718095Y-86669524D01*
X158622857Y-86764762D01*
X158479999Y-86812381D01*
X158384761Y-86812381D01*
X158241904Y-86764762D01*
X158194285Y-86717143D01*
X158194285Y-86383810D01*
X158384761Y-86383810D01*
X157765714Y-86812381D02*
X157765714Y-85812381D01*
X157194285Y-86812381D01*
X157194285Y-85812381D01*
X156718095Y-86812381D02*
X156718095Y-85812381D01*
X156480000Y-85812381D01*
X156337142Y-85860000D01*
X156241904Y-85955238D01*
X156194285Y-86050476D01*
X156146666Y-86240952D01*
X156146666Y-86383810D01*
X156194285Y-86574286D01*
X156241904Y-86669524D01*
X156337142Y-86764762D01*
X156480000Y-86812381D01*
X156718095Y-86812381D01*
X158218095Y-89352381D02*
X158218095Y-88352381D01*
X157980000Y-88352381D01*
X157837142Y-88400000D01*
X157741904Y-88495238D01*
X157694285Y-88590476D01*
X157646666Y-88780952D01*
X157646666Y-88923810D01*
X157694285Y-89114286D01*
X157741904Y-89209524D01*
X157837142Y-89304762D01*
X157980000Y-89352381D01*
X158218095Y-89352381D01*
X157265714Y-88447619D02*
X157218095Y-88400000D01*
X157122857Y-88352381D01*
X156884761Y-88352381D01*
X156789523Y-88400000D01*
X156741904Y-88447619D01*
X156694285Y-88542857D01*
X156694285Y-88638095D01*
X156741904Y-88780952D01*
X157313333Y-89352381D01*
X156694285Y-89352381D01*
X158218095Y-91892381D02*
X158218095Y-90892381D01*
X157980000Y-90892381D01*
X157837142Y-90940000D01*
X157741904Y-91035238D01*
X157694285Y-91130476D01*
X157646666Y-91320952D01*
X157646666Y-91463810D01*
X157694285Y-91654286D01*
X157741904Y-91749524D01*
X157837142Y-91844762D01*
X157980000Y-91892381D01*
X158218095Y-91892381D01*
X157313333Y-90892381D02*
X156694285Y-90892381D01*
X157027619Y-91273333D01*
X156884761Y-91273333D01*
X156789523Y-91320952D01*
X156741904Y-91368571D01*
X156694285Y-91463810D01*
X156694285Y-91701905D01*
X156741904Y-91797143D01*
X156789523Y-91844762D01*
X156884761Y-91892381D01*
X157170476Y-91892381D01*
X157265714Y-91844762D01*
X157313333Y-91797143D01*
X158218095Y-94432381D02*
X158218095Y-93432381D01*
X157980000Y-93432381D01*
X157837142Y-93480000D01*
X157741904Y-93575238D01*
X157694285Y-93670476D01*
X157646666Y-93860952D01*
X157646666Y-94003810D01*
X157694285Y-94194286D01*
X157741904Y-94289524D01*
X157837142Y-94384762D01*
X157980000Y-94432381D01*
X158218095Y-94432381D01*
X156789523Y-93765714D02*
X156789523Y-94432381D01*
X157027619Y-93384762D02*
X157265714Y-94099048D01*
X156646666Y-94099048D01*
X158218095Y-96972381D02*
X158218095Y-95972381D01*
X157980000Y-95972381D01*
X157837142Y-96020000D01*
X157741904Y-96115238D01*
X157694285Y-96210476D01*
X157646666Y-96400952D01*
X157646666Y-96543810D01*
X157694285Y-96734286D01*
X157741904Y-96829524D01*
X157837142Y-96924762D01*
X157980000Y-96972381D01*
X158218095Y-96972381D01*
X156741904Y-95972381D02*
X157218095Y-95972381D01*
X157265714Y-96448571D01*
X157218095Y-96400952D01*
X157122857Y-96353333D01*
X156884761Y-96353333D01*
X156789523Y-96400952D01*
X156741904Y-96448571D01*
X156694285Y-96543810D01*
X156694285Y-96781905D01*
X156741904Y-96877143D01*
X156789523Y-96924762D01*
X156884761Y-96972381D01*
X157122857Y-96972381D01*
X157218095Y-96924762D01*
X157265714Y-96877143D01*
X158218095Y-99512381D02*
X158218095Y-98512381D01*
X157980000Y-98512381D01*
X157837142Y-98560000D01*
X157741904Y-98655238D01*
X157694285Y-98750476D01*
X157646666Y-98940952D01*
X157646666Y-99083810D01*
X157694285Y-99274286D01*
X157741904Y-99369524D01*
X157837142Y-99464762D01*
X157980000Y-99512381D01*
X158218095Y-99512381D01*
X156789523Y-98512381D02*
X156980000Y-98512381D01*
X157075238Y-98560000D01*
X157122857Y-98607619D01*
X157218095Y-98750476D01*
X157265714Y-98940952D01*
X157265714Y-99321905D01*
X157218095Y-99417143D01*
X157170476Y-99464762D01*
X157075238Y-99512381D01*
X156884761Y-99512381D01*
X156789523Y-99464762D01*
X156741904Y-99417143D01*
X156694285Y-99321905D01*
X156694285Y-99083810D01*
X156741904Y-98988571D01*
X156789523Y-98940952D01*
X156884761Y-98893333D01*
X157075238Y-98893333D01*
X157170476Y-98940952D01*
X157218095Y-98988571D01*
X157265714Y-99083810D01*
X158218095Y-102052381D02*
X158218095Y-101052381D01*
X157980000Y-101052381D01*
X157837142Y-101100000D01*
X157741904Y-101195238D01*
X157694285Y-101290476D01*
X157646666Y-101480952D01*
X157646666Y-101623810D01*
X157694285Y-101814286D01*
X157741904Y-101909524D01*
X157837142Y-102004762D01*
X157980000Y-102052381D01*
X158218095Y-102052381D01*
X157313333Y-101052381D02*
X156646666Y-101052381D01*
X157075238Y-102052381D01*
X158218095Y-104592381D02*
X158218095Y-103592381D01*
X157980000Y-103592381D01*
X157837142Y-103640000D01*
X157741904Y-103735238D01*
X157694285Y-103830476D01*
X157646666Y-104020952D01*
X157646666Y-104163810D01*
X157694285Y-104354286D01*
X157741904Y-104449524D01*
X157837142Y-104544762D01*
X157980000Y-104592381D01*
X158218095Y-104592381D01*
X157075238Y-104020952D02*
X157170476Y-103973333D01*
X157218095Y-103925714D01*
X157265714Y-103830476D01*
X157265714Y-103782857D01*
X157218095Y-103687619D01*
X157170476Y-103640000D01*
X157075238Y-103592381D01*
X156884761Y-103592381D01*
X156789523Y-103640000D01*
X156741904Y-103687619D01*
X156694285Y-103782857D01*
X156694285Y-103830476D01*
X156741904Y-103925714D01*
X156789523Y-103973333D01*
X156884761Y-104020952D01*
X157075238Y-104020952D01*
X157170476Y-104068571D01*
X157218095Y-104116190D01*
X157265714Y-104211429D01*
X157265714Y-104401905D01*
X157218095Y-104497143D01*
X157170476Y-104544762D01*
X157075238Y-104592381D01*
X156884761Y-104592381D01*
X156789523Y-104544762D01*
X156741904Y-104497143D01*
X156694285Y-104401905D01*
X156694285Y-104211429D01*
X156741904Y-104116190D01*
X156789523Y-104068571D01*
X156884761Y-104020952D01*
X158218095Y-107132381D02*
X158218095Y-106132381D01*
X157980000Y-106132381D01*
X157837142Y-106180000D01*
X157741904Y-106275238D01*
X157694285Y-106370476D01*
X157646666Y-106560952D01*
X157646666Y-106703810D01*
X157694285Y-106894286D01*
X157741904Y-106989524D01*
X157837142Y-107084762D01*
X157980000Y-107132381D01*
X158218095Y-107132381D01*
X157170476Y-107132381D02*
X156980000Y-107132381D01*
X156884761Y-107084762D01*
X156837142Y-107037143D01*
X156741904Y-106894286D01*
X156694285Y-106703810D01*
X156694285Y-106322857D01*
X156741904Y-106227619D01*
X156789523Y-106180000D01*
X156884761Y-106132381D01*
X157075238Y-106132381D01*
X157170476Y-106180000D01*
X157218095Y-106227619D01*
X157265714Y-106322857D01*
X157265714Y-106560952D01*
X157218095Y-106656190D01*
X157170476Y-106703810D01*
X157075238Y-106751429D01*
X156884761Y-106751429D01*
X156789523Y-106703810D01*
X156741904Y-106656190D01*
X156694285Y-106560952D01*
X168330476Y-79192381D02*
X168663810Y-78716190D01*
X168901905Y-79192381D02*
X168901905Y-78192381D01*
X168520952Y-78192381D01*
X168425714Y-78240000D01*
X168378095Y-78287619D01*
X168330476Y-78382857D01*
X168330476Y-78525714D01*
X168378095Y-78620952D01*
X168425714Y-78668571D01*
X168520952Y-78716190D01*
X168901905Y-78716190D01*
X167949524Y-78906667D02*
X167473333Y-78906667D01*
X168044762Y-79192381D02*
X167711429Y-78192381D01*
X167378095Y-79192381D01*
X167140000Y-78192381D02*
X166901905Y-79192381D01*
X166711428Y-78478095D01*
X166520952Y-79192381D01*
X166282857Y-78192381D01*
X168401904Y-80780000D02*
X168497142Y-80732381D01*
X168639999Y-80732381D01*
X168782857Y-80780000D01*
X168878095Y-80875238D01*
X168925714Y-80970476D01*
X168973333Y-81160952D01*
X168973333Y-81303810D01*
X168925714Y-81494286D01*
X168878095Y-81589524D01*
X168782857Y-81684762D01*
X168639999Y-81732381D01*
X168544761Y-81732381D01*
X168401904Y-81684762D01*
X168354285Y-81637143D01*
X168354285Y-81303810D01*
X168544761Y-81303810D01*
X167925714Y-81732381D02*
X167925714Y-80732381D01*
X167354285Y-81732381D01*
X167354285Y-80732381D01*
X166878095Y-81732381D02*
X166878095Y-80732381D01*
X166640000Y-80732381D01*
X166497142Y-80780000D01*
X166401904Y-80875238D01*
X166354285Y-80970476D01*
X166306666Y-81160952D01*
X166306666Y-81303810D01*
X166354285Y-81494286D01*
X166401904Y-81589524D01*
X166497142Y-81684762D01*
X166640000Y-81732381D01*
X166878095Y-81732381D01*
X168187619Y-84272381D02*
X168520953Y-83796190D01*
X168759048Y-84272381D02*
X168759048Y-83272381D01*
X168378095Y-83272381D01*
X168282857Y-83320000D01*
X168235238Y-83367619D01*
X168187619Y-83462857D01*
X168187619Y-83605714D01*
X168235238Y-83700952D01*
X168282857Y-83748571D01*
X168378095Y-83796190D01*
X168759048Y-83796190D01*
X167806667Y-84224762D02*
X167663810Y-84272381D01*
X167425714Y-84272381D01*
X167330476Y-84224762D01*
X167282857Y-84177143D01*
X167235238Y-84081905D01*
X167235238Y-83986667D01*
X167282857Y-83891429D01*
X167330476Y-83843810D01*
X167425714Y-83796190D01*
X167616191Y-83748571D01*
X167711429Y-83700952D01*
X167759048Y-83653333D01*
X167806667Y-83558095D01*
X167806667Y-83462857D01*
X167759048Y-83367619D01*
X167711429Y-83320000D01*
X167616191Y-83272381D01*
X167378095Y-83272381D01*
X167235238Y-83320000D01*
X166949524Y-83272381D02*
X166378095Y-83272381D01*
X166663810Y-84272381D02*
X166663810Y-83272381D01*
X168973333Y-85812381D02*
X168640000Y-86812381D01*
X168306666Y-85812381D01*
X167401904Y-86717143D02*
X167449523Y-86764762D01*
X167592380Y-86812381D01*
X167687618Y-86812381D01*
X167830476Y-86764762D01*
X167925714Y-86669524D01*
X167973333Y-86574286D01*
X168020952Y-86383810D01*
X168020952Y-86240952D01*
X167973333Y-86050476D01*
X167925714Y-85955238D01*
X167830476Y-85860000D01*
X167687618Y-85812381D01*
X167592380Y-85812381D01*
X167449523Y-85860000D01*
X167401904Y-85907619D01*
X166401904Y-86717143D02*
X166449523Y-86764762D01*
X166592380Y-86812381D01*
X166687618Y-86812381D01*
X166830476Y-86764762D01*
X166925714Y-86669524D01*
X166973333Y-86574286D01*
X167020952Y-86383810D01*
X167020952Y-86240952D01*
X166973333Y-86050476D01*
X166925714Y-85955238D01*
X166830476Y-85860000D01*
X166687618Y-85812381D01*
X166592380Y-85812381D01*
X166449523Y-85860000D01*
X166401904Y-85907619D01*
X168354286Y-89066667D02*
X167878095Y-89066667D01*
X168449524Y-89352381D02*
X168116191Y-88352381D01*
X167782857Y-89352381D01*
X167544762Y-88352381D02*
X166925714Y-88352381D01*
X167259048Y-88733333D01*
X167116190Y-88733333D01*
X167020952Y-88780952D01*
X166973333Y-88828571D01*
X166925714Y-88923810D01*
X166925714Y-89161905D01*
X166973333Y-89257143D01*
X167020952Y-89304762D01*
X167116190Y-89352381D01*
X167401905Y-89352381D01*
X167497143Y-89304762D01*
X167544762Y-89257143D01*
X168354286Y-91606667D02*
X167878095Y-91606667D01*
X168449524Y-91892381D02*
X168116191Y-90892381D01*
X167782857Y-91892381D01*
X167497143Y-90987619D02*
X167449524Y-90940000D01*
X167354286Y-90892381D01*
X167116190Y-90892381D01*
X167020952Y-90940000D01*
X166973333Y-90987619D01*
X166925714Y-91082857D01*
X166925714Y-91178095D01*
X166973333Y-91320952D01*
X167544762Y-91892381D01*
X166925714Y-91892381D01*
X168354286Y-94146667D02*
X167878095Y-94146667D01*
X168449524Y-94432381D02*
X168116191Y-93432381D01*
X167782857Y-94432381D01*
X166925714Y-94432381D02*
X167497143Y-94432381D01*
X167211429Y-94432381D02*
X167211429Y-93432381D01*
X167306667Y-93575238D01*
X167401905Y-93670476D01*
X167497143Y-93718095D01*
X168354286Y-96686667D02*
X167878095Y-96686667D01*
X168449524Y-96972381D02*
X168116191Y-95972381D01*
X167782857Y-96972381D01*
X167259048Y-95972381D02*
X167163809Y-95972381D01*
X167068571Y-96020000D01*
X167020952Y-96067619D01*
X166973333Y-96162857D01*
X166925714Y-96353333D01*
X166925714Y-96591429D01*
X166973333Y-96781905D01*
X167020952Y-96877143D01*
X167068571Y-96924762D01*
X167163809Y-96972381D01*
X167259048Y-96972381D01*
X167354286Y-96924762D01*
X167401905Y-96877143D01*
X167449524Y-96781905D01*
X167497143Y-96591429D01*
X167497143Y-96353333D01*
X167449524Y-96162857D01*
X167401905Y-96067619D01*
X167354286Y-96020000D01*
X167259048Y-95972381D01*
X168854286Y-99512381D02*
X168854286Y-98512381D01*
X168616191Y-98512381D01*
X168473333Y-98560000D01*
X168378095Y-98655238D01*
X168330476Y-98750476D01*
X168282857Y-98940952D01*
X168282857Y-99083810D01*
X168330476Y-99274286D01*
X168378095Y-99369524D01*
X168473333Y-99464762D01*
X168616191Y-99512381D01*
X168854286Y-99512381D01*
X167330476Y-99512381D02*
X167901905Y-99512381D01*
X167616191Y-99512381D02*
X167616191Y-98512381D01*
X167711429Y-98655238D01*
X167806667Y-98750476D01*
X167901905Y-98798095D01*
X166997143Y-98512381D02*
X166378095Y-98512381D01*
X166711429Y-98893333D01*
X166568571Y-98893333D01*
X166473333Y-98940952D01*
X166425714Y-98988571D01*
X166378095Y-99083810D01*
X166378095Y-99321905D01*
X166425714Y-99417143D01*
X166473333Y-99464762D01*
X166568571Y-99512381D01*
X166854286Y-99512381D01*
X166949524Y-99464762D01*
X166997143Y-99417143D01*
X168854286Y-102052381D02*
X168854286Y-101052381D01*
X168616191Y-101052381D01*
X168473333Y-101100000D01*
X168378095Y-101195238D01*
X168330476Y-101290476D01*
X168282857Y-101480952D01*
X168282857Y-101623810D01*
X168330476Y-101814286D01*
X168378095Y-101909524D01*
X168473333Y-102004762D01*
X168616191Y-102052381D01*
X168854286Y-102052381D01*
X167330476Y-102052381D02*
X167901905Y-102052381D01*
X167616191Y-102052381D02*
X167616191Y-101052381D01*
X167711429Y-101195238D01*
X167806667Y-101290476D01*
X167901905Y-101338095D01*
X166949524Y-101147619D02*
X166901905Y-101100000D01*
X166806667Y-101052381D01*
X166568571Y-101052381D01*
X166473333Y-101100000D01*
X166425714Y-101147619D01*
X166378095Y-101242857D01*
X166378095Y-101338095D01*
X166425714Y-101480952D01*
X166997143Y-102052381D01*
X166378095Y-102052381D01*
X168854286Y-104592381D02*
X168854286Y-103592381D01*
X168616191Y-103592381D01*
X168473333Y-103640000D01*
X168378095Y-103735238D01*
X168330476Y-103830476D01*
X168282857Y-104020952D01*
X168282857Y-104163810D01*
X168330476Y-104354286D01*
X168378095Y-104449524D01*
X168473333Y-104544762D01*
X168616191Y-104592381D01*
X168854286Y-104592381D01*
X167330476Y-104592381D02*
X167901905Y-104592381D01*
X167616191Y-104592381D02*
X167616191Y-103592381D01*
X167711429Y-103735238D01*
X167806667Y-103830476D01*
X167901905Y-103878095D01*
X166378095Y-104592381D02*
X166949524Y-104592381D01*
X166663810Y-104592381D02*
X166663810Y-103592381D01*
X166759048Y-103735238D01*
X166854286Y-103830476D01*
X166949524Y-103878095D01*
X168854286Y-107132381D02*
X168854286Y-106132381D01*
X168616191Y-106132381D01*
X168473333Y-106180000D01*
X168378095Y-106275238D01*
X168330476Y-106370476D01*
X168282857Y-106560952D01*
X168282857Y-106703810D01*
X168330476Y-106894286D01*
X168378095Y-106989524D01*
X168473333Y-107084762D01*
X168616191Y-107132381D01*
X168854286Y-107132381D01*
X167330476Y-107132381D02*
X167901905Y-107132381D01*
X167616191Y-107132381D02*
X167616191Y-106132381D01*
X167711429Y-106275238D01*
X167806667Y-106370476D01*
X167901905Y-106418095D01*
X166711429Y-106132381D02*
X166616190Y-106132381D01*
X166520952Y-106180000D01*
X166473333Y-106227619D01*
X166425714Y-106322857D01*
X166378095Y-106513333D01*
X166378095Y-106751429D01*
X166425714Y-106941905D01*
X166473333Y-107037143D01*
X166520952Y-107084762D01*
X166616190Y-107132381D01*
X166711429Y-107132381D01*
X166806667Y-107084762D01*
X166854286Y-107037143D01*
X166901905Y-106941905D01*
X166949524Y-106751429D01*
X166949524Y-106513333D01*
X166901905Y-106322857D01*
X166854286Y-106227619D01*
X166806667Y-106180000D01*
X166711429Y-106132381D01*
M02*
