G04 #@! TF.FileFunction,Soldermask,Top*
%FSLAX46Y46*%
G04 Gerber Fmt 4.6, Leading zero omitted, Abs format (unit mm)*
G04 Created by KiCad (PCBNEW 4.0.2-stable) date 25-Jul-16 9:15:29 PM*
%MOMM*%
G01*
G04 APERTURE LIST*
%ADD10C,0.100000*%
%ADD11C,2.178000*%
%ADD12O,2.400000X1.600000*%
%ADD13R,1.924000X1.924000*%
%ADD14R,1.700000X1.700000*%
%ADD15C,1.700000*%
%ADD16R,1.700000X1.900000*%
%ADD17R,2.127200X2.432000*%
%ADD18O,2.127200X2.432000*%
%ADD19R,2.432000X2.432000*%
%ADD20O,2.432000X2.432000*%
%ADD21O,1.901140X1.299160*%
%ADD22R,3.150000X1.400000*%
%ADD23O,2.099260X3.900120*%
%ADD24O,4.362400X2.381200*%
%ADD25C,1.900000*%
%ADD26C,1.000000*%
G04 APERTURE END LIST*
D10*
D11*
X139065000Y-77470000D03*
X139065000Y-97536000D03*
D12*
X170180302Y-78708446D03*
X154940302Y-78708446D03*
X170180302Y-81248446D03*
X154940302Y-81248446D03*
X170180302Y-83788446D03*
X154940302Y-83788446D03*
X170180302Y-86328446D03*
X154940302Y-86328446D03*
X170180302Y-88868446D03*
X154940302Y-88868446D03*
X170180302Y-91408446D03*
X154940302Y-91408446D03*
X170180302Y-93948446D03*
X154940302Y-93948446D03*
X170180302Y-96488446D03*
X154940302Y-96488446D03*
X170180302Y-99028446D03*
X154940302Y-99028446D03*
X170180302Y-101568446D03*
X154940302Y-101568446D03*
X170180302Y-104108446D03*
X154940302Y-104108446D03*
X170180302Y-106648446D03*
X154940302Y-106648446D03*
X152400000Y-78740000D03*
X152400000Y-81280000D03*
X152400000Y-83820000D03*
X152400000Y-86360000D03*
X152400000Y-88900000D03*
X152400000Y-91440000D03*
X152400000Y-93980000D03*
X152400000Y-96520000D03*
X152400000Y-99060000D03*
X152400000Y-101600000D03*
X152400000Y-104140000D03*
X152400000Y-106680000D03*
X172720000Y-106680000D03*
X172720000Y-104140000D03*
X172720000Y-101600000D03*
X172720000Y-99060000D03*
X172720000Y-96520000D03*
X172720000Y-93980000D03*
X172720000Y-91440000D03*
X172720000Y-88900000D03*
X172720000Y-86360000D03*
X172720000Y-83820000D03*
X172720000Y-81280000D03*
X172720000Y-78740000D03*
D13*
X166370000Y-105410000D03*
D11*
X163830000Y-105410000D03*
X161290000Y-105410000D03*
X158750000Y-105410000D03*
X158750000Y-102870000D03*
X161290000Y-102870000D03*
X163830000Y-102870000D03*
X166370000Y-102870000D03*
D14*
X149225000Y-110490000D03*
D15*
X151725000Y-110490000D03*
D16*
X141732000Y-109046000D03*
X141732000Y-106346000D03*
D17*
X158115000Y-75565000D03*
D18*
X160655000Y-75565000D03*
X163195000Y-75565000D03*
D19*
X167005000Y-75565000D03*
D20*
X169545000Y-75565000D03*
D21*
X144780000Y-108458000D03*
X144780000Y-109728000D03*
X144780000Y-107188000D03*
D22*
X148290000Y-79280000D03*
X142540000Y-79280000D03*
X142540000Y-83280000D03*
X148290000Y-83280000D03*
X148290000Y-100235000D03*
X142540000Y-100235000D03*
X142540000Y-104235000D03*
X148290000Y-104235000D03*
X148290000Y-86265000D03*
X142540000Y-86265000D03*
X142540000Y-90265000D03*
X148290000Y-90265000D03*
X148290000Y-93250000D03*
X142540000Y-93250000D03*
X142540000Y-97250000D03*
X148290000Y-97250000D03*
D23*
X133604000Y-118364000D03*
X131064000Y-118364000D03*
X136144000Y-118364000D03*
X144399000Y-118364000D03*
X141859000Y-118364000D03*
X146939000Y-118364000D03*
X155067000Y-118364000D03*
X152527000Y-118364000D03*
X157607000Y-118364000D03*
D19*
X140335000Y-74295000D03*
D20*
X137795000Y-74295000D03*
D24*
X129794000Y-110410000D03*
X129794000Y-105410000D03*
X129794000Y-95410000D03*
X129794000Y-100410000D03*
X129794000Y-89248000D03*
X129794000Y-84248000D03*
X129794000Y-74248000D03*
X129794000Y-79248000D03*
D25*
X160528000Y-77724000D03*
D26*
X133731000Y-113792000D03*
X140462000Y-108966000D03*
M02*
