M48
;DRILL file {KiCad 4.0.2-stable} date 25-Jul-16 9:15:39 PM
;FORMAT={2:4/ absolute / inch / keep zeros}
FMAT,2
INCH,TZ
T1C0.016
T2C0.024
T3C0.031
T4C0.039
T5C0.040
T6C0.040
T7C0.052
%
G90
G05
M72
T1
X052650Y-044800
X055300Y-042900
T2
X057000Y-042200
X057000Y-042700
X057000Y-043200
T3
X058750Y-043500
X059734Y-043500
T4
X051600Y-046600
X052600Y-046600
X053600Y-046600
X055850Y-046600
X056850Y-046600
X057850Y-046600
X060050Y-046600
X061050Y-046600
X062050Y-046600
T5
X054250Y-029250
X054750Y-030500
X054750Y-038400
X055250Y-029250
X062250Y-029750
X062500Y-040500
X062500Y-041500
X063250Y-029750
X063500Y-040500
X063500Y-041500
X064250Y-029750
X064500Y-040500
X064500Y-041500
X065500Y-040500
X065500Y-041500
X065750Y-029750
X066750Y-029750
T6
X060000Y-031000
X060000Y-032000
X060000Y-033000
X060000Y-034000
X060000Y-035000
X060000Y-036000
X060000Y-037000
X060000Y-038000
X060000Y-039000
X060000Y-040000
X060000Y-041000
X060000Y-042000
X061000Y-030988
X061000Y-031988
X061000Y-032988
X061000Y-033988
X061000Y-034988
X061000Y-035988
X061000Y-036988
X061000Y-037988
X061000Y-038988
X061000Y-039988
X061000Y-040988
X061000Y-041988
X067000Y-030988
X067000Y-031988
X067000Y-032988
X067000Y-033988
X067000Y-034988
X067000Y-035988
X067000Y-036988
X067000Y-037988
X067000Y-038988
X067000Y-039988
X067000Y-040988
X067000Y-041988
X068000Y-031000
X068000Y-032000
X068000Y-033000
X068000Y-034000
X068000Y-035000
X068000Y-036000
X068000Y-037000
X068000Y-038000
X068000Y-039000
X068000Y-040000
X068000Y-041000
X068000Y-042000
T7
X051100Y-029231
X051100Y-031200
X051100Y-033169
X051100Y-035137
X051100Y-037563
X051100Y-039531
X051100Y-041500
X051100Y-043469
T0
M30
