G04 #@! TF.FileFunction,Copper,L2,Bot,Signal*
%FSLAX46Y46*%
G04 Gerber Fmt 4.6, Leading zero omitted, Abs format (unit mm)*
G04 Created by KiCad (PCBNEW 4.0.2-stable) date 25-Jul-16 9:15:29 PM*
%MOMM*%
G01*
G04 APERTURE LIST*
%ADD10C,0.100000*%
%ADD11C,1.778000*%
%ADD12O,2.000000X1.200000*%
%ADD13R,1.524000X1.524000*%
%ADD14R,1.300000X1.300000*%
%ADD15C,1.300000*%
%ADD16R,1.250000X1.500000*%
%ADD17R,3.657600X2.032000*%
%ADD18R,1.016000X2.032000*%
%ADD19R,1.727200X2.032000*%
%ADD20O,1.727200X2.032000*%
%ADD21R,2.032000X2.032000*%
%ADD22O,2.032000X2.032000*%
%ADD23O,1.501140X0.899160*%
%ADD24O,1.699260X3.500120*%
%ADD25O,3.962400X1.981200*%
%ADD26C,1.500000*%
%ADD27C,0.600000*%
%ADD28C,0.250000*%
%ADD29C,0.300000*%
%ADD30C,2.000000*%
%ADD31C,0.254000*%
G04 APERTURE END LIST*
D10*
D11*
X139065000Y-77470000D03*
X139065000Y-97536000D03*
D12*
X170180302Y-78708446D03*
X154940302Y-78708446D03*
X170180302Y-81248446D03*
X154940302Y-81248446D03*
X170180302Y-83788446D03*
X154940302Y-83788446D03*
X170180302Y-86328446D03*
X154940302Y-86328446D03*
X170180302Y-88868446D03*
X154940302Y-88868446D03*
X170180302Y-91408446D03*
X154940302Y-91408446D03*
X170180302Y-93948446D03*
X154940302Y-93948446D03*
X170180302Y-96488446D03*
X154940302Y-96488446D03*
X170180302Y-99028446D03*
X154940302Y-99028446D03*
X170180302Y-101568446D03*
X154940302Y-101568446D03*
X170180302Y-104108446D03*
X154940302Y-104108446D03*
X170180302Y-106648446D03*
X154940302Y-106648446D03*
X152400000Y-78740000D03*
X152400000Y-81280000D03*
X152400000Y-83820000D03*
X152400000Y-86360000D03*
X152400000Y-88900000D03*
X152400000Y-91440000D03*
X152400000Y-93980000D03*
X152400000Y-96520000D03*
X152400000Y-99060000D03*
X152400000Y-101600000D03*
X152400000Y-104140000D03*
X152400000Y-106680000D03*
X172720000Y-106680000D03*
X172720000Y-104140000D03*
X172720000Y-101600000D03*
X172720000Y-99060000D03*
X172720000Y-96520000D03*
X172720000Y-93980000D03*
X172720000Y-91440000D03*
X172720000Y-88900000D03*
X172720000Y-86360000D03*
X172720000Y-83820000D03*
X172720000Y-81280000D03*
X172720000Y-78740000D03*
D13*
X166370000Y-105410000D03*
D11*
X163830000Y-105410000D03*
X161290000Y-105410000D03*
X158750000Y-105410000D03*
X158750000Y-102870000D03*
X161290000Y-102870000D03*
X163830000Y-102870000D03*
X166370000Y-102870000D03*
D14*
X149225000Y-110490000D03*
D15*
X151725000Y-110490000D03*
D16*
X160655000Y-85110000D03*
X160655000Y-87610000D03*
X160655000Y-80030000D03*
X160655000Y-82530000D03*
X165100000Y-85110000D03*
X165100000Y-87610000D03*
X165100000Y-80030000D03*
X165100000Y-82530000D03*
D17*
X162560000Y-97282000D03*
D18*
X162560000Y-90678000D03*
X164846000Y-90678000D03*
X160274000Y-90678000D03*
D19*
X158115000Y-75565000D03*
D20*
X160655000Y-75565000D03*
X163195000Y-75565000D03*
D21*
X167005000Y-75565000D03*
D22*
X169545000Y-75565000D03*
D23*
X144780000Y-108458000D03*
X144780000Y-109728000D03*
X144780000Y-107188000D03*
D24*
X133604000Y-118364000D03*
X131064000Y-118364000D03*
X136144000Y-118364000D03*
X144399000Y-118364000D03*
X141859000Y-118364000D03*
X146939000Y-118364000D03*
X155067000Y-118364000D03*
X152527000Y-118364000D03*
X157607000Y-118364000D03*
D21*
X140335000Y-74295000D03*
D22*
X137795000Y-74295000D03*
D25*
X129794000Y-110410000D03*
X129794000Y-105410000D03*
X129794000Y-95410000D03*
X129794000Y-100410000D03*
X129794000Y-89248000D03*
X129794000Y-84248000D03*
X129794000Y-74248000D03*
X129794000Y-79248000D03*
D26*
X141986000Y-113411000D03*
X152527000Y-113665000D03*
X137795000Y-109728000D03*
D27*
X133731000Y-113792000D03*
X140462000Y-108966000D03*
D28*
X154940302Y-78708446D02*
X152431554Y-78708446D01*
X152431554Y-78708446D02*
X152400000Y-78740000D01*
X165080000Y-85090000D02*
X165100000Y-85110000D01*
X160655000Y-87610000D02*
X160655000Y-87485000D01*
X160274000Y-90678000D02*
X160274000Y-87991000D01*
X160274000Y-87991000D02*
X160655000Y-87610000D01*
X172720000Y-83820000D02*
X170211856Y-83820000D01*
X170211856Y-83820000D02*
X170180302Y-83788446D01*
X148934990Y-107699990D02*
X151075001Y-109840001D01*
X145972222Y-109728000D02*
X148000232Y-107699990D01*
X151075001Y-109840001D02*
X151725000Y-110490000D01*
X144780000Y-109728000D02*
X145972222Y-109728000D01*
X148000232Y-107699990D02*
X148934990Y-107699990D01*
X172720000Y-86360000D02*
X170211856Y-86360000D01*
X170211856Y-86360000D02*
X170180302Y-86328446D01*
X172720000Y-88900000D02*
X170211856Y-88900000D01*
X170211856Y-88900000D02*
X170180302Y-88868446D01*
X172720000Y-91440000D02*
X170211856Y-91440000D01*
X170211856Y-91440000D02*
X170180302Y-91408446D01*
X172720000Y-93980000D02*
X170211856Y-93980000D01*
X170211856Y-93980000D02*
X170180302Y-93948446D01*
X172720000Y-96520000D02*
X170211856Y-96520000D01*
X170211856Y-96520000D02*
X170180302Y-96488446D01*
X172720000Y-99060000D02*
X170211856Y-99060000D01*
X170211856Y-99060000D02*
X170180302Y-99028446D01*
X160401001Y-106298999D02*
X161290000Y-105410000D01*
X160158421Y-99028446D02*
X157085990Y-102100877D01*
X158167279Y-106624001D02*
X160075999Y-106624001D01*
X157085990Y-105542712D02*
X158167279Y-106624001D01*
X157085990Y-102100877D02*
X157085990Y-105542712D01*
X160075999Y-106624001D02*
X160401001Y-106298999D01*
X170180302Y-99028446D02*
X160158421Y-99028446D01*
X172720000Y-101600000D02*
X170211856Y-101600000D01*
X170211856Y-101600000D02*
X170180302Y-101568446D01*
X157861001Y-104521001D02*
X158750000Y-105410000D01*
X168930302Y-100718446D02*
X159104832Y-100718446D01*
X157535999Y-102287279D02*
X157535999Y-104195999D01*
X169780302Y-101568446D02*
X168930302Y-100718446D01*
X170180302Y-101568446D02*
X169780302Y-101568446D01*
X159104832Y-100718446D02*
X157535999Y-102287279D01*
X157535999Y-104195999D02*
X157861001Y-104521001D01*
X170180302Y-104108446D02*
X172688446Y-104108446D01*
X172688446Y-104108446D02*
X172720000Y-104140000D01*
X161290000Y-102870000D02*
X162504001Y-101655999D01*
X162504001Y-101655999D02*
X167327855Y-101655999D01*
X167327855Y-101655999D02*
X169780302Y-104108446D01*
X169780302Y-104108446D02*
X170180302Y-104108446D01*
X165044001Y-104084001D02*
X164718999Y-103758999D01*
X170180302Y-106648446D02*
X169780302Y-106648446D01*
X164718999Y-103758999D02*
X163830000Y-102870000D01*
X167215857Y-104084001D02*
X165044001Y-104084001D01*
X169780302Y-106648446D02*
X167215857Y-104084001D01*
X163830000Y-105410000D02*
X162165988Y-107074012D01*
X162165988Y-107074012D02*
X156615868Y-107074012D01*
X156615868Y-107074012D02*
X156190302Y-106648446D01*
X156190302Y-106648446D02*
X154940302Y-106648446D01*
X133731000Y-113792000D02*
X138557000Y-108966000D01*
X138557000Y-108966000D02*
X140462000Y-108966000D01*
X162560000Y-90678000D02*
X162560000Y-97282000D01*
X162560000Y-85725000D02*
X162560000Y-90678000D01*
X161925000Y-85090000D02*
X162560000Y-85725000D01*
X161550000Y-85090000D02*
X161925000Y-85090000D01*
X160655000Y-85110000D02*
X161530000Y-85110000D01*
X161530000Y-85110000D02*
X161550000Y-85090000D01*
X159385000Y-80645000D02*
X159385000Y-80425000D01*
X159385000Y-80425000D02*
X159780000Y-80030000D01*
X159780000Y-80030000D02*
X160655000Y-80030000D01*
X159385000Y-81280000D02*
X159385000Y-80645000D01*
X159385000Y-84715000D02*
X159385000Y-81280000D01*
X160655000Y-85110000D02*
X159780000Y-85110000D01*
X159780000Y-85110000D02*
X159385000Y-84715000D01*
X158115000Y-75565000D02*
X158115000Y-78365000D01*
X158115000Y-78365000D02*
X159780000Y-80030000D01*
X165100000Y-82530000D02*
X165975000Y-82530000D01*
X165975000Y-82530000D02*
X167005000Y-81500000D01*
X167005000Y-81500000D02*
X167005000Y-76831000D01*
X167005000Y-76831000D02*
X167005000Y-75565000D01*
X165100000Y-87610000D02*
X165100000Y-87485000D01*
X165100000Y-82655000D02*
X165100000Y-82530000D01*
X165100000Y-87485000D02*
X166050001Y-86534999D01*
X166050001Y-86534999D02*
X166050001Y-83605001D01*
X166050001Y-83605001D02*
X165100000Y-82655000D01*
X164846000Y-90678000D02*
X164846000Y-87864000D01*
X164846000Y-87864000D02*
X165100000Y-87610000D01*
D29*
X170180302Y-78708446D02*
X172688446Y-78708446D01*
X172688446Y-78708446D02*
X172720000Y-78740000D01*
D28*
X152400000Y-101600000D02*
X151150000Y-101600000D01*
X151150000Y-101600000D02*
X147848000Y-104902000D01*
X147848000Y-104902000D02*
X144018000Y-104902000D01*
X144018000Y-104902000D02*
X141859000Y-107061000D01*
X141859000Y-107061000D02*
X141859000Y-118364000D01*
X141859000Y-118364000D02*
X141732000Y-116925226D01*
X150368000Y-107315000D02*
X150368000Y-105772000D01*
X150368000Y-105772000D02*
X152000000Y-104140000D01*
X152000000Y-104140000D02*
X152400000Y-104140000D01*
X151892000Y-108839000D02*
X150368000Y-107315000D01*
X152527000Y-108839000D02*
X151892000Y-108839000D01*
X153289000Y-109601000D02*
X152527000Y-108839000D01*
X153289000Y-111184998D02*
X153289000Y-109601000D01*
X152527000Y-118364000D02*
X152527000Y-111946998D01*
X152527000Y-111946998D02*
X153289000Y-111184998D01*
X152527000Y-118364000D02*
X152527000Y-117463570D01*
D30*
X134493000Y-82956400D02*
X134493000Y-85539600D01*
X134493000Y-85539600D02*
X130784600Y-89248000D01*
X130784600Y-89248000D02*
X129794000Y-89248000D01*
X129794000Y-79248000D02*
X130784600Y-79248000D01*
X130784600Y-79248000D02*
X134493000Y-82956400D01*
X137795000Y-74295000D02*
X134747000Y-74295000D01*
X134747000Y-74295000D02*
X129794000Y-79248000D01*
X129794000Y-100410000D02*
X130784600Y-100410000D01*
X130784600Y-100410000D02*
X133775200Y-103400600D01*
X133775200Y-103400600D02*
X133775200Y-107419400D01*
X133775200Y-107419400D02*
X130784600Y-110410000D01*
X130784600Y-110410000D02*
X129794000Y-110410000D01*
X130784600Y-89248000D02*
X133775200Y-92238600D01*
X133775200Y-92238600D02*
X133775200Y-97419400D01*
X133775200Y-97419400D02*
X130784600Y-100410000D01*
D31*
G36*
X128130056Y-72746141D02*
X127602673Y-73098527D01*
X127250287Y-73625910D01*
X127126546Y-74248000D01*
X127250287Y-74870090D01*
X127602673Y-75397473D01*
X128130056Y-75749859D01*
X128752146Y-75873600D01*
X130835854Y-75873600D01*
X130861203Y-75868558D01*
X129107360Y-77622400D01*
X128752146Y-77622400D01*
X128130056Y-77746141D01*
X127602673Y-78098527D01*
X127250287Y-78625910D01*
X127126546Y-79248000D01*
X127250287Y-79870090D01*
X127602673Y-80397473D01*
X128130056Y-80749859D01*
X128752146Y-80873600D01*
X129746738Y-80873600D01*
X129794000Y-80883001D01*
X129794005Y-80883000D01*
X130107360Y-80883000D01*
X132858000Y-83633639D01*
X132858000Y-84862361D01*
X130107360Y-87613000D01*
X129794000Y-87613000D01*
X129746743Y-87622400D01*
X128752146Y-87622400D01*
X128130056Y-87746141D01*
X127602673Y-88098527D01*
X127250287Y-88625910D01*
X127126546Y-89248000D01*
X127250287Y-89870090D01*
X127602673Y-90397473D01*
X128130056Y-90749859D01*
X128752146Y-90873600D01*
X129746743Y-90873600D01*
X129794000Y-90883000D01*
X130107360Y-90883000D01*
X132140200Y-92915840D01*
X132140200Y-94492311D01*
X131985327Y-94260527D01*
X131457944Y-93908141D01*
X130835854Y-93784400D01*
X128752146Y-93784400D01*
X128130056Y-93908141D01*
X127602673Y-94260527D01*
X127250287Y-94787910D01*
X127126546Y-95410000D01*
X127250287Y-96032090D01*
X127602673Y-96559473D01*
X128130056Y-96911859D01*
X128752146Y-97035600D01*
X130835854Y-97035600D01*
X131457944Y-96911859D01*
X131985327Y-96559473D01*
X132140200Y-96327689D01*
X132140200Y-96742160D01*
X130107360Y-98775000D01*
X129794000Y-98775000D01*
X129746743Y-98784400D01*
X128752146Y-98784400D01*
X128130056Y-98908141D01*
X127602673Y-99260527D01*
X127250287Y-99787910D01*
X127126546Y-100410000D01*
X127250287Y-101032090D01*
X127602673Y-101559473D01*
X128130056Y-101911859D01*
X128752146Y-102035600D01*
X129746743Y-102035600D01*
X129794000Y-102045000D01*
X130107360Y-102045000D01*
X132140200Y-104077840D01*
X132140200Y-104557763D01*
X132023876Y-104350330D01*
X131524023Y-103956742D01*
X130911600Y-103784400D01*
X129921000Y-103784400D01*
X129921000Y-105283000D01*
X129941000Y-105283000D01*
X129941000Y-105537000D01*
X129921000Y-105537000D01*
X129921000Y-107035600D01*
X130911600Y-107035600D01*
X131524023Y-106863258D01*
X132023876Y-106469670D01*
X132140200Y-106262237D01*
X132140200Y-106742160D01*
X130107360Y-108775000D01*
X129794000Y-108775000D01*
X129746743Y-108784400D01*
X128752146Y-108784400D01*
X128130056Y-108908141D01*
X127602673Y-109260527D01*
X127250287Y-109787910D01*
X127126546Y-110410000D01*
X127250287Y-111032090D01*
X127602673Y-111559473D01*
X128130056Y-111911859D01*
X128752146Y-112035600D01*
X129746743Y-112035600D01*
X129794000Y-112045000D01*
X130784595Y-112045000D01*
X130784600Y-112045001D01*
X130831862Y-112035600D01*
X130835854Y-112035600D01*
X131457944Y-111911859D01*
X131985327Y-111559473D01*
X132061766Y-111445074D01*
X134931320Y-108575520D01*
X135285743Y-108045088D01*
X135410201Y-107419400D01*
X135410200Y-107419395D01*
X135410200Y-103400605D01*
X135410201Y-103400600D01*
X135285743Y-102774912D01*
X134931320Y-102244480D01*
X133096840Y-100410000D01*
X134898644Y-98608196D01*
X138172409Y-98608196D01*
X138257467Y-98863539D01*
X138826965Y-99071516D01*
X139097412Y-99060000D01*
X150732968Y-99060000D01*
X150826977Y-99532614D01*
X151094691Y-99933277D01*
X151495354Y-100200991D01*
X151967968Y-100295000D01*
X152832032Y-100295000D01*
X153304646Y-100200991D01*
X153693763Y-99940992D01*
X154035656Y-100169437D01*
X154508270Y-100263446D01*
X155372334Y-100263446D01*
X155844948Y-100169437D01*
X156245611Y-99901723D01*
X156513325Y-99501060D01*
X156607334Y-99028446D01*
X156513325Y-98555832D01*
X156245611Y-98155169D01*
X155844948Y-97887455D01*
X155372334Y-97793446D01*
X154508270Y-97793446D01*
X154035656Y-97887455D01*
X153646539Y-98147454D01*
X153304646Y-97919009D01*
X152832032Y-97825000D01*
X151967968Y-97825000D01*
X151495354Y-97919009D01*
X151094691Y-98186723D01*
X150826977Y-98587386D01*
X150732968Y-99060000D01*
X139097412Y-99060000D01*
X139432700Y-99045723D01*
X139872533Y-98863539D01*
X139957591Y-98608196D01*
X139065000Y-97715605D01*
X138172409Y-98608196D01*
X134898644Y-98608196D01*
X134931320Y-98575520D01*
X135285743Y-98045088D01*
X135410201Y-97419400D01*
X135410200Y-97419395D01*
X135410200Y-97297965D01*
X137529484Y-97297965D01*
X137555277Y-97903700D01*
X137737461Y-98343533D01*
X137992804Y-98428591D01*
X138885395Y-97536000D01*
X139244605Y-97536000D01*
X140137196Y-98428591D01*
X140392539Y-98343533D01*
X140600516Y-97774035D01*
X140574723Y-97168300D01*
X140392539Y-96728467D01*
X140137196Y-96643409D01*
X139244605Y-97536000D01*
X138885395Y-97536000D01*
X137992804Y-96643409D01*
X137737461Y-96728467D01*
X137529484Y-97297965D01*
X135410200Y-97297965D01*
X135410200Y-96463804D01*
X138172409Y-96463804D01*
X139065000Y-97356395D01*
X139901395Y-96520000D01*
X150732968Y-96520000D01*
X150826977Y-96992614D01*
X151094691Y-97393277D01*
X151495354Y-97660991D01*
X151967968Y-97755000D01*
X152832032Y-97755000D01*
X153304646Y-97660991D01*
X153693763Y-97400992D01*
X154035656Y-97629437D01*
X154508270Y-97723446D01*
X155372334Y-97723446D01*
X155844948Y-97629437D01*
X156245611Y-97361723D01*
X156513325Y-96961060D01*
X156607334Y-96488446D01*
X156513325Y-96015832D01*
X156245611Y-95615169D01*
X155844948Y-95347455D01*
X155372334Y-95253446D01*
X154508270Y-95253446D01*
X154035656Y-95347455D01*
X153646539Y-95607454D01*
X153304646Y-95379009D01*
X152832032Y-95285000D01*
X151967968Y-95285000D01*
X151495354Y-95379009D01*
X151094691Y-95646723D01*
X150826977Y-96047386D01*
X150732968Y-96520000D01*
X139901395Y-96520000D01*
X139957591Y-96463804D01*
X139872533Y-96208461D01*
X139303035Y-96000484D01*
X138697300Y-96026277D01*
X138257467Y-96208461D01*
X138172409Y-96463804D01*
X135410200Y-96463804D01*
X135410200Y-93980000D01*
X150732968Y-93980000D01*
X150826977Y-94452614D01*
X151094691Y-94853277D01*
X151495354Y-95120991D01*
X151967968Y-95215000D01*
X152832032Y-95215000D01*
X153304646Y-95120991D01*
X153693763Y-94860992D01*
X154035656Y-95089437D01*
X154508270Y-95183446D01*
X155372334Y-95183446D01*
X155844948Y-95089437D01*
X156245611Y-94821723D01*
X156513325Y-94421060D01*
X156607334Y-93948446D01*
X156513325Y-93475832D01*
X156245611Y-93075169D01*
X155844948Y-92807455D01*
X155372334Y-92713446D01*
X154508270Y-92713446D01*
X154035656Y-92807455D01*
X153646539Y-93067454D01*
X153304646Y-92839009D01*
X152832032Y-92745000D01*
X151967968Y-92745000D01*
X151495354Y-92839009D01*
X151094691Y-93106723D01*
X150826977Y-93507386D01*
X150732968Y-93980000D01*
X135410200Y-93980000D01*
X135410200Y-92238605D01*
X135410201Y-92238600D01*
X135285743Y-91612912D01*
X135170208Y-91440000D01*
X150732968Y-91440000D01*
X150826977Y-91912614D01*
X151094691Y-92313277D01*
X151495354Y-92580991D01*
X151967968Y-92675000D01*
X152832032Y-92675000D01*
X153304646Y-92580991D01*
X153693763Y-92320992D01*
X154035656Y-92549437D01*
X154508270Y-92643446D01*
X155372334Y-92643446D01*
X155844948Y-92549437D01*
X156245611Y-92281723D01*
X156513325Y-91881060D01*
X156607334Y-91408446D01*
X156518879Y-90963750D01*
X159131000Y-90963750D01*
X159131000Y-91820310D01*
X159227673Y-92053699D01*
X159406302Y-92232327D01*
X159639691Y-92329000D01*
X159988250Y-92329000D01*
X160147000Y-92170250D01*
X160147000Y-90805000D01*
X159289750Y-90805000D01*
X159131000Y-90963750D01*
X156518879Y-90963750D01*
X156513325Y-90935832D01*
X156245611Y-90535169D01*
X155844948Y-90267455D01*
X155372334Y-90173446D01*
X154508270Y-90173446D01*
X154035656Y-90267455D01*
X153646539Y-90527454D01*
X153304646Y-90299009D01*
X152832032Y-90205000D01*
X151967968Y-90205000D01*
X151495354Y-90299009D01*
X151094691Y-90566723D01*
X150826977Y-90967386D01*
X150732968Y-91440000D01*
X135170208Y-91440000D01*
X134931320Y-91082480D01*
X133096840Y-89248000D01*
X133444839Y-88900000D01*
X150732968Y-88900000D01*
X150826977Y-89372614D01*
X151094691Y-89773277D01*
X151495354Y-90040991D01*
X151967968Y-90135000D01*
X152832032Y-90135000D01*
X153304646Y-90040991D01*
X153693763Y-89780992D01*
X154035656Y-90009437D01*
X154508270Y-90103446D01*
X155372334Y-90103446D01*
X155844948Y-90009437D01*
X156245611Y-89741723D01*
X156383277Y-89535690D01*
X159131000Y-89535690D01*
X159131000Y-90392250D01*
X159289750Y-90551000D01*
X160147000Y-90551000D01*
X160147000Y-89185750D01*
X159988250Y-89027000D01*
X159639691Y-89027000D01*
X159406302Y-89123673D01*
X159227673Y-89302301D01*
X159131000Y-89535690D01*
X156383277Y-89535690D01*
X156513325Y-89341060D01*
X156607334Y-88868446D01*
X156513325Y-88395832D01*
X156245611Y-87995169D01*
X156096820Y-87895750D01*
X159395000Y-87895750D01*
X159395000Y-88486309D01*
X159491673Y-88719698D01*
X159670301Y-88898327D01*
X159903690Y-88995000D01*
X160369250Y-88995000D01*
X160528000Y-88836250D01*
X160528000Y-87737000D01*
X159553750Y-87737000D01*
X159395000Y-87895750D01*
X156096820Y-87895750D01*
X155844948Y-87727455D01*
X155372334Y-87633446D01*
X154508270Y-87633446D01*
X154035656Y-87727455D01*
X153646539Y-87987454D01*
X153304646Y-87759009D01*
X152832032Y-87665000D01*
X151967968Y-87665000D01*
X151495354Y-87759009D01*
X151094691Y-88026723D01*
X150826977Y-88427386D01*
X150732968Y-88900000D01*
X133444839Y-88900000D01*
X135649117Y-86695722D01*
X135649120Y-86695720D01*
X135873440Y-86360000D01*
X150732968Y-86360000D01*
X150826977Y-86832614D01*
X151094691Y-87233277D01*
X151495354Y-87500991D01*
X151967968Y-87595000D01*
X152832032Y-87595000D01*
X153304646Y-87500991D01*
X153693763Y-87240992D01*
X154035656Y-87469437D01*
X154508270Y-87563446D01*
X155372334Y-87563446D01*
X155844948Y-87469437D01*
X156245611Y-87201723D01*
X156513325Y-86801060D01*
X156607334Y-86328446D01*
X156513325Y-85855832D01*
X156245611Y-85455169D01*
X155844948Y-85187455D01*
X155372334Y-85093446D01*
X154508270Y-85093446D01*
X154035656Y-85187455D01*
X153646539Y-85447454D01*
X153304646Y-85219009D01*
X152832032Y-85125000D01*
X151967968Y-85125000D01*
X151495354Y-85219009D01*
X151094691Y-85486723D01*
X150826977Y-85887386D01*
X150732968Y-86360000D01*
X135873440Y-86360000D01*
X136003543Y-86165287D01*
X136033270Y-86015840D01*
X136128001Y-85539600D01*
X136128000Y-85539595D01*
X136128000Y-83820000D01*
X150732968Y-83820000D01*
X150826977Y-84292614D01*
X151094691Y-84693277D01*
X151495354Y-84960991D01*
X151967968Y-85055000D01*
X152832032Y-85055000D01*
X153304646Y-84960991D01*
X153693763Y-84700992D01*
X154035656Y-84929437D01*
X154508270Y-85023446D01*
X155372334Y-85023446D01*
X155844948Y-84929437D01*
X156245611Y-84661723D01*
X156513325Y-84261060D01*
X156607334Y-83788446D01*
X156513325Y-83315832D01*
X156245611Y-82915169D01*
X155844948Y-82647455D01*
X155372334Y-82553446D01*
X154508270Y-82553446D01*
X154035656Y-82647455D01*
X153646539Y-82907454D01*
X153304646Y-82679009D01*
X152832032Y-82585000D01*
X151967968Y-82585000D01*
X151495354Y-82679009D01*
X151094691Y-82946723D01*
X150826977Y-83347386D01*
X150732968Y-83820000D01*
X136128000Y-83820000D01*
X136128000Y-82956405D01*
X136128001Y-82956400D01*
X136003543Y-82330713D01*
X135884984Y-82153277D01*
X135649120Y-81800280D01*
X135649117Y-81800278D01*
X135128840Y-81280000D01*
X150732968Y-81280000D01*
X150826977Y-81752614D01*
X151094691Y-82153277D01*
X151495354Y-82420991D01*
X151967968Y-82515000D01*
X152832032Y-82515000D01*
X153304646Y-82420991D01*
X153693763Y-82160992D01*
X154035656Y-82389437D01*
X154508270Y-82483446D01*
X155372334Y-82483446D01*
X155844948Y-82389437D01*
X156245611Y-82121723D01*
X156513325Y-81721060D01*
X156607334Y-81248446D01*
X156513325Y-80775832D01*
X156245611Y-80375169D01*
X155844948Y-80107455D01*
X155372334Y-80013446D01*
X154508270Y-80013446D01*
X154035656Y-80107455D01*
X153646539Y-80367454D01*
X153304646Y-80139009D01*
X152832032Y-80045000D01*
X151967968Y-80045000D01*
X151495354Y-80139009D01*
X151094691Y-80406723D01*
X150826977Y-80807386D01*
X150732968Y-81280000D01*
X135128840Y-81280000D01*
X132601540Y-78752700D01*
X135424239Y-75930000D01*
X137551954Y-75930000D01*
X137795000Y-75978345D01*
X138426810Y-75852670D01*
X138766792Y-75625501D01*
X138854910Y-75762441D01*
X139067110Y-75907431D01*
X139258399Y-75946168D01*
X138763188Y-75945736D01*
X138202851Y-76177262D01*
X137773769Y-76605596D01*
X137541265Y-77165528D01*
X137540736Y-77771812D01*
X137772262Y-78332149D01*
X138200596Y-78761231D01*
X138760528Y-78993735D01*
X139366812Y-78994264D01*
X139927149Y-78762738D01*
X139949926Y-78740000D01*
X150732968Y-78740000D01*
X150826977Y-79212614D01*
X151094691Y-79613277D01*
X151495354Y-79880991D01*
X151967968Y-79975000D01*
X152832032Y-79975000D01*
X153304646Y-79880991D01*
X153693763Y-79620992D01*
X154035656Y-79849437D01*
X154508270Y-79943446D01*
X155372334Y-79943446D01*
X155844948Y-79849437D01*
X156245611Y-79581723D01*
X156513325Y-79181060D01*
X156607334Y-78708446D01*
X156513325Y-78235832D01*
X156245611Y-77835169D01*
X155844948Y-77567455D01*
X155372334Y-77473446D01*
X154508270Y-77473446D01*
X154035656Y-77567455D01*
X153646539Y-77827454D01*
X153304646Y-77599009D01*
X152832032Y-77505000D01*
X151967968Y-77505000D01*
X151495354Y-77599009D01*
X151094691Y-77866723D01*
X150826977Y-78267386D01*
X150732968Y-78740000D01*
X139949926Y-78740000D01*
X140356231Y-78334404D01*
X140588735Y-77774472D01*
X140589264Y-77168188D01*
X140357738Y-76607851D01*
X139929404Y-76178769D01*
X139398793Y-75958440D01*
X141351000Y-75958440D01*
X141586317Y-75914162D01*
X141802441Y-75775090D01*
X141947431Y-75562890D01*
X141998440Y-75311000D01*
X141998440Y-73279000D01*
X141954162Y-73043683D01*
X141815090Y-72827559D01*
X141656209Y-72719000D01*
X173913191Y-72719000D01*
X173900305Y-77783198D01*
X173624646Y-77599009D01*
X173152032Y-77505000D01*
X172287968Y-77505000D01*
X171815354Y-77599009D01*
X171473763Y-77827252D01*
X171084948Y-77567455D01*
X170612334Y-77473446D01*
X169748270Y-77473446D01*
X169275656Y-77567455D01*
X168874993Y-77835169D01*
X168607279Y-78235832D01*
X168513270Y-78708446D01*
X168607279Y-79181060D01*
X168874993Y-79581723D01*
X169275656Y-79849437D01*
X169748270Y-79943446D01*
X170612334Y-79943446D01*
X171084948Y-79849437D01*
X171426539Y-79621194D01*
X171815354Y-79880991D01*
X172287968Y-79975000D01*
X173152032Y-79975000D01*
X173624646Y-79880991D01*
X173895427Y-79700061D01*
X173893799Y-80339821D01*
X173709947Y-80187610D01*
X173247000Y-80045000D01*
X172847000Y-80045000D01*
X172847000Y-81153000D01*
X172867000Y-81153000D01*
X172867000Y-81407000D01*
X172847000Y-81407000D01*
X172847000Y-82515000D01*
X173247000Y-82515000D01*
X173709947Y-82372390D01*
X173889005Y-82224149D01*
X173887401Y-82854576D01*
X173624646Y-82679009D01*
X173152032Y-82585000D01*
X172287968Y-82585000D01*
X171815354Y-82679009D01*
X171473763Y-82907252D01*
X171084948Y-82647455D01*
X170612334Y-82553446D01*
X169748270Y-82553446D01*
X169275656Y-82647455D01*
X168874993Y-82915169D01*
X168607279Y-83315832D01*
X168513270Y-83788446D01*
X168607279Y-84261060D01*
X168874993Y-84661723D01*
X169275656Y-84929437D01*
X169748270Y-85023446D01*
X170612334Y-85023446D01*
X171084948Y-84929437D01*
X171426539Y-84701194D01*
X171815354Y-84960991D01*
X172287968Y-85055000D01*
X173152032Y-85055000D01*
X173624646Y-84960991D01*
X173882479Y-84788713D01*
X173880948Y-85390264D01*
X173624646Y-85219009D01*
X173152032Y-85125000D01*
X172287968Y-85125000D01*
X171815354Y-85219009D01*
X171473763Y-85447252D01*
X171084948Y-85187455D01*
X170612334Y-85093446D01*
X169748270Y-85093446D01*
X169275656Y-85187455D01*
X168874993Y-85455169D01*
X168607279Y-85855832D01*
X168513270Y-86328446D01*
X168607279Y-86801060D01*
X168874993Y-87201723D01*
X169275656Y-87469437D01*
X169748270Y-87563446D01*
X170612334Y-87563446D01*
X171084948Y-87469437D01*
X171426539Y-87241194D01*
X171815354Y-87500991D01*
X172287968Y-87595000D01*
X173152032Y-87595000D01*
X173624646Y-87500991D01*
X173876005Y-87333039D01*
X173874496Y-87925953D01*
X173624646Y-87759009D01*
X173152032Y-87665000D01*
X172287968Y-87665000D01*
X171815354Y-87759009D01*
X171473763Y-87987252D01*
X171084948Y-87727455D01*
X170612334Y-87633446D01*
X169748270Y-87633446D01*
X169275656Y-87727455D01*
X168874993Y-87995169D01*
X168607279Y-88395832D01*
X168513270Y-88868446D01*
X168607279Y-89341060D01*
X168874993Y-89741723D01*
X169275656Y-90009437D01*
X169748270Y-90103446D01*
X170612334Y-90103446D01*
X171084948Y-90009437D01*
X171426539Y-89781194D01*
X171815354Y-90040991D01*
X172287968Y-90135000D01*
X173152032Y-90135000D01*
X173624646Y-90040991D01*
X173869531Y-89877364D01*
X173868044Y-90461642D01*
X173624646Y-90299009D01*
X173152032Y-90205000D01*
X172287968Y-90205000D01*
X171815354Y-90299009D01*
X171473763Y-90527252D01*
X171084948Y-90267455D01*
X170612334Y-90173446D01*
X169748270Y-90173446D01*
X169275656Y-90267455D01*
X168874993Y-90535169D01*
X168607279Y-90935832D01*
X168513270Y-91408446D01*
X168607279Y-91881060D01*
X168874993Y-92281723D01*
X169275656Y-92549437D01*
X169748270Y-92643446D01*
X170612334Y-92643446D01*
X171084948Y-92549437D01*
X171426539Y-92321194D01*
X171815354Y-92580991D01*
X172287968Y-92675000D01*
X173152032Y-92675000D01*
X173624646Y-92580991D01*
X173863057Y-92421690D01*
X173861592Y-92997331D01*
X173624646Y-92839009D01*
X173152032Y-92745000D01*
X172287968Y-92745000D01*
X171815354Y-92839009D01*
X171473763Y-93067252D01*
X171084948Y-92807455D01*
X170612334Y-92713446D01*
X169748270Y-92713446D01*
X169275656Y-92807455D01*
X168874993Y-93075169D01*
X168607279Y-93475832D01*
X168513270Y-93948446D01*
X168607279Y-94421060D01*
X168874993Y-94821723D01*
X169275656Y-95089437D01*
X169748270Y-95183446D01*
X170612334Y-95183446D01*
X171084948Y-95089437D01*
X171426539Y-94861194D01*
X171815354Y-95120991D01*
X172287968Y-95215000D01*
X173152032Y-95215000D01*
X173624646Y-95120991D01*
X173856583Y-94966016D01*
X173855140Y-95533020D01*
X173624646Y-95379009D01*
X173152032Y-95285000D01*
X172287968Y-95285000D01*
X171815354Y-95379009D01*
X171473763Y-95607252D01*
X171084948Y-95347455D01*
X170612334Y-95253446D01*
X169748270Y-95253446D01*
X169275656Y-95347455D01*
X168874993Y-95615169D01*
X168607279Y-96015832D01*
X168513270Y-96488446D01*
X168607279Y-96961060D01*
X168874993Y-97361723D01*
X169275656Y-97629437D01*
X169748270Y-97723446D01*
X170612334Y-97723446D01*
X171084948Y-97629437D01*
X171426539Y-97401194D01*
X171815354Y-97660991D01*
X172287968Y-97755000D01*
X173152032Y-97755000D01*
X173624646Y-97660991D01*
X173850108Y-97510342D01*
X173848688Y-98068709D01*
X173624646Y-97919009D01*
X173152032Y-97825000D01*
X172287968Y-97825000D01*
X171815354Y-97919009D01*
X171473763Y-98147252D01*
X171084948Y-97887455D01*
X170612334Y-97793446D01*
X169748270Y-97793446D01*
X169275656Y-97887455D01*
X168874993Y-98155169D01*
X168799304Y-98268446D01*
X165036240Y-98268446D01*
X165036240Y-96266000D01*
X164991962Y-96030683D01*
X164852890Y-95814559D01*
X164640690Y-95669569D01*
X164388800Y-95618560D01*
X163320000Y-95618560D01*
X163320000Y-92286427D01*
X163519441Y-92158090D01*
X163664431Y-91945890D01*
X163702543Y-91757686D01*
X163734838Y-91929317D01*
X163873910Y-92145441D01*
X164086110Y-92290431D01*
X164338000Y-92341440D01*
X165354000Y-92341440D01*
X165589317Y-92297162D01*
X165805441Y-92158090D01*
X165950431Y-91945890D01*
X166001440Y-91694000D01*
X166001440Y-89662000D01*
X165957162Y-89426683D01*
X165818090Y-89210559D01*
X165606000Y-89065644D01*
X165606000Y-89007440D01*
X165725000Y-89007440D01*
X165960317Y-88963162D01*
X166176441Y-88824090D01*
X166321431Y-88611890D01*
X166372440Y-88360000D01*
X166372440Y-87287362D01*
X166587402Y-87072400D01*
X166752149Y-86825839D01*
X166810001Y-86534999D01*
X166810001Y-83605001D01*
X166752149Y-83314162D01*
X166752149Y-83314161D01*
X166587402Y-83067600D01*
X166549802Y-83030000D01*
X167542401Y-82037401D01*
X167707148Y-81790839D01*
X167751860Y-81566055D01*
X168586840Y-81566055D01*
X168590710Y-81603727D01*
X168817222Y-82031920D01*
X169190355Y-82340836D01*
X169653302Y-82483446D01*
X170053302Y-82483446D01*
X170053302Y-81375446D01*
X170307302Y-81375446D01*
X170307302Y-82483446D01*
X170707302Y-82483446D01*
X171170249Y-82340836D01*
X171431094Y-82124883D01*
X171730053Y-82372390D01*
X172193000Y-82515000D01*
X172593000Y-82515000D01*
X172593000Y-81407000D01*
X171669681Y-81407000D01*
X171649033Y-81375446D01*
X170307302Y-81375446D01*
X170053302Y-81375446D01*
X168711571Y-81375446D01*
X168586840Y-81566055D01*
X167751860Y-81566055D01*
X167765000Y-81500000D01*
X167765000Y-80930837D01*
X168586840Y-80930837D01*
X168711571Y-81121446D01*
X170053302Y-81121446D01*
X170053302Y-80013446D01*
X170307302Y-80013446D01*
X170307302Y-81121446D01*
X171230621Y-81121446D01*
X171251269Y-81153000D01*
X172593000Y-81153000D01*
X172593000Y-80045000D01*
X172193000Y-80045000D01*
X171730053Y-80187610D01*
X171469208Y-80403563D01*
X171170249Y-80156056D01*
X170707302Y-80013446D01*
X170307302Y-80013446D01*
X170053302Y-80013446D01*
X169653302Y-80013446D01*
X169190355Y-80156056D01*
X168817222Y-80464972D01*
X168590710Y-80893165D01*
X168586840Y-80930837D01*
X167765000Y-80930837D01*
X167765000Y-77228440D01*
X168021000Y-77228440D01*
X168256317Y-77184162D01*
X168472441Y-77045090D01*
X168574198Y-76896163D01*
X168913190Y-77122670D01*
X169545000Y-77248345D01*
X170176810Y-77122670D01*
X170712433Y-76764778D01*
X171070325Y-76229155D01*
X171196000Y-75597345D01*
X171196000Y-75532655D01*
X171070325Y-74900845D01*
X170712433Y-74365222D01*
X170176810Y-74007330D01*
X169545000Y-73881655D01*
X168913190Y-74007330D01*
X168573208Y-74234499D01*
X168485090Y-74097559D01*
X168272890Y-73952569D01*
X168021000Y-73901560D01*
X165989000Y-73901560D01*
X165753683Y-73945838D01*
X165537559Y-74084910D01*
X165392569Y-74297110D01*
X165341560Y-74549000D01*
X165341560Y-76581000D01*
X165385838Y-76816317D01*
X165524910Y-77032441D01*
X165737110Y-77177431D01*
X165989000Y-77228440D01*
X166245000Y-77228440D01*
X166245000Y-78901975D01*
X166084699Y-78741673D01*
X165851310Y-78645000D01*
X165385750Y-78645000D01*
X165227000Y-78803750D01*
X165227000Y-79903000D01*
X165247000Y-79903000D01*
X165247000Y-80157000D01*
X165227000Y-80157000D01*
X165227000Y-80177000D01*
X164973000Y-80177000D01*
X164973000Y-80157000D01*
X163998750Y-80157000D01*
X163840000Y-80315750D01*
X163840000Y-80906309D01*
X163936673Y-81139698D01*
X164077910Y-81280936D01*
X164023559Y-81315910D01*
X163878569Y-81528110D01*
X163827560Y-81780000D01*
X163827560Y-83280000D01*
X163871838Y-83515317D01*
X164010910Y-83731441D01*
X164132526Y-83814538D01*
X164115301Y-83821673D01*
X163936673Y-84000302D01*
X163840000Y-84233691D01*
X163840000Y-84824250D01*
X163998750Y-84983000D01*
X164973000Y-84983000D01*
X164973000Y-84963000D01*
X165227000Y-84963000D01*
X165227000Y-84983000D01*
X165247000Y-84983000D01*
X165247000Y-85237000D01*
X165227000Y-85237000D01*
X165227000Y-85257000D01*
X164973000Y-85257000D01*
X164973000Y-85237000D01*
X163998750Y-85237000D01*
X163840000Y-85395750D01*
X163840000Y-85986309D01*
X163936673Y-86219698D01*
X164077910Y-86360936D01*
X164023559Y-86395910D01*
X163878569Y-86608110D01*
X163827560Y-86860000D01*
X163827560Y-88360000D01*
X163871838Y-88595317D01*
X164010910Y-88811441D01*
X164086000Y-88862748D01*
X164086000Y-89069573D01*
X163886559Y-89197910D01*
X163741569Y-89410110D01*
X163703457Y-89598314D01*
X163671162Y-89426683D01*
X163532090Y-89210559D01*
X163320000Y-89065644D01*
X163320000Y-85725000D01*
X163262148Y-85434161D01*
X163097401Y-85187599D01*
X162462401Y-84552599D01*
X162215839Y-84387852D01*
X161925000Y-84330000D01*
X161921795Y-84330000D01*
X161883162Y-84124683D01*
X161744090Y-83908559D01*
X161622474Y-83825462D01*
X161639699Y-83818327D01*
X161818327Y-83639698D01*
X161915000Y-83406309D01*
X161915000Y-82815750D01*
X161756250Y-82657000D01*
X160782000Y-82657000D01*
X160782000Y-82677000D01*
X160528000Y-82677000D01*
X160528000Y-82657000D01*
X160508000Y-82657000D01*
X160508000Y-82403000D01*
X160528000Y-82403000D01*
X160528000Y-82383000D01*
X160782000Y-82383000D01*
X160782000Y-82403000D01*
X161756250Y-82403000D01*
X161915000Y-82244250D01*
X161915000Y-81653691D01*
X161818327Y-81420302D01*
X161677090Y-81279064D01*
X161731441Y-81244090D01*
X161876431Y-81031890D01*
X161927440Y-80780000D01*
X161927440Y-79280000D01*
X161903674Y-79153691D01*
X163840000Y-79153691D01*
X163840000Y-79744250D01*
X163998750Y-79903000D01*
X164973000Y-79903000D01*
X164973000Y-78803750D01*
X164814250Y-78645000D01*
X164348690Y-78645000D01*
X164115301Y-78741673D01*
X163936673Y-78920302D01*
X163840000Y-79153691D01*
X161903674Y-79153691D01*
X161883162Y-79044683D01*
X161744090Y-78828559D01*
X161531890Y-78683569D01*
X161280000Y-78632560D01*
X160030000Y-78632560D01*
X159794683Y-78676838D01*
X159616377Y-78791575D01*
X158875000Y-78050198D01*
X158875000Y-77228440D01*
X158978600Y-77228440D01*
X159213917Y-77184162D01*
X159430041Y-77045090D01*
X159575031Y-76832890D01*
X159583400Y-76791561D01*
X159595330Y-76809415D01*
X160081511Y-77134271D01*
X160655000Y-77248345D01*
X161228489Y-77134271D01*
X161714670Y-76809415D01*
X161925000Y-76494634D01*
X162135330Y-76809415D01*
X162621511Y-77134271D01*
X163195000Y-77248345D01*
X163768489Y-77134271D01*
X164254670Y-76809415D01*
X164579526Y-76323234D01*
X164693600Y-75749745D01*
X164693600Y-75380255D01*
X164579526Y-74806766D01*
X164254670Y-74320585D01*
X163768489Y-73995729D01*
X163195000Y-73881655D01*
X162621511Y-73995729D01*
X162135330Y-74320585D01*
X161925000Y-74635366D01*
X161714670Y-74320585D01*
X161228489Y-73995729D01*
X160655000Y-73881655D01*
X160081511Y-73995729D01*
X159595330Y-74320585D01*
X159585757Y-74334913D01*
X159581762Y-74313683D01*
X159442690Y-74097559D01*
X159230490Y-73952569D01*
X158978600Y-73901560D01*
X157251400Y-73901560D01*
X157016083Y-73945838D01*
X156799959Y-74084910D01*
X156654969Y-74297110D01*
X156603960Y-74549000D01*
X156603960Y-76581000D01*
X156648238Y-76816317D01*
X156787310Y-77032441D01*
X156999510Y-77177431D01*
X157251400Y-77228440D01*
X157355000Y-77228440D01*
X157355000Y-78365000D01*
X157412852Y-78655839D01*
X157577599Y-78902401D01*
X158733524Y-80058326D01*
X158682852Y-80134161D01*
X158625000Y-80425000D01*
X158625000Y-84715000D01*
X158682852Y-85005839D01*
X158847599Y-85252401D01*
X159242599Y-85647401D01*
X159382560Y-85740920D01*
X159382560Y-85860000D01*
X159426838Y-86095317D01*
X159565910Y-86311441D01*
X159634006Y-86357969D01*
X159491673Y-86500302D01*
X159395000Y-86733691D01*
X159395000Y-87324250D01*
X159553750Y-87483000D01*
X160528000Y-87483000D01*
X160528000Y-87463000D01*
X160782000Y-87463000D01*
X160782000Y-87483000D01*
X160802000Y-87483000D01*
X160802000Y-87737000D01*
X160782000Y-87737000D01*
X160782000Y-88836250D01*
X160940750Y-88995000D01*
X161406310Y-88995000D01*
X161639699Y-88898327D01*
X161800000Y-88738025D01*
X161800000Y-89069573D01*
X161600559Y-89197910D01*
X161455569Y-89410110D01*
X161417000Y-89600569D01*
X161417000Y-89535690D01*
X161320327Y-89302301D01*
X161141698Y-89123673D01*
X160908309Y-89027000D01*
X160559750Y-89027000D01*
X160401000Y-89185750D01*
X160401000Y-90551000D01*
X160421000Y-90551000D01*
X160421000Y-90805000D01*
X160401000Y-90805000D01*
X160401000Y-92170250D01*
X160559750Y-92329000D01*
X160908309Y-92329000D01*
X161141698Y-92232327D01*
X161320327Y-92053699D01*
X161417000Y-91820310D01*
X161417000Y-91760113D01*
X161448838Y-91929317D01*
X161587910Y-92145441D01*
X161800000Y-92290356D01*
X161800000Y-95618560D01*
X160731200Y-95618560D01*
X160495883Y-95662838D01*
X160279759Y-95801910D01*
X160134769Y-96014110D01*
X160083760Y-96266000D01*
X160083760Y-98283297D01*
X159867582Y-98326298D01*
X159621020Y-98491045D01*
X156596763Y-101515302D01*
X156513325Y-101095832D01*
X156245611Y-100695169D01*
X155844948Y-100427455D01*
X155372334Y-100333446D01*
X154508270Y-100333446D01*
X154035656Y-100427455D01*
X153646539Y-100687454D01*
X153304646Y-100459009D01*
X152832032Y-100365000D01*
X151967968Y-100365000D01*
X151495354Y-100459009D01*
X151094691Y-100726723D01*
X150998922Y-100870051D01*
X150859160Y-100897852D01*
X150612599Y-101062599D01*
X147533198Y-104142000D01*
X144018000Y-104142000D01*
X143727161Y-104199852D01*
X143480599Y-104364599D01*
X141321599Y-106523599D01*
X141156852Y-106770161D01*
X141099000Y-107061000D01*
X141099000Y-108280667D01*
X140992327Y-108173808D01*
X140648799Y-108031162D01*
X140276833Y-108030838D01*
X139933057Y-108172883D01*
X139899882Y-108206000D01*
X138557000Y-108206000D01*
X138266161Y-108263852D01*
X138118355Y-108362613D01*
X138071702Y-108343241D01*
X137520715Y-108342760D01*
X137011485Y-108553169D01*
X136621539Y-108942436D01*
X136410241Y-109451298D01*
X136409760Y-110002285D01*
X136420330Y-110027868D01*
X133591320Y-112856878D01*
X133545833Y-112856838D01*
X133202057Y-112998883D01*
X132938808Y-113261673D01*
X132796162Y-113605201D01*
X132795838Y-113977167D01*
X132937883Y-114320943D01*
X133200673Y-114584192D01*
X133544201Y-114726838D01*
X133916167Y-114727162D01*
X134259943Y-114585117D01*
X134523192Y-114322327D01*
X134665838Y-113978799D01*
X134665879Y-113931923D01*
X137494800Y-111103002D01*
X137518298Y-111112759D01*
X138069285Y-111113240D01*
X138578515Y-110902831D01*
X138968461Y-110513564D01*
X139179759Y-110004702D01*
X139180002Y-109726000D01*
X139899537Y-109726000D01*
X139931673Y-109758192D01*
X140275201Y-109900838D01*
X140647167Y-109901162D01*
X140990943Y-109759117D01*
X141099000Y-109651248D01*
X141099000Y-112339474D01*
X140812539Y-112625436D01*
X140601241Y-113134298D01*
X140600760Y-113685285D01*
X140811169Y-114194515D01*
X141099000Y-114482848D01*
X141099000Y-116173420D01*
X140809208Y-116367052D01*
X140487381Y-116848701D01*
X140374370Y-117416844D01*
X140374370Y-119311156D01*
X140487381Y-119879299D01*
X140809208Y-120360948D01*
X141290857Y-120682775D01*
X141859000Y-120795786D01*
X142427143Y-120682775D01*
X142908792Y-120360948D01*
X143129000Y-120031383D01*
X143349208Y-120360948D01*
X143830857Y-120682775D01*
X144399000Y-120795786D01*
X144967143Y-120682775D01*
X145448792Y-120360948D01*
X145674516Y-120023127D01*
X145979011Y-120404024D01*
X146488190Y-120684649D01*
X146582168Y-120705540D01*
X146812000Y-120584214D01*
X146812000Y-118491000D01*
X147066000Y-118491000D01*
X147066000Y-120584214D01*
X147295832Y-120705540D01*
X147389810Y-120684649D01*
X147898989Y-120404024D01*
X148262018Y-119949906D01*
X148423630Y-119391430D01*
X148423630Y-118491000D01*
X147066000Y-118491000D01*
X146812000Y-118491000D01*
X146792000Y-118491000D01*
X146792000Y-118237000D01*
X146812000Y-118237000D01*
X146812000Y-116143786D01*
X147066000Y-116143786D01*
X147066000Y-118237000D01*
X148423630Y-118237000D01*
X148423630Y-117336570D01*
X148262018Y-116778094D01*
X147898989Y-116323976D01*
X147389810Y-116043351D01*
X147295832Y-116022460D01*
X147066000Y-116143786D01*
X146812000Y-116143786D01*
X146582168Y-116022460D01*
X146488190Y-116043351D01*
X145979011Y-116323976D01*
X145674516Y-116704873D01*
X145448792Y-116367052D01*
X144967143Y-116045225D01*
X144399000Y-115932214D01*
X143830857Y-116045225D01*
X143349208Y-116367052D01*
X143129000Y-116696617D01*
X142908792Y-116367052D01*
X142619000Y-116173420D01*
X142619000Y-114648022D01*
X142769515Y-114585831D01*
X143159461Y-114196564D01*
X143370759Y-113687702D01*
X143371240Y-113136715D01*
X143160831Y-112627485D01*
X142771564Y-112237539D01*
X142619000Y-112174189D01*
X142619000Y-107375802D01*
X143100737Y-106894065D01*
X143435019Y-106894065D01*
X143561932Y-107061000D01*
X144653000Y-107061000D01*
X144653000Y-106103420D01*
X144907000Y-106103420D01*
X144907000Y-107061000D01*
X145998068Y-107061000D01*
X146124981Y-106894065D01*
X145937706Y-106510889D01*
X145613373Y-106234580D01*
X145207990Y-106103420D01*
X144907000Y-106103420D01*
X144653000Y-106103420D01*
X144352010Y-106103420D01*
X143946627Y-106234580D01*
X143622294Y-106510889D01*
X143435019Y-106894065D01*
X143100737Y-106894065D01*
X144332802Y-105662000D01*
X147848000Y-105662000D01*
X148138839Y-105604148D01*
X148385401Y-105439401D01*
X151248652Y-102576150D01*
X151495354Y-102740991D01*
X151967968Y-102835000D01*
X152832032Y-102835000D01*
X153304646Y-102740991D01*
X153693763Y-102480992D01*
X154035656Y-102709437D01*
X154508270Y-102803446D01*
X155372334Y-102803446D01*
X155844948Y-102709437D01*
X156245611Y-102441723D01*
X156325990Y-102321427D01*
X156325990Y-103355465D01*
X156245611Y-103235169D01*
X155844948Y-102967455D01*
X155372334Y-102873446D01*
X154508270Y-102873446D01*
X154035656Y-102967455D01*
X153646539Y-103227454D01*
X153304646Y-102999009D01*
X152832032Y-102905000D01*
X151967968Y-102905000D01*
X151495354Y-102999009D01*
X151094691Y-103266723D01*
X150826977Y-103667386D01*
X150732968Y-104140000D01*
X150764861Y-104300337D01*
X149830599Y-105234599D01*
X149665852Y-105481161D01*
X149608000Y-105772000D01*
X149608000Y-107298198D01*
X149472391Y-107162589D01*
X149225829Y-106997842D01*
X148934990Y-106939990D01*
X148000232Y-106939990D01*
X147709392Y-106997842D01*
X147462831Y-107162589D01*
X146188518Y-108436902D01*
X146110156Y-108042949D01*
X145960359Y-107818762D01*
X146124981Y-107481935D01*
X145998068Y-107315000D01*
X144907000Y-107315000D01*
X144907000Y-107335000D01*
X144653000Y-107335000D01*
X144653000Y-107315000D01*
X143561932Y-107315000D01*
X143435019Y-107481935D01*
X143599641Y-107818762D01*
X143449844Y-108042949D01*
X143367285Y-108458000D01*
X143449844Y-108873051D01*
X143596809Y-109093000D01*
X143449844Y-109312949D01*
X143367285Y-109728000D01*
X143449844Y-110143051D01*
X143684951Y-110494914D01*
X144036814Y-110730021D01*
X144451865Y-110812580D01*
X145108135Y-110812580D01*
X145293291Y-110775750D01*
X147940000Y-110775750D01*
X147940000Y-111266310D01*
X148036673Y-111499699D01*
X148215302Y-111678327D01*
X148448691Y-111775000D01*
X148939250Y-111775000D01*
X149098000Y-111616250D01*
X149098000Y-110617000D01*
X148098750Y-110617000D01*
X147940000Y-110775750D01*
X145293291Y-110775750D01*
X145523186Y-110730021D01*
X145875049Y-110494914D01*
X145879669Y-110488000D01*
X145972222Y-110488000D01*
X146263061Y-110430148D01*
X146509623Y-110265401D01*
X147061334Y-109713690D01*
X147940000Y-109713690D01*
X147940000Y-110204250D01*
X148098750Y-110363000D01*
X149098000Y-110363000D01*
X149098000Y-109363750D01*
X148939250Y-109205000D01*
X148448691Y-109205000D01*
X148215302Y-109301673D01*
X148036673Y-109480301D01*
X147940000Y-109713690D01*
X147061334Y-109713690D01*
X148315034Y-108459990D01*
X148620188Y-108459990D01*
X149437974Y-109277776D01*
X149352000Y-109363750D01*
X149352000Y-110363000D01*
X149372000Y-110363000D01*
X149372000Y-110617000D01*
X149352000Y-110617000D01*
X149352000Y-111616250D01*
X149510750Y-111775000D01*
X150001309Y-111775000D01*
X150234698Y-111678327D01*
X150413327Y-111499699D01*
X150510000Y-111266310D01*
X150510000Y-110914433D01*
X150634995Y-111216943D01*
X150996155Y-111578735D01*
X151468276Y-111774777D01*
X151801199Y-111775067D01*
X151767000Y-111946998D01*
X151767000Y-112480453D01*
X151743485Y-112490169D01*
X151353539Y-112879436D01*
X151142241Y-113388298D01*
X151141760Y-113939285D01*
X151352169Y-114448515D01*
X151741436Y-114838461D01*
X151767000Y-114849076D01*
X151767000Y-116173420D01*
X151477208Y-116367052D01*
X151155381Y-116848701D01*
X151042370Y-117416844D01*
X151042370Y-119311156D01*
X151155381Y-119879299D01*
X151477208Y-120360948D01*
X151958857Y-120682775D01*
X152527000Y-120795786D01*
X153095143Y-120682775D01*
X153576792Y-120360948D01*
X153797000Y-120031383D01*
X154017208Y-120360948D01*
X154498857Y-120682775D01*
X155067000Y-120795786D01*
X155635143Y-120682775D01*
X156116792Y-120360948D01*
X156342516Y-120023127D01*
X156647011Y-120404024D01*
X157156190Y-120684649D01*
X157250168Y-120705540D01*
X157480000Y-120584214D01*
X157480000Y-118491000D01*
X157734000Y-118491000D01*
X157734000Y-120584214D01*
X157963832Y-120705540D01*
X158057810Y-120684649D01*
X158566989Y-120404024D01*
X158930018Y-119949906D01*
X159091630Y-119391430D01*
X159091630Y-118491000D01*
X157734000Y-118491000D01*
X157480000Y-118491000D01*
X157460000Y-118491000D01*
X157460000Y-118237000D01*
X157480000Y-118237000D01*
X157480000Y-116143786D01*
X157734000Y-116143786D01*
X157734000Y-118237000D01*
X159091630Y-118237000D01*
X159091630Y-117336570D01*
X158930018Y-116778094D01*
X158566989Y-116323976D01*
X158057810Y-116043351D01*
X157963832Y-116022460D01*
X157734000Y-116143786D01*
X157480000Y-116143786D01*
X157250168Y-116022460D01*
X157156190Y-116043351D01*
X156647011Y-116323976D01*
X156342516Y-116704873D01*
X156116792Y-116367052D01*
X155635143Y-116045225D01*
X155067000Y-115932214D01*
X154498857Y-116045225D01*
X154017208Y-116367052D01*
X153797000Y-116696617D01*
X153576792Y-116367052D01*
X153287000Y-116173420D01*
X153287000Y-114849547D01*
X153310515Y-114839831D01*
X153700461Y-114450564D01*
X153911759Y-113941702D01*
X153912240Y-113390715D01*
X153701831Y-112881485D01*
X153312564Y-112491539D01*
X153287000Y-112480924D01*
X153287000Y-112261800D01*
X153826401Y-111722399D01*
X153991148Y-111475837D01*
X154049000Y-111184998D01*
X154049000Y-109601000D01*
X153991148Y-109310161D01*
X153826401Y-109063599D01*
X153064401Y-108301599D01*
X152817839Y-108136852D01*
X152527000Y-108079000D01*
X152206802Y-108079000D01*
X152042802Y-107915000D01*
X152832032Y-107915000D01*
X153304646Y-107820991D01*
X153693763Y-107560992D01*
X154035656Y-107789437D01*
X154508270Y-107883446D01*
X155372334Y-107883446D01*
X155844948Y-107789437D01*
X156094924Y-107622409D01*
X156325028Y-107776160D01*
X156615868Y-107834012D01*
X162165988Y-107834012D01*
X162456827Y-107776160D01*
X162703389Y-107611413D01*
X163423452Y-106891350D01*
X163525528Y-106933735D01*
X164131812Y-106934264D01*
X164692149Y-106702738D01*
X165009357Y-106386083D01*
X165069673Y-106531698D01*
X165248301Y-106710327D01*
X165481690Y-106807000D01*
X166084250Y-106807000D01*
X166243000Y-106648250D01*
X166243000Y-105537000D01*
X166223000Y-105537000D01*
X166223000Y-105283000D01*
X166243000Y-105283000D01*
X166243000Y-105263000D01*
X166497000Y-105263000D01*
X166497000Y-105283000D01*
X166517000Y-105283000D01*
X166517000Y-105537000D01*
X166497000Y-105537000D01*
X166497000Y-106648250D01*
X166655750Y-106807000D01*
X167258310Y-106807000D01*
X167491699Y-106710327D01*
X167670327Y-106531698D01*
X167767000Y-106298309D01*
X167767000Y-105709946D01*
X168545163Y-106488109D01*
X168513270Y-106648446D01*
X168607279Y-107121060D01*
X168874993Y-107521723D01*
X169275656Y-107789437D01*
X169748270Y-107883446D01*
X170612334Y-107883446D01*
X171084948Y-107789437D01*
X171426539Y-107561194D01*
X171815354Y-107820991D01*
X172287968Y-107915000D01*
X173152032Y-107915000D01*
X173624646Y-107820991D01*
X173824212Y-107687645D01*
X173789804Y-121210000D01*
X125424000Y-121210000D01*
X125424000Y-117416844D01*
X129579370Y-117416844D01*
X129579370Y-119311156D01*
X129692381Y-119879299D01*
X130014208Y-120360948D01*
X130495857Y-120682775D01*
X131064000Y-120795786D01*
X131632143Y-120682775D01*
X132113792Y-120360948D01*
X132334000Y-120031383D01*
X132554208Y-120360948D01*
X133035857Y-120682775D01*
X133604000Y-120795786D01*
X134172143Y-120682775D01*
X134653792Y-120360948D01*
X134879516Y-120023127D01*
X135184011Y-120404024D01*
X135693190Y-120684649D01*
X135787168Y-120705540D01*
X136017000Y-120584214D01*
X136017000Y-118491000D01*
X136271000Y-118491000D01*
X136271000Y-120584214D01*
X136500832Y-120705540D01*
X136594810Y-120684649D01*
X137103989Y-120404024D01*
X137467018Y-119949906D01*
X137628630Y-119391430D01*
X137628630Y-118491000D01*
X136271000Y-118491000D01*
X136017000Y-118491000D01*
X135997000Y-118491000D01*
X135997000Y-118237000D01*
X136017000Y-118237000D01*
X136017000Y-116143786D01*
X136271000Y-116143786D01*
X136271000Y-118237000D01*
X137628630Y-118237000D01*
X137628630Y-117336570D01*
X137467018Y-116778094D01*
X137103989Y-116323976D01*
X136594810Y-116043351D01*
X136500832Y-116022460D01*
X136271000Y-116143786D01*
X136017000Y-116143786D01*
X135787168Y-116022460D01*
X135693190Y-116043351D01*
X135184011Y-116323976D01*
X134879516Y-116704873D01*
X134653792Y-116367052D01*
X134172143Y-116045225D01*
X133604000Y-115932214D01*
X133035857Y-116045225D01*
X132554208Y-116367052D01*
X132334000Y-116696617D01*
X132113792Y-116367052D01*
X131632143Y-116045225D01*
X131064000Y-115932214D01*
X130495857Y-116045225D01*
X130014208Y-116367052D01*
X129692381Y-116848701D01*
X129579370Y-117416844D01*
X125424000Y-117416844D01*
X125424000Y-105788959D01*
X127222589Y-105788959D01*
X127252940Y-105914757D01*
X127564124Y-106469670D01*
X128063977Y-106863258D01*
X128676400Y-107035600D01*
X129667000Y-107035600D01*
X129667000Y-105537000D01*
X127342058Y-105537000D01*
X127222589Y-105788959D01*
X125424000Y-105788959D01*
X125424000Y-105031041D01*
X127222589Y-105031041D01*
X127342058Y-105283000D01*
X129667000Y-105283000D01*
X129667000Y-103784400D01*
X128676400Y-103784400D01*
X128063977Y-103956742D01*
X127564124Y-104350330D01*
X127252940Y-104905243D01*
X127222589Y-105031041D01*
X125424000Y-105031041D01*
X125424000Y-84248000D01*
X127126546Y-84248000D01*
X127250287Y-84870090D01*
X127602673Y-85397473D01*
X128130056Y-85749859D01*
X128752146Y-85873600D01*
X130835854Y-85873600D01*
X131457944Y-85749859D01*
X131985327Y-85397473D01*
X132337713Y-84870090D01*
X132461454Y-84248000D01*
X132337713Y-83625910D01*
X131985327Y-83098527D01*
X131457944Y-82746141D01*
X130835854Y-82622400D01*
X128752146Y-82622400D01*
X128130056Y-82746141D01*
X127602673Y-83098527D01*
X127250287Y-83625910D01*
X127126546Y-84248000D01*
X125424000Y-84248000D01*
X125424000Y-72719000D01*
X128266503Y-72719000D01*
X128130056Y-72746141D01*
X128130056Y-72746141D01*
G37*
X128130056Y-72746141D02*
X127602673Y-73098527D01*
X127250287Y-73625910D01*
X127126546Y-74248000D01*
X127250287Y-74870090D01*
X127602673Y-75397473D01*
X128130056Y-75749859D01*
X128752146Y-75873600D01*
X130835854Y-75873600D01*
X130861203Y-75868558D01*
X129107360Y-77622400D01*
X128752146Y-77622400D01*
X128130056Y-77746141D01*
X127602673Y-78098527D01*
X127250287Y-78625910D01*
X127126546Y-79248000D01*
X127250287Y-79870090D01*
X127602673Y-80397473D01*
X128130056Y-80749859D01*
X128752146Y-80873600D01*
X129746738Y-80873600D01*
X129794000Y-80883001D01*
X129794005Y-80883000D01*
X130107360Y-80883000D01*
X132858000Y-83633639D01*
X132858000Y-84862361D01*
X130107360Y-87613000D01*
X129794000Y-87613000D01*
X129746743Y-87622400D01*
X128752146Y-87622400D01*
X128130056Y-87746141D01*
X127602673Y-88098527D01*
X127250287Y-88625910D01*
X127126546Y-89248000D01*
X127250287Y-89870090D01*
X127602673Y-90397473D01*
X128130056Y-90749859D01*
X128752146Y-90873600D01*
X129746743Y-90873600D01*
X129794000Y-90883000D01*
X130107360Y-90883000D01*
X132140200Y-92915840D01*
X132140200Y-94492311D01*
X131985327Y-94260527D01*
X131457944Y-93908141D01*
X130835854Y-93784400D01*
X128752146Y-93784400D01*
X128130056Y-93908141D01*
X127602673Y-94260527D01*
X127250287Y-94787910D01*
X127126546Y-95410000D01*
X127250287Y-96032090D01*
X127602673Y-96559473D01*
X128130056Y-96911859D01*
X128752146Y-97035600D01*
X130835854Y-97035600D01*
X131457944Y-96911859D01*
X131985327Y-96559473D01*
X132140200Y-96327689D01*
X132140200Y-96742160D01*
X130107360Y-98775000D01*
X129794000Y-98775000D01*
X129746743Y-98784400D01*
X128752146Y-98784400D01*
X128130056Y-98908141D01*
X127602673Y-99260527D01*
X127250287Y-99787910D01*
X127126546Y-100410000D01*
X127250287Y-101032090D01*
X127602673Y-101559473D01*
X128130056Y-101911859D01*
X128752146Y-102035600D01*
X129746743Y-102035600D01*
X129794000Y-102045000D01*
X130107360Y-102045000D01*
X132140200Y-104077840D01*
X132140200Y-104557763D01*
X132023876Y-104350330D01*
X131524023Y-103956742D01*
X130911600Y-103784400D01*
X129921000Y-103784400D01*
X129921000Y-105283000D01*
X129941000Y-105283000D01*
X129941000Y-105537000D01*
X129921000Y-105537000D01*
X129921000Y-107035600D01*
X130911600Y-107035600D01*
X131524023Y-106863258D01*
X132023876Y-106469670D01*
X132140200Y-106262237D01*
X132140200Y-106742160D01*
X130107360Y-108775000D01*
X129794000Y-108775000D01*
X129746743Y-108784400D01*
X128752146Y-108784400D01*
X128130056Y-108908141D01*
X127602673Y-109260527D01*
X127250287Y-109787910D01*
X127126546Y-110410000D01*
X127250287Y-111032090D01*
X127602673Y-111559473D01*
X128130056Y-111911859D01*
X128752146Y-112035600D01*
X129746743Y-112035600D01*
X129794000Y-112045000D01*
X130784595Y-112045000D01*
X130784600Y-112045001D01*
X130831862Y-112035600D01*
X130835854Y-112035600D01*
X131457944Y-111911859D01*
X131985327Y-111559473D01*
X132061766Y-111445074D01*
X134931320Y-108575520D01*
X135285743Y-108045088D01*
X135410201Y-107419400D01*
X135410200Y-107419395D01*
X135410200Y-103400605D01*
X135410201Y-103400600D01*
X135285743Y-102774912D01*
X134931320Y-102244480D01*
X133096840Y-100410000D01*
X134898644Y-98608196D01*
X138172409Y-98608196D01*
X138257467Y-98863539D01*
X138826965Y-99071516D01*
X139097412Y-99060000D01*
X150732968Y-99060000D01*
X150826977Y-99532614D01*
X151094691Y-99933277D01*
X151495354Y-100200991D01*
X151967968Y-100295000D01*
X152832032Y-100295000D01*
X153304646Y-100200991D01*
X153693763Y-99940992D01*
X154035656Y-100169437D01*
X154508270Y-100263446D01*
X155372334Y-100263446D01*
X155844948Y-100169437D01*
X156245611Y-99901723D01*
X156513325Y-99501060D01*
X156607334Y-99028446D01*
X156513325Y-98555832D01*
X156245611Y-98155169D01*
X155844948Y-97887455D01*
X155372334Y-97793446D01*
X154508270Y-97793446D01*
X154035656Y-97887455D01*
X153646539Y-98147454D01*
X153304646Y-97919009D01*
X152832032Y-97825000D01*
X151967968Y-97825000D01*
X151495354Y-97919009D01*
X151094691Y-98186723D01*
X150826977Y-98587386D01*
X150732968Y-99060000D01*
X139097412Y-99060000D01*
X139432700Y-99045723D01*
X139872533Y-98863539D01*
X139957591Y-98608196D01*
X139065000Y-97715605D01*
X138172409Y-98608196D01*
X134898644Y-98608196D01*
X134931320Y-98575520D01*
X135285743Y-98045088D01*
X135410201Y-97419400D01*
X135410200Y-97419395D01*
X135410200Y-97297965D01*
X137529484Y-97297965D01*
X137555277Y-97903700D01*
X137737461Y-98343533D01*
X137992804Y-98428591D01*
X138885395Y-97536000D01*
X139244605Y-97536000D01*
X140137196Y-98428591D01*
X140392539Y-98343533D01*
X140600516Y-97774035D01*
X140574723Y-97168300D01*
X140392539Y-96728467D01*
X140137196Y-96643409D01*
X139244605Y-97536000D01*
X138885395Y-97536000D01*
X137992804Y-96643409D01*
X137737461Y-96728467D01*
X137529484Y-97297965D01*
X135410200Y-97297965D01*
X135410200Y-96463804D01*
X138172409Y-96463804D01*
X139065000Y-97356395D01*
X139901395Y-96520000D01*
X150732968Y-96520000D01*
X150826977Y-96992614D01*
X151094691Y-97393277D01*
X151495354Y-97660991D01*
X151967968Y-97755000D01*
X152832032Y-97755000D01*
X153304646Y-97660991D01*
X153693763Y-97400992D01*
X154035656Y-97629437D01*
X154508270Y-97723446D01*
X155372334Y-97723446D01*
X155844948Y-97629437D01*
X156245611Y-97361723D01*
X156513325Y-96961060D01*
X156607334Y-96488446D01*
X156513325Y-96015832D01*
X156245611Y-95615169D01*
X155844948Y-95347455D01*
X155372334Y-95253446D01*
X154508270Y-95253446D01*
X154035656Y-95347455D01*
X153646539Y-95607454D01*
X153304646Y-95379009D01*
X152832032Y-95285000D01*
X151967968Y-95285000D01*
X151495354Y-95379009D01*
X151094691Y-95646723D01*
X150826977Y-96047386D01*
X150732968Y-96520000D01*
X139901395Y-96520000D01*
X139957591Y-96463804D01*
X139872533Y-96208461D01*
X139303035Y-96000484D01*
X138697300Y-96026277D01*
X138257467Y-96208461D01*
X138172409Y-96463804D01*
X135410200Y-96463804D01*
X135410200Y-93980000D01*
X150732968Y-93980000D01*
X150826977Y-94452614D01*
X151094691Y-94853277D01*
X151495354Y-95120991D01*
X151967968Y-95215000D01*
X152832032Y-95215000D01*
X153304646Y-95120991D01*
X153693763Y-94860992D01*
X154035656Y-95089437D01*
X154508270Y-95183446D01*
X155372334Y-95183446D01*
X155844948Y-95089437D01*
X156245611Y-94821723D01*
X156513325Y-94421060D01*
X156607334Y-93948446D01*
X156513325Y-93475832D01*
X156245611Y-93075169D01*
X155844948Y-92807455D01*
X155372334Y-92713446D01*
X154508270Y-92713446D01*
X154035656Y-92807455D01*
X153646539Y-93067454D01*
X153304646Y-92839009D01*
X152832032Y-92745000D01*
X151967968Y-92745000D01*
X151495354Y-92839009D01*
X151094691Y-93106723D01*
X150826977Y-93507386D01*
X150732968Y-93980000D01*
X135410200Y-93980000D01*
X135410200Y-92238605D01*
X135410201Y-92238600D01*
X135285743Y-91612912D01*
X135170208Y-91440000D01*
X150732968Y-91440000D01*
X150826977Y-91912614D01*
X151094691Y-92313277D01*
X151495354Y-92580991D01*
X151967968Y-92675000D01*
X152832032Y-92675000D01*
X153304646Y-92580991D01*
X153693763Y-92320992D01*
X154035656Y-92549437D01*
X154508270Y-92643446D01*
X155372334Y-92643446D01*
X155844948Y-92549437D01*
X156245611Y-92281723D01*
X156513325Y-91881060D01*
X156607334Y-91408446D01*
X156518879Y-90963750D01*
X159131000Y-90963750D01*
X159131000Y-91820310D01*
X159227673Y-92053699D01*
X159406302Y-92232327D01*
X159639691Y-92329000D01*
X159988250Y-92329000D01*
X160147000Y-92170250D01*
X160147000Y-90805000D01*
X159289750Y-90805000D01*
X159131000Y-90963750D01*
X156518879Y-90963750D01*
X156513325Y-90935832D01*
X156245611Y-90535169D01*
X155844948Y-90267455D01*
X155372334Y-90173446D01*
X154508270Y-90173446D01*
X154035656Y-90267455D01*
X153646539Y-90527454D01*
X153304646Y-90299009D01*
X152832032Y-90205000D01*
X151967968Y-90205000D01*
X151495354Y-90299009D01*
X151094691Y-90566723D01*
X150826977Y-90967386D01*
X150732968Y-91440000D01*
X135170208Y-91440000D01*
X134931320Y-91082480D01*
X133096840Y-89248000D01*
X133444839Y-88900000D01*
X150732968Y-88900000D01*
X150826977Y-89372614D01*
X151094691Y-89773277D01*
X151495354Y-90040991D01*
X151967968Y-90135000D01*
X152832032Y-90135000D01*
X153304646Y-90040991D01*
X153693763Y-89780992D01*
X154035656Y-90009437D01*
X154508270Y-90103446D01*
X155372334Y-90103446D01*
X155844948Y-90009437D01*
X156245611Y-89741723D01*
X156383277Y-89535690D01*
X159131000Y-89535690D01*
X159131000Y-90392250D01*
X159289750Y-90551000D01*
X160147000Y-90551000D01*
X160147000Y-89185750D01*
X159988250Y-89027000D01*
X159639691Y-89027000D01*
X159406302Y-89123673D01*
X159227673Y-89302301D01*
X159131000Y-89535690D01*
X156383277Y-89535690D01*
X156513325Y-89341060D01*
X156607334Y-88868446D01*
X156513325Y-88395832D01*
X156245611Y-87995169D01*
X156096820Y-87895750D01*
X159395000Y-87895750D01*
X159395000Y-88486309D01*
X159491673Y-88719698D01*
X159670301Y-88898327D01*
X159903690Y-88995000D01*
X160369250Y-88995000D01*
X160528000Y-88836250D01*
X160528000Y-87737000D01*
X159553750Y-87737000D01*
X159395000Y-87895750D01*
X156096820Y-87895750D01*
X155844948Y-87727455D01*
X155372334Y-87633446D01*
X154508270Y-87633446D01*
X154035656Y-87727455D01*
X153646539Y-87987454D01*
X153304646Y-87759009D01*
X152832032Y-87665000D01*
X151967968Y-87665000D01*
X151495354Y-87759009D01*
X151094691Y-88026723D01*
X150826977Y-88427386D01*
X150732968Y-88900000D01*
X133444839Y-88900000D01*
X135649117Y-86695722D01*
X135649120Y-86695720D01*
X135873440Y-86360000D01*
X150732968Y-86360000D01*
X150826977Y-86832614D01*
X151094691Y-87233277D01*
X151495354Y-87500991D01*
X151967968Y-87595000D01*
X152832032Y-87595000D01*
X153304646Y-87500991D01*
X153693763Y-87240992D01*
X154035656Y-87469437D01*
X154508270Y-87563446D01*
X155372334Y-87563446D01*
X155844948Y-87469437D01*
X156245611Y-87201723D01*
X156513325Y-86801060D01*
X156607334Y-86328446D01*
X156513325Y-85855832D01*
X156245611Y-85455169D01*
X155844948Y-85187455D01*
X155372334Y-85093446D01*
X154508270Y-85093446D01*
X154035656Y-85187455D01*
X153646539Y-85447454D01*
X153304646Y-85219009D01*
X152832032Y-85125000D01*
X151967968Y-85125000D01*
X151495354Y-85219009D01*
X151094691Y-85486723D01*
X150826977Y-85887386D01*
X150732968Y-86360000D01*
X135873440Y-86360000D01*
X136003543Y-86165287D01*
X136033270Y-86015840D01*
X136128001Y-85539600D01*
X136128000Y-85539595D01*
X136128000Y-83820000D01*
X150732968Y-83820000D01*
X150826977Y-84292614D01*
X151094691Y-84693277D01*
X151495354Y-84960991D01*
X151967968Y-85055000D01*
X152832032Y-85055000D01*
X153304646Y-84960991D01*
X153693763Y-84700992D01*
X154035656Y-84929437D01*
X154508270Y-85023446D01*
X155372334Y-85023446D01*
X155844948Y-84929437D01*
X156245611Y-84661723D01*
X156513325Y-84261060D01*
X156607334Y-83788446D01*
X156513325Y-83315832D01*
X156245611Y-82915169D01*
X155844948Y-82647455D01*
X155372334Y-82553446D01*
X154508270Y-82553446D01*
X154035656Y-82647455D01*
X153646539Y-82907454D01*
X153304646Y-82679009D01*
X152832032Y-82585000D01*
X151967968Y-82585000D01*
X151495354Y-82679009D01*
X151094691Y-82946723D01*
X150826977Y-83347386D01*
X150732968Y-83820000D01*
X136128000Y-83820000D01*
X136128000Y-82956405D01*
X136128001Y-82956400D01*
X136003543Y-82330713D01*
X135884984Y-82153277D01*
X135649120Y-81800280D01*
X135649117Y-81800278D01*
X135128840Y-81280000D01*
X150732968Y-81280000D01*
X150826977Y-81752614D01*
X151094691Y-82153277D01*
X151495354Y-82420991D01*
X151967968Y-82515000D01*
X152832032Y-82515000D01*
X153304646Y-82420991D01*
X153693763Y-82160992D01*
X154035656Y-82389437D01*
X154508270Y-82483446D01*
X155372334Y-82483446D01*
X155844948Y-82389437D01*
X156245611Y-82121723D01*
X156513325Y-81721060D01*
X156607334Y-81248446D01*
X156513325Y-80775832D01*
X156245611Y-80375169D01*
X155844948Y-80107455D01*
X155372334Y-80013446D01*
X154508270Y-80013446D01*
X154035656Y-80107455D01*
X153646539Y-80367454D01*
X153304646Y-80139009D01*
X152832032Y-80045000D01*
X151967968Y-80045000D01*
X151495354Y-80139009D01*
X151094691Y-80406723D01*
X150826977Y-80807386D01*
X150732968Y-81280000D01*
X135128840Y-81280000D01*
X132601540Y-78752700D01*
X135424239Y-75930000D01*
X137551954Y-75930000D01*
X137795000Y-75978345D01*
X138426810Y-75852670D01*
X138766792Y-75625501D01*
X138854910Y-75762441D01*
X139067110Y-75907431D01*
X139258399Y-75946168D01*
X138763188Y-75945736D01*
X138202851Y-76177262D01*
X137773769Y-76605596D01*
X137541265Y-77165528D01*
X137540736Y-77771812D01*
X137772262Y-78332149D01*
X138200596Y-78761231D01*
X138760528Y-78993735D01*
X139366812Y-78994264D01*
X139927149Y-78762738D01*
X139949926Y-78740000D01*
X150732968Y-78740000D01*
X150826977Y-79212614D01*
X151094691Y-79613277D01*
X151495354Y-79880991D01*
X151967968Y-79975000D01*
X152832032Y-79975000D01*
X153304646Y-79880991D01*
X153693763Y-79620992D01*
X154035656Y-79849437D01*
X154508270Y-79943446D01*
X155372334Y-79943446D01*
X155844948Y-79849437D01*
X156245611Y-79581723D01*
X156513325Y-79181060D01*
X156607334Y-78708446D01*
X156513325Y-78235832D01*
X156245611Y-77835169D01*
X155844948Y-77567455D01*
X155372334Y-77473446D01*
X154508270Y-77473446D01*
X154035656Y-77567455D01*
X153646539Y-77827454D01*
X153304646Y-77599009D01*
X152832032Y-77505000D01*
X151967968Y-77505000D01*
X151495354Y-77599009D01*
X151094691Y-77866723D01*
X150826977Y-78267386D01*
X150732968Y-78740000D01*
X139949926Y-78740000D01*
X140356231Y-78334404D01*
X140588735Y-77774472D01*
X140589264Y-77168188D01*
X140357738Y-76607851D01*
X139929404Y-76178769D01*
X139398793Y-75958440D01*
X141351000Y-75958440D01*
X141586317Y-75914162D01*
X141802441Y-75775090D01*
X141947431Y-75562890D01*
X141998440Y-75311000D01*
X141998440Y-73279000D01*
X141954162Y-73043683D01*
X141815090Y-72827559D01*
X141656209Y-72719000D01*
X173913191Y-72719000D01*
X173900305Y-77783198D01*
X173624646Y-77599009D01*
X173152032Y-77505000D01*
X172287968Y-77505000D01*
X171815354Y-77599009D01*
X171473763Y-77827252D01*
X171084948Y-77567455D01*
X170612334Y-77473446D01*
X169748270Y-77473446D01*
X169275656Y-77567455D01*
X168874993Y-77835169D01*
X168607279Y-78235832D01*
X168513270Y-78708446D01*
X168607279Y-79181060D01*
X168874993Y-79581723D01*
X169275656Y-79849437D01*
X169748270Y-79943446D01*
X170612334Y-79943446D01*
X171084948Y-79849437D01*
X171426539Y-79621194D01*
X171815354Y-79880991D01*
X172287968Y-79975000D01*
X173152032Y-79975000D01*
X173624646Y-79880991D01*
X173895427Y-79700061D01*
X173893799Y-80339821D01*
X173709947Y-80187610D01*
X173247000Y-80045000D01*
X172847000Y-80045000D01*
X172847000Y-81153000D01*
X172867000Y-81153000D01*
X172867000Y-81407000D01*
X172847000Y-81407000D01*
X172847000Y-82515000D01*
X173247000Y-82515000D01*
X173709947Y-82372390D01*
X173889005Y-82224149D01*
X173887401Y-82854576D01*
X173624646Y-82679009D01*
X173152032Y-82585000D01*
X172287968Y-82585000D01*
X171815354Y-82679009D01*
X171473763Y-82907252D01*
X171084948Y-82647455D01*
X170612334Y-82553446D01*
X169748270Y-82553446D01*
X169275656Y-82647455D01*
X168874993Y-82915169D01*
X168607279Y-83315832D01*
X168513270Y-83788446D01*
X168607279Y-84261060D01*
X168874993Y-84661723D01*
X169275656Y-84929437D01*
X169748270Y-85023446D01*
X170612334Y-85023446D01*
X171084948Y-84929437D01*
X171426539Y-84701194D01*
X171815354Y-84960991D01*
X172287968Y-85055000D01*
X173152032Y-85055000D01*
X173624646Y-84960991D01*
X173882479Y-84788713D01*
X173880948Y-85390264D01*
X173624646Y-85219009D01*
X173152032Y-85125000D01*
X172287968Y-85125000D01*
X171815354Y-85219009D01*
X171473763Y-85447252D01*
X171084948Y-85187455D01*
X170612334Y-85093446D01*
X169748270Y-85093446D01*
X169275656Y-85187455D01*
X168874993Y-85455169D01*
X168607279Y-85855832D01*
X168513270Y-86328446D01*
X168607279Y-86801060D01*
X168874993Y-87201723D01*
X169275656Y-87469437D01*
X169748270Y-87563446D01*
X170612334Y-87563446D01*
X171084948Y-87469437D01*
X171426539Y-87241194D01*
X171815354Y-87500991D01*
X172287968Y-87595000D01*
X173152032Y-87595000D01*
X173624646Y-87500991D01*
X173876005Y-87333039D01*
X173874496Y-87925953D01*
X173624646Y-87759009D01*
X173152032Y-87665000D01*
X172287968Y-87665000D01*
X171815354Y-87759009D01*
X171473763Y-87987252D01*
X171084948Y-87727455D01*
X170612334Y-87633446D01*
X169748270Y-87633446D01*
X169275656Y-87727455D01*
X168874993Y-87995169D01*
X168607279Y-88395832D01*
X168513270Y-88868446D01*
X168607279Y-89341060D01*
X168874993Y-89741723D01*
X169275656Y-90009437D01*
X169748270Y-90103446D01*
X170612334Y-90103446D01*
X171084948Y-90009437D01*
X171426539Y-89781194D01*
X171815354Y-90040991D01*
X172287968Y-90135000D01*
X173152032Y-90135000D01*
X173624646Y-90040991D01*
X173869531Y-89877364D01*
X173868044Y-90461642D01*
X173624646Y-90299009D01*
X173152032Y-90205000D01*
X172287968Y-90205000D01*
X171815354Y-90299009D01*
X171473763Y-90527252D01*
X171084948Y-90267455D01*
X170612334Y-90173446D01*
X169748270Y-90173446D01*
X169275656Y-90267455D01*
X168874993Y-90535169D01*
X168607279Y-90935832D01*
X168513270Y-91408446D01*
X168607279Y-91881060D01*
X168874993Y-92281723D01*
X169275656Y-92549437D01*
X169748270Y-92643446D01*
X170612334Y-92643446D01*
X171084948Y-92549437D01*
X171426539Y-92321194D01*
X171815354Y-92580991D01*
X172287968Y-92675000D01*
X173152032Y-92675000D01*
X173624646Y-92580991D01*
X173863057Y-92421690D01*
X173861592Y-92997331D01*
X173624646Y-92839009D01*
X173152032Y-92745000D01*
X172287968Y-92745000D01*
X171815354Y-92839009D01*
X171473763Y-93067252D01*
X171084948Y-92807455D01*
X170612334Y-92713446D01*
X169748270Y-92713446D01*
X169275656Y-92807455D01*
X168874993Y-93075169D01*
X168607279Y-93475832D01*
X168513270Y-93948446D01*
X168607279Y-94421060D01*
X168874993Y-94821723D01*
X169275656Y-95089437D01*
X169748270Y-95183446D01*
X170612334Y-95183446D01*
X171084948Y-95089437D01*
X171426539Y-94861194D01*
X171815354Y-95120991D01*
X172287968Y-95215000D01*
X173152032Y-95215000D01*
X173624646Y-95120991D01*
X173856583Y-94966016D01*
X173855140Y-95533020D01*
X173624646Y-95379009D01*
X173152032Y-95285000D01*
X172287968Y-95285000D01*
X171815354Y-95379009D01*
X171473763Y-95607252D01*
X171084948Y-95347455D01*
X170612334Y-95253446D01*
X169748270Y-95253446D01*
X169275656Y-95347455D01*
X168874993Y-95615169D01*
X168607279Y-96015832D01*
X168513270Y-96488446D01*
X168607279Y-96961060D01*
X168874993Y-97361723D01*
X169275656Y-97629437D01*
X169748270Y-97723446D01*
X170612334Y-97723446D01*
X171084948Y-97629437D01*
X171426539Y-97401194D01*
X171815354Y-97660991D01*
X172287968Y-97755000D01*
X173152032Y-97755000D01*
X173624646Y-97660991D01*
X173850108Y-97510342D01*
X173848688Y-98068709D01*
X173624646Y-97919009D01*
X173152032Y-97825000D01*
X172287968Y-97825000D01*
X171815354Y-97919009D01*
X171473763Y-98147252D01*
X171084948Y-97887455D01*
X170612334Y-97793446D01*
X169748270Y-97793446D01*
X169275656Y-97887455D01*
X168874993Y-98155169D01*
X168799304Y-98268446D01*
X165036240Y-98268446D01*
X165036240Y-96266000D01*
X164991962Y-96030683D01*
X164852890Y-95814559D01*
X164640690Y-95669569D01*
X164388800Y-95618560D01*
X163320000Y-95618560D01*
X163320000Y-92286427D01*
X163519441Y-92158090D01*
X163664431Y-91945890D01*
X163702543Y-91757686D01*
X163734838Y-91929317D01*
X163873910Y-92145441D01*
X164086110Y-92290431D01*
X164338000Y-92341440D01*
X165354000Y-92341440D01*
X165589317Y-92297162D01*
X165805441Y-92158090D01*
X165950431Y-91945890D01*
X166001440Y-91694000D01*
X166001440Y-89662000D01*
X165957162Y-89426683D01*
X165818090Y-89210559D01*
X165606000Y-89065644D01*
X165606000Y-89007440D01*
X165725000Y-89007440D01*
X165960317Y-88963162D01*
X166176441Y-88824090D01*
X166321431Y-88611890D01*
X166372440Y-88360000D01*
X166372440Y-87287362D01*
X166587402Y-87072400D01*
X166752149Y-86825839D01*
X166810001Y-86534999D01*
X166810001Y-83605001D01*
X166752149Y-83314162D01*
X166752149Y-83314161D01*
X166587402Y-83067600D01*
X166549802Y-83030000D01*
X167542401Y-82037401D01*
X167707148Y-81790839D01*
X167751860Y-81566055D01*
X168586840Y-81566055D01*
X168590710Y-81603727D01*
X168817222Y-82031920D01*
X169190355Y-82340836D01*
X169653302Y-82483446D01*
X170053302Y-82483446D01*
X170053302Y-81375446D01*
X170307302Y-81375446D01*
X170307302Y-82483446D01*
X170707302Y-82483446D01*
X171170249Y-82340836D01*
X171431094Y-82124883D01*
X171730053Y-82372390D01*
X172193000Y-82515000D01*
X172593000Y-82515000D01*
X172593000Y-81407000D01*
X171669681Y-81407000D01*
X171649033Y-81375446D01*
X170307302Y-81375446D01*
X170053302Y-81375446D01*
X168711571Y-81375446D01*
X168586840Y-81566055D01*
X167751860Y-81566055D01*
X167765000Y-81500000D01*
X167765000Y-80930837D01*
X168586840Y-80930837D01*
X168711571Y-81121446D01*
X170053302Y-81121446D01*
X170053302Y-80013446D01*
X170307302Y-80013446D01*
X170307302Y-81121446D01*
X171230621Y-81121446D01*
X171251269Y-81153000D01*
X172593000Y-81153000D01*
X172593000Y-80045000D01*
X172193000Y-80045000D01*
X171730053Y-80187610D01*
X171469208Y-80403563D01*
X171170249Y-80156056D01*
X170707302Y-80013446D01*
X170307302Y-80013446D01*
X170053302Y-80013446D01*
X169653302Y-80013446D01*
X169190355Y-80156056D01*
X168817222Y-80464972D01*
X168590710Y-80893165D01*
X168586840Y-80930837D01*
X167765000Y-80930837D01*
X167765000Y-77228440D01*
X168021000Y-77228440D01*
X168256317Y-77184162D01*
X168472441Y-77045090D01*
X168574198Y-76896163D01*
X168913190Y-77122670D01*
X169545000Y-77248345D01*
X170176810Y-77122670D01*
X170712433Y-76764778D01*
X171070325Y-76229155D01*
X171196000Y-75597345D01*
X171196000Y-75532655D01*
X171070325Y-74900845D01*
X170712433Y-74365222D01*
X170176810Y-74007330D01*
X169545000Y-73881655D01*
X168913190Y-74007330D01*
X168573208Y-74234499D01*
X168485090Y-74097559D01*
X168272890Y-73952569D01*
X168021000Y-73901560D01*
X165989000Y-73901560D01*
X165753683Y-73945838D01*
X165537559Y-74084910D01*
X165392569Y-74297110D01*
X165341560Y-74549000D01*
X165341560Y-76581000D01*
X165385838Y-76816317D01*
X165524910Y-77032441D01*
X165737110Y-77177431D01*
X165989000Y-77228440D01*
X166245000Y-77228440D01*
X166245000Y-78901975D01*
X166084699Y-78741673D01*
X165851310Y-78645000D01*
X165385750Y-78645000D01*
X165227000Y-78803750D01*
X165227000Y-79903000D01*
X165247000Y-79903000D01*
X165247000Y-80157000D01*
X165227000Y-80157000D01*
X165227000Y-80177000D01*
X164973000Y-80177000D01*
X164973000Y-80157000D01*
X163998750Y-80157000D01*
X163840000Y-80315750D01*
X163840000Y-80906309D01*
X163936673Y-81139698D01*
X164077910Y-81280936D01*
X164023559Y-81315910D01*
X163878569Y-81528110D01*
X163827560Y-81780000D01*
X163827560Y-83280000D01*
X163871838Y-83515317D01*
X164010910Y-83731441D01*
X164132526Y-83814538D01*
X164115301Y-83821673D01*
X163936673Y-84000302D01*
X163840000Y-84233691D01*
X163840000Y-84824250D01*
X163998750Y-84983000D01*
X164973000Y-84983000D01*
X164973000Y-84963000D01*
X165227000Y-84963000D01*
X165227000Y-84983000D01*
X165247000Y-84983000D01*
X165247000Y-85237000D01*
X165227000Y-85237000D01*
X165227000Y-85257000D01*
X164973000Y-85257000D01*
X164973000Y-85237000D01*
X163998750Y-85237000D01*
X163840000Y-85395750D01*
X163840000Y-85986309D01*
X163936673Y-86219698D01*
X164077910Y-86360936D01*
X164023559Y-86395910D01*
X163878569Y-86608110D01*
X163827560Y-86860000D01*
X163827560Y-88360000D01*
X163871838Y-88595317D01*
X164010910Y-88811441D01*
X164086000Y-88862748D01*
X164086000Y-89069573D01*
X163886559Y-89197910D01*
X163741569Y-89410110D01*
X163703457Y-89598314D01*
X163671162Y-89426683D01*
X163532090Y-89210559D01*
X163320000Y-89065644D01*
X163320000Y-85725000D01*
X163262148Y-85434161D01*
X163097401Y-85187599D01*
X162462401Y-84552599D01*
X162215839Y-84387852D01*
X161925000Y-84330000D01*
X161921795Y-84330000D01*
X161883162Y-84124683D01*
X161744090Y-83908559D01*
X161622474Y-83825462D01*
X161639699Y-83818327D01*
X161818327Y-83639698D01*
X161915000Y-83406309D01*
X161915000Y-82815750D01*
X161756250Y-82657000D01*
X160782000Y-82657000D01*
X160782000Y-82677000D01*
X160528000Y-82677000D01*
X160528000Y-82657000D01*
X160508000Y-82657000D01*
X160508000Y-82403000D01*
X160528000Y-82403000D01*
X160528000Y-82383000D01*
X160782000Y-82383000D01*
X160782000Y-82403000D01*
X161756250Y-82403000D01*
X161915000Y-82244250D01*
X161915000Y-81653691D01*
X161818327Y-81420302D01*
X161677090Y-81279064D01*
X161731441Y-81244090D01*
X161876431Y-81031890D01*
X161927440Y-80780000D01*
X161927440Y-79280000D01*
X161903674Y-79153691D01*
X163840000Y-79153691D01*
X163840000Y-79744250D01*
X163998750Y-79903000D01*
X164973000Y-79903000D01*
X164973000Y-78803750D01*
X164814250Y-78645000D01*
X164348690Y-78645000D01*
X164115301Y-78741673D01*
X163936673Y-78920302D01*
X163840000Y-79153691D01*
X161903674Y-79153691D01*
X161883162Y-79044683D01*
X161744090Y-78828559D01*
X161531890Y-78683569D01*
X161280000Y-78632560D01*
X160030000Y-78632560D01*
X159794683Y-78676838D01*
X159616377Y-78791575D01*
X158875000Y-78050198D01*
X158875000Y-77228440D01*
X158978600Y-77228440D01*
X159213917Y-77184162D01*
X159430041Y-77045090D01*
X159575031Y-76832890D01*
X159583400Y-76791561D01*
X159595330Y-76809415D01*
X160081511Y-77134271D01*
X160655000Y-77248345D01*
X161228489Y-77134271D01*
X161714670Y-76809415D01*
X161925000Y-76494634D01*
X162135330Y-76809415D01*
X162621511Y-77134271D01*
X163195000Y-77248345D01*
X163768489Y-77134271D01*
X164254670Y-76809415D01*
X164579526Y-76323234D01*
X164693600Y-75749745D01*
X164693600Y-75380255D01*
X164579526Y-74806766D01*
X164254670Y-74320585D01*
X163768489Y-73995729D01*
X163195000Y-73881655D01*
X162621511Y-73995729D01*
X162135330Y-74320585D01*
X161925000Y-74635366D01*
X161714670Y-74320585D01*
X161228489Y-73995729D01*
X160655000Y-73881655D01*
X160081511Y-73995729D01*
X159595330Y-74320585D01*
X159585757Y-74334913D01*
X159581762Y-74313683D01*
X159442690Y-74097559D01*
X159230490Y-73952569D01*
X158978600Y-73901560D01*
X157251400Y-73901560D01*
X157016083Y-73945838D01*
X156799959Y-74084910D01*
X156654969Y-74297110D01*
X156603960Y-74549000D01*
X156603960Y-76581000D01*
X156648238Y-76816317D01*
X156787310Y-77032441D01*
X156999510Y-77177431D01*
X157251400Y-77228440D01*
X157355000Y-77228440D01*
X157355000Y-78365000D01*
X157412852Y-78655839D01*
X157577599Y-78902401D01*
X158733524Y-80058326D01*
X158682852Y-80134161D01*
X158625000Y-80425000D01*
X158625000Y-84715000D01*
X158682852Y-85005839D01*
X158847599Y-85252401D01*
X159242599Y-85647401D01*
X159382560Y-85740920D01*
X159382560Y-85860000D01*
X159426838Y-86095317D01*
X159565910Y-86311441D01*
X159634006Y-86357969D01*
X159491673Y-86500302D01*
X159395000Y-86733691D01*
X159395000Y-87324250D01*
X159553750Y-87483000D01*
X160528000Y-87483000D01*
X160528000Y-87463000D01*
X160782000Y-87463000D01*
X160782000Y-87483000D01*
X160802000Y-87483000D01*
X160802000Y-87737000D01*
X160782000Y-87737000D01*
X160782000Y-88836250D01*
X160940750Y-88995000D01*
X161406310Y-88995000D01*
X161639699Y-88898327D01*
X161800000Y-88738025D01*
X161800000Y-89069573D01*
X161600559Y-89197910D01*
X161455569Y-89410110D01*
X161417000Y-89600569D01*
X161417000Y-89535690D01*
X161320327Y-89302301D01*
X161141698Y-89123673D01*
X160908309Y-89027000D01*
X160559750Y-89027000D01*
X160401000Y-89185750D01*
X160401000Y-90551000D01*
X160421000Y-90551000D01*
X160421000Y-90805000D01*
X160401000Y-90805000D01*
X160401000Y-92170250D01*
X160559750Y-92329000D01*
X160908309Y-92329000D01*
X161141698Y-92232327D01*
X161320327Y-92053699D01*
X161417000Y-91820310D01*
X161417000Y-91760113D01*
X161448838Y-91929317D01*
X161587910Y-92145441D01*
X161800000Y-92290356D01*
X161800000Y-95618560D01*
X160731200Y-95618560D01*
X160495883Y-95662838D01*
X160279759Y-95801910D01*
X160134769Y-96014110D01*
X160083760Y-96266000D01*
X160083760Y-98283297D01*
X159867582Y-98326298D01*
X159621020Y-98491045D01*
X156596763Y-101515302D01*
X156513325Y-101095832D01*
X156245611Y-100695169D01*
X155844948Y-100427455D01*
X155372334Y-100333446D01*
X154508270Y-100333446D01*
X154035656Y-100427455D01*
X153646539Y-100687454D01*
X153304646Y-100459009D01*
X152832032Y-100365000D01*
X151967968Y-100365000D01*
X151495354Y-100459009D01*
X151094691Y-100726723D01*
X150998922Y-100870051D01*
X150859160Y-100897852D01*
X150612599Y-101062599D01*
X147533198Y-104142000D01*
X144018000Y-104142000D01*
X143727161Y-104199852D01*
X143480599Y-104364599D01*
X141321599Y-106523599D01*
X141156852Y-106770161D01*
X141099000Y-107061000D01*
X141099000Y-108280667D01*
X140992327Y-108173808D01*
X140648799Y-108031162D01*
X140276833Y-108030838D01*
X139933057Y-108172883D01*
X139899882Y-108206000D01*
X138557000Y-108206000D01*
X138266161Y-108263852D01*
X138118355Y-108362613D01*
X138071702Y-108343241D01*
X137520715Y-108342760D01*
X137011485Y-108553169D01*
X136621539Y-108942436D01*
X136410241Y-109451298D01*
X136409760Y-110002285D01*
X136420330Y-110027868D01*
X133591320Y-112856878D01*
X133545833Y-112856838D01*
X133202057Y-112998883D01*
X132938808Y-113261673D01*
X132796162Y-113605201D01*
X132795838Y-113977167D01*
X132937883Y-114320943D01*
X133200673Y-114584192D01*
X133544201Y-114726838D01*
X133916167Y-114727162D01*
X134259943Y-114585117D01*
X134523192Y-114322327D01*
X134665838Y-113978799D01*
X134665879Y-113931923D01*
X137494800Y-111103002D01*
X137518298Y-111112759D01*
X138069285Y-111113240D01*
X138578515Y-110902831D01*
X138968461Y-110513564D01*
X139179759Y-110004702D01*
X139180002Y-109726000D01*
X139899537Y-109726000D01*
X139931673Y-109758192D01*
X140275201Y-109900838D01*
X140647167Y-109901162D01*
X140990943Y-109759117D01*
X141099000Y-109651248D01*
X141099000Y-112339474D01*
X140812539Y-112625436D01*
X140601241Y-113134298D01*
X140600760Y-113685285D01*
X140811169Y-114194515D01*
X141099000Y-114482848D01*
X141099000Y-116173420D01*
X140809208Y-116367052D01*
X140487381Y-116848701D01*
X140374370Y-117416844D01*
X140374370Y-119311156D01*
X140487381Y-119879299D01*
X140809208Y-120360948D01*
X141290857Y-120682775D01*
X141859000Y-120795786D01*
X142427143Y-120682775D01*
X142908792Y-120360948D01*
X143129000Y-120031383D01*
X143349208Y-120360948D01*
X143830857Y-120682775D01*
X144399000Y-120795786D01*
X144967143Y-120682775D01*
X145448792Y-120360948D01*
X145674516Y-120023127D01*
X145979011Y-120404024D01*
X146488190Y-120684649D01*
X146582168Y-120705540D01*
X146812000Y-120584214D01*
X146812000Y-118491000D01*
X147066000Y-118491000D01*
X147066000Y-120584214D01*
X147295832Y-120705540D01*
X147389810Y-120684649D01*
X147898989Y-120404024D01*
X148262018Y-119949906D01*
X148423630Y-119391430D01*
X148423630Y-118491000D01*
X147066000Y-118491000D01*
X146812000Y-118491000D01*
X146792000Y-118491000D01*
X146792000Y-118237000D01*
X146812000Y-118237000D01*
X146812000Y-116143786D01*
X147066000Y-116143786D01*
X147066000Y-118237000D01*
X148423630Y-118237000D01*
X148423630Y-117336570D01*
X148262018Y-116778094D01*
X147898989Y-116323976D01*
X147389810Y-116043351D01*
X147295832Y-116022460D01*
X147066000Y-116143786D01*
X146812000Y-116143786D01*
X146582168Y-116022460D01*
X146488190Y-116043351D01*
X145979011Y-116323976D01*
X145674516Y-116704873D01*
X145448792Y-116367052D01*
X144967143Y-116045225D01*
X144399000Y-115932214D01*
X143830857Y-116045225D01*
X143349208Y-116367052D01*
X143129000Y-116696617D01*
X142908792Y-116367052D01*
X142619000Y-116173420D01*
X142619000Y-114648022D01*
X142769515Y-114585831D01*
X143159461Y-114196564D01*
X143370759Y-113687702D01*
X143371240Y-113136715D01*
X143160831Y-112627485D01*
X142771564Y-112237539D01*
X142619000Y-112174189D01*
X142619000Y-107375802D01*
X143100737Y-106894065D01*
X143435019Y-106894065D01*
X143561932Y-107061000D01*
X144653000Y-107061000D01*
X144653000Y-106103420D01*
X144907000Y-106103420D01*
X144907000Y-107061000D01*
X145998068Y-107061000D01*
X146124981Y-106894065D01*
X145937706Y-106510889D01*
X145613373Y-106234580D01*
X145207990Y-106103420D01*
X144907000Y-106103420D01*
X144653000Y-106103420D01*
X144352010Y-106103420D01*
X143946627Y-106234580D01*
X143622294Y-106510889D01*
X143435019Y-106894065D01*
X143100737Y-106894065D01*
X144332802Y-105662000D01*
X147848000Y-105662000D01*
X148138839Y-105604148D01*
X148385401Y-105439401D01*
X151248652Y-102576150D01*
X151495354Y-102740991D01*
X151967968Y-102835000D01*
X152832032Y-102835000D01*
X153304646Y-102740991D01*
X153693763Y-102480992D01*
X154035656Y-102709437D01*
X154508270Y-102803446D01*
X155372334Y-102803446D01*
X155844948Y-102709437D01*
X156245611Y-102441723D01*
X156325990Y-102321427D01*
X156325990Y-103355465D01*
X156245611Y-103235169D01*
X155844948Y-102967455D01*
X155372334Y-102873446D01*
X154508270Y-102873446D01*
X154035656Y-102967455D01*
X153646539Y-103227454D01*
X153304646Y-102999009D01*
X152832032Y-102905000D01*
X151967968Y-102905000D01*
X151495354Y-102999009D01*
X151094691Y-103266723D01*
X150826977Y-103667386D01*
X150732968Y-104140000D01*
X150764861Y-104300337D01*
X149830599Y-105234599D01*
X149665852Y-105481161D01*
X149608000Y-105772000D01*
X149608000Y-107298198D01*
X149472391Y-107162589D01*
X149225829Y-106997842D01*
X148934990Y-106939990D01*
X148000232Y-106939990D01*
X147709392Y-106997842D01*
X147462831Y-107162589D01*
X146188518Y-108436902D01*
X146110156Y-108042949D01*
X145960359Y-107818762D01*
X146124981Y-107481935D01*
X145998068Y-107315000D01*
X144907000Y-107315000D01*
X144907000Y-107335000D01*
X144653000Y-107335000D01*
X144653000Y-107315000D01*
X143561932Y-107315000D01*
X143435019Y-107481935D01*
X143599641Y-107818762D01*
X143449844Y-108042949D01*
X143367285Y-108458000D01*
X143449844Y-108873051D01*
X143596809Y-109093000D01*
X143449844Y-109312949D01*
X143367285Y-109728000D01*
X143449844Y-110143051D01*
X143684951Y-110494914D01*
X144036814Y-110730021D01*
X144451865Y-110812580D01*
X145108135Y-110812580D01*
X145293291Y-110775750D01*
X147940000Y-110775750D01*
X147940000Y-111266310D01*
X148036673Y-111499699D01*
X148215302Y-111678327D01*
X148448691Y-111775000D01*
X148939250Y-111775000D01*
X149098000Y-111616250D01*
X149098000Y-110617000D01*
X148098750Y-110617000D01*
X147940000Y-110775750D01*
X145293291Y-110775750D01*
X145523186Y-110730021D01*
X145875049Y-110494914D01*
X145879669Y-110488000D01*
X145972222Y-110488000D01*
X146263061Y-110430148D01*
X146509623Y-110265401D01*
X147061334Y-109713690D01*
X147940000Y-109713690D01*
X147940000Y-110204250D01*
X148098750Y-110363000D01*
X149098000Y-110363000D01*
X149098000Y-109363750D01*
X148939250Y-109205000D01*
X148448691Y-109205000D01*
X148215302Y-109301673D01*
X148036673Y-109480301D01*
X147940000Y-109713690D01*
X147061334Y-109713690D01*
X148315034Y-108459990D01*
X148620188Y-108459990D01*
X149437974Y-109277776D01*
X149352000Y-109363750D01*
X149352000Y-110363000D01*
X149372000Y-110363000D01*
X149372000Y-110617000D01*
X149352000Y-110617000D01*
X149352000Y-111616250D01*
X149510750Y-111775000D01*
X150001309Y-111775000D01*
X150234698Y-111678327D01*
X150413327Y-111499699D01*
X150510000Y-111266310D01*
X150510000Y-110914433D01*
X150634995Y-111216943D01*
X150996155Y-111578735D01*
X151468276Y-111774777D01*
X151801199Y-111775067D01*
X151767000Y-111946998D01*
X151767000Y-112480453D01*
X151743485Y-112490169D01*
X151353539Y-112879436D01*
X151142241Y-113388298D01*
X151141760Y-113939285D01*
X151352169Y-114448515D01*
X151741436Y-114838461D01*
X151767000Y-114849076D01*
X151767000Y-116173420D01*
X151477208Y-116367052D01*
X151155381Y-116848701D01*
X151042370Y-117416844D01*
X151042370Y-119311156D01*
X151155381Y-119879299D01*
X151477208Y-120360948D01*
X151958857Y-120682775D01*
X152527000Y-120795786D01*
X153095143Y-120682775D01*
X153576792Y-120360948D01*
X153797000Y-120031383D01*
X154017208Y-120360948D01*
X154498857Y-120682775D01*
X155067000Y-120795786D01*
X155635143Y-120682775D01*
X156116792Y-120360948D01*
X156342516Y-120023127D01*
X156647011Y-120404024D01*
X157156190Y-120684649D01*
X157250168Y-120705540D01*
X157480000Y-120584214D01*
X157480000Y-118491000D01*
X157734000Y-118491000D01*
X157734000Y-120584214D01*
X157963832Y-120705540D01*
X158057810Y-120684649D01*
X158566989Y-120404024D01*
X158930018Y-119949906D01*
X159091630Y-119391430D01*
X159091630Y-118491000D01*
X157734000Y-118491000D01*
X157480000Y-118491000D01*
X157460000Y-118491000D01*
X157460000Y-118237000D01*
X157480000Y-118237000D01*
X157480000Y-116143786D01*
X157734000Y-116143786D01*
X157734000Y-118237000D01*
X159091630Y-118237000D01*
X159091630Y-117336570D01*
X158930018Y-116778094D01*
X158566989Y-116323976D01*
X158057810Y-116043351D01*
X157963832Y-116022460D01*
X157734000Y-116143786D01*
X157480000Y-116143786D01*
X157250168Y-116022460D01*
X157156190Y-116043351D01*
X156647011Y-116323976D01*
X156342516Y-116704873D01*
X156116792Y-116367052D01*
X155635143Y-116045225D01*
X155067000Y-115932214D01*
X154498857Y-116045225D01*
X154017208Y-116367052D01*
X153797000Y-116696617D01*
X153576792Y-116367052D01*
X153287000Y-116173420D01*
X153287000Y-114849547D01*
X153310515Y-114839831D01*
X153700461Y-114450564D01*
X153911759Y-113941702D01*
X153912240Y-113390715D01*
X153701831Y-112881485D01*
X153312564Y-112491539D01*
X153287000Y-112480924D01*
X153287000Y-112261800D01*
X153826401Y-111722399D01*
X153991148Y-111475837D01*
X154049000Y-111184998D01*
X154049000Y-109601000D01*
X153991148Y-109310161D01*
X153826401Y-109063599D01*
X153064401Y-108301599D01*
X152817839Y-108136852D01*
X152527000Y-108079000D01*
X152206802Y-108079000D01*
X152042802Y-107915000D01*
X152832032Y-107915000D01*
X153304646Y-107820991D01*
X153693763Y-107560992D01*
X154035656Y-107789437D01*
X154508270Y-107883446D01*
X155372334Y-107883446D01*
X155844948Y-107789437D01*
X156094924Y-107622409D01*
X156325028Y-107776160D01*
X156615868Y-107834012D01*
X162165988Y-107834012D01*
X162456827Y-107776160D01*
X162703389Y-107611413D01*
X163423452Y-106891350D01*
X163525528Y-106933735D01*
X164131812Y-106934264D01*
X164692149Y-106702738D01*
X165009357Y-106386083D01*
X165069673Y-106531698D01*
X165248301Y-106710327D01*
X165481690Y-106807000D01*
X166084250Y-106807000D01*
X166243000Y-106648250D01*
X166243000Y-105537000D01*
X166223000Y-105537000D01*
X166223000Y-105283000D01*
X166243000Y-105283000D01*
X166243000Y-105263000D01*
X166497000Y-105263000D01*
X166497000Y-105283000D01*
X166517000Y-105283000D01*
X166517000Y-105537000D01*
X166497000Y-105537000D01*
X166497000Y-106648250D01*
X166655750Y-106807000D01*
X167258310Y-106807000D01*
X167491699Y-106710327D01*
X167670327Y-106531698D01*
X167767000Y-106298309D01*
X167767000Y-105709946D01*
X168545163Y-106488109D01*
X168513270Y-106648446D01*
X168607279Y-107121060D01*
X168874993Y-107521723D01*
X169275656Y-107789437D01*
X169748270Y-107883446D01*
X170612334Y-107883446D01*
X171084948Y-107789437D01*
X171426539Y-107561194D01*
X171815354Y-107820991D01*
X172287968Y-107915000D01*
X173152032Y-107915000D01*
X173624646Y-107820991D01*
X173824212Y-107687645D01*
X173789804Y-121210000D01*
X125424000Y-121210000D01*
X125424000Y-117416844D01*
X129579370Y-117416844D01*
X129579370Y-119311156D01*
X129692381Y-119879299D01*
X130014208Y-120360948D01*
X130495857Y-120682775D01*
X131064000Y-120795786D01*
X131632143Y-120682775D01*
X132113792Y-120360948D01*
X132334000Y-120031383D01*
X132554208Y-120360948D01*
X133035857Y-120682775D01*
X133604000Y-120795786D01*
X134172143Y-120682775D01*
X134653792Y-120360948D01*
X134879516Y-120023127D01*
X135184011Y-120404024D01*
X135693190Y-120684649D01*
X135787168Y-120705540D01*
X136017000Y-120584214D01*
X136017000Y-118491000D01*
X136271000Y-118491000D01*
X136271000Y-120584214D01*
X136500832Y-120705540D01*
X136594810Y-120684649D01*
X137103989Y-120404024D01*
X137467018Y-119949906D01*
X137628630Y-119391430D01*
X137628630Y-118491000D01*
X136271000Y-118491000D01*
X136017000Y-118491000D01*
X135997000Y-118491000D01*
X135997000Y-118237000D01*
X136017000Y-118237000D01*
X136017000Y-116143786D01*
X136271000Y-116143786D01*
X136271000Y-118237000D01*
X137628630Y-118237000D01*
X137628630Y-117336570D01*
X137467018Y-116778094D01*
X137103989Y-116323976D01*
X136594810Y-116043351D01*
X136500832Y-116022460D01*
X136271000Y-116143786D01*
X136017000Y-116143786D01*
X135787168Y-116022460D01*
X135693190Y-116043351D01*
X135184011Y-116323976D01*
X134879516Y-116704873D01*
X134653792Y-116367052D01*
X134172143Y-116045225D01*
X133604000Y-115932214D01*
X133035857Y-116045225D01*
X132554208Y-116367052D01*
X132334000Y-116696617D01*
X132113792Y-116367052D01*
X131632143Y-116045225D01*
X131064000Y-115932214D01*
X130495857Y-116045225D01*
X130014208Y-116367052D01*
X129692381Y-116848701D01*
X129579370Y-117416844D01*
X125424000Y-117416844D01*
X125424000Y-105788959D01*
X127222589Y-105788959D01*
X127252940Y-105914757D01*
X127564124Y-106469670D01*
X128063977Y-106863258D01*
X128676400Y-107035600D01*
X129667000Y-107035600D01*
X129667000Y-105537000D01*
X127342058Y-105537000D01*
X127222589Y-105788959D01*
X125424000Y-105788959D01*
X125424000Y-105031041D01*
X127222589Y-105031041D01*
X127342058Y-105283000D01*
X129667000Y-105283000D01*
X129667000Y-103784400D01*
X128676400Y-103784400D01*
X128063977Y-103956742D01*
X127564124Y-104350330D01*
X127252940Y-104905243D01*
X127222589Y-105031041D01*
X125424000Y-105031041D01*
X125424000Y-84248000D01*
X127126546Y-84248000D01*
X127250287Y-84870090D01*
X127602673Y-85397473D01*
X128130056Y-85749859D01*
X128752146Y-85873600D01*
X130835854Y-85873600D01*
X131457944Y-85749859D01*
X131985327Y-85397473D01*
X132337713Y-84870090D01*
X132461454Y-84248000D01*
X132337713Y-83625910D01*
X131985327Y-83098527D01*
X131457944Y-82746141D01*
X130835854Y-82622400D01*
X128752146Y-82622400D01*
X128130056Y-82746141D01*
X127602673Y-83098527D01*
X127250287Y-83625910D01*
X127126546Y-84248000D01*
X125424000Y-84248000D01*
X125424000Y-72719000D01*
X128266503Y-72719000D01*
X128130056Y-72746141D01*
M02*
