G04 #@! TF.FileFunction,Legend,Top*
%FSLAX46Y46*%
G04 Gerber Fmt 4.6, Leading zero omitted, Abs format (unit mm)*
G04 Created by KiCad (PCBNEW 4.0.2-stable) date 19-Oct-16 7:33:17 PM*
%MOMM*%
G01*
G04 APERTURE LIST*
%ADD10C,0.100000*%
%ADD11C,0.200000*%
%ADD12C,0.150000*%
G04 APERTURE END LIST*
D10*
X155845808Y-112986381D02*
X155845808Y-111986381D01*
X156179142Y-112700667D01*
X156512475Y-111986381D01*
X156512475Y-112986381D01*
X157369618Y-112938762D02*
X157274380Y-112986381D01*
X157083903Y-112986381D01*
X156988665Y-112938762D01*
X156941046Y-112843524D01*
X156941046Y-112462571D01*
X156988665Y-112367333D01*
X157083903Y-112319714D01*
X157274380Y-112319714D01*
X157369618Y-112367333D01*
X157417237Y-112462571D01*
X157417237Y-112557810D01*
X156941046Y-112653048D01*
X158274380Y-112986381D02*
X158274380Y-112462571D01*
X158226761Y-112367333D01*
X158131523Y-112319714D01*
X157941046Y-112319714D01*
X157845808Y-112367333D01*
X158274380Y-112938762D02*
X158179142Y-112986381D01*
X157941046Y-112986381D01*
X157845808Y-112938762D01*
X157798189Y-112843524D01*
X157798189Y-112748286D01*
X157845808Y-112653048D01*
X157941046Y-112605429D01*
X158179142Y-112605429D01*
X158274380Y-112557810D01*
X158702951Y-112938762D02*
X158798189Y-112986381D01*
X158988665Y-112986381D01*
X159083904Y-112938762D01*
X159131523Y-112843524D01*
X159131523Y-112795905D01*
X159083904Y-112700667D01*
X158988665Y-112653048D01*
X158845808Y-112653048D01*
X158750570Y-112605429D01*
X158702951Y-112510190D01*
X158702951Y-112462571D01*
X158750570Y-112367333D01*
X158845808Y-112319714D01*
X158988665Y-112319714D01*
X159083904Y-112367333D01*
X159988666Y-112319714D02*
X159988666Y-112986381D01*
X159560094Y-112319714D02*
X159560094Y-112843524D01*
X159607713Y-112938762D01*
X159702951Y-112986381D01*
X159845809Y-112986381D01*
X159941047Y-112938762D01*
X159988666Y-112891143D01*
X160464856Y-112986381D02*
X160464856Y-112319714D01*
X160464856Y-112510190D02*
X160512475Y-112414952D01*
X160560094Y-112367333D01*
X160655332Y-112319714D01*
X160750571Y-112319714D01*
X161464857Y-112938762D02*
X161369619Y-112986381D01*
X161179142Y-112986381D01*
X161083904Y-112938762D01*
X161036285Y-112843524D01*
X161036285Y-112462571D01*
X161083904Y-112367333D01*
X161179142Y-112319714D01*
X161369619Y-112319714D01*
X161464857Y-112367333D01*
X161512476Y-112462571D01*
X161512476Y-112557810D01*
X161036285Y-112653048D01*
X163131524Y-112938762D02*
X163036286Y-112986381D01*
X162845809Y-112986381D01*
X162750571Y-112938762D01*
X162702952Y-112891143D01*
X162655333Y-112795905D01*
X162655333Y-112510190D01*
X162702952Y-112414952D01*
X162750571Y-112367333D01*
X162845809Y-112319714D01*
X163036286Y-112319714D01*
X163131524Y-112367333D01*
X163988667Y-112319714D02*
X163988667Y-112986381D01*
X163560095Y-112319714D02*
X163560095Y-112843524D01*
X163607714Y-112938762D01*
X163702952Y-112986381D01*
X163845810Y-112986381D01*
X163941048Y-112938762D01*
X163988667Y-112891143D01*
X164464857Y-112986381D02*
X164464857Y-112319714D01*
X164464857Y-112510190D02*
X164512476Y-112414952D01*
X164560095Y-112367333D01*
X164655333Y-112319714D01*
X164750572Y-112319714D01*
X165083905Y-112986381D02*
X165083905Y-112319714D01*
X165083905Y-112510190D02*
X165131524Y-112414952D01*
X165179143Y-112367333D01*
X165274381Y-112319714D01*
X165369620Y-112319714D01*
X166083906Y-112938762D02*
X165988668Y-112986381D01*
X165798191Y-112986381D01*
X165702953Y-112938762D01*
X165655334Y-112843524D01*
X165655334Y-112462571D01*
X165702953Y-112367333D01*
X165798191Y-112319714D01*
X165988668Y-112319714D01*
X166083906Y-112367333D01*
X166131525Y-112462571D01*
X166131525Y-112557810D01*
X165655334Y-112653048D01*
X166560096Y-112319714D02*
X166560096Y-112986381D01*
X166560096Y-112414952D02*
X166607715Y-112367333D01*
X166702953Y-112319714D01*
X166845811Y-112319714D01*
X166941049Y-112367333D01*
X166988668Y-112462571D01*
X166988668Y-112986381D01*
X167322001Y-112319714D02*
X167702953Y-112319714D01*
X167464858Y-111986381D02*
X167464858Y-112843524D01*
X167512477Y-112938762D01*
X167607715Y-112986381D01*
X167702953Y-112986381D01*
X168798192Y-112605429D02*
X169560097Y-112605429D01*
X170036287Y-112319714D02*
X170798192Y-112605429D01*
X170036287Y-112891143D01*
X158131524Y-114438762D02*
X158036286Y-114486381D01*
X157845809Y-114486381D01*
X157750571Y-114438762D01*
X157702952Y-114391143D01*
X157655333Y-114295905D01*
X157655333Y-114010190D01*
X157702952Y-113914952D01*
X157750571Y-113867333D01*
X157845809Y-113819714D01*
X158036286Y-113819714D01*
X158131524Y-113867333D01*
X158988667Y-113819714D02*
X158988667Y-114486381D01*
X158560095Y-113819714D02*
X158560095Y-114343524D01*
X158607714Y-114438762D01*
X158702952Y-114486381D01*
X158845810Y-114486381D01*
X158941048Y-114438762D01*
X158988667Y-114391143D01*
X159322000Y-113819714D02*
X159702952Y-113819714D01*
X159464857Y-113486381D02*
X159464857Y-114343524D01*
X159512476Y-114438762D01*
X159607714Y-114486381D01*
X159702952Y-114486381D01*
X161226763Y-114438762D02*
X161131525Y-114486381D01*
X160941048Y-114486381D01*
X160845810Y-114438762D01*
X160798191Y-114391143D01*
X160750572Y-114295905D01*
X160750572Y-114010190D01*
X160798191Y-113914952D01*
X160845810Y-113867333D01*
X160941048Y-113819714D01*
X161131525Y-113819714D01*
X161226763Y-113867333D01*
X161798191Y-114486381D02*
X161702953Y-114438762D01*
X161655334Y-114391143D01*
X161607715Y-114295905D01*
X161607715Y-114010190D01*
X161655334Y-113914952D01*
X161702953Y-113867333D01*
X161798191Y-113819714D01*
X161941049Y-113819714D01*
X162036287Y-113867333D01*
X162083906Y-113914952D01*
X162131525Y-114010190D01*
X162131525Y-114295905D01*
X162083906Y-114391143D01*
X162036287Y-114438762D01*
X161941049Y-114486381D01*
X161798191Y-114486381D01*
X162560096Y-113819714D02*
X162560096Y-114486381D01*
X162560096Y-113914952D02*
X162607715Y-113867333D01*
X162702953Y-113819714D01*
X162845811Y-113819714D01*
X162941049Y-113867333D01*
X162988668Y-113962571D01*
X162988668Y-114486381D01*
X163464858Y-113819714D02*
X163464858Y-114486381D01*
X163464858Y-113914952D02*
X163512477Y-113867333D01*
X163607715Y-113819714D01*
X163750573Y-113819714D01*
X163845811Y-113867333D01*
X163893430Y-113962571D01*
X163893430Y-114486381D01*
X164750573Y-114438762D02*
X164655335Y-114486381D01*
X164464858Y-114486381D01*
X164369620Y-114438762D01*
X164322001Y-114343524D01*
X164322001Y-113962571D01*
X164369620Y-113867333D01*
X164464858Y-113819714D01*
X164655335Y-113819714D01*
X164750573Y-113867333D01*
X164798192Y-113962571D01*
X164798192Y-114057810D01*
X164322001Y-114153048D01*
X165655335Y-114438762D02*
X165560097Y-114486381D01*
X165369620Y-114486381D01*
X165274382Y-114438762D01*
X165226763Y-114391143D01*
X165179144Y-114295905D01*
X165179144Y-114010190D01*
X165226763Y-113914952D01*
X165274382Y-113867333D01*
X165369620Y-113819714D01*
X165560097Y-113819714D01*
X165655335Y-113867333D01*
X165941049Y-113819714D02*
X166322001Y-113819714D01*
X166083906Y-113486381D02*
X166083906Y-114343524D01*
X166131525Y-114438762D01*
X166226763Y-114486381D01*
X166322001Y-114486381D01*
X166655335Y-114486381D02*
X166655335Y-113819714D01*
X166655335Y-113486381D02*
X166607716Y-113534000D01*
X166655335Y-113581619D01*
X166702954Y-113534000D01*
X166655335Y-113486381D01*
X166655335Y-113581619D01*
X167274382Y-114486381D02*
X167179144Y-114438762D01*
X167131525Y-114391143D01*
X167083906Y-114295905D01*
X167083906Y-114010190D01*
X167131525Y-113914952D01*
X167179144Y-113867333D01*
X167274382Y-113819714D01*
X167417240Y-113819714D01*
X167512478Y-113867333D01*
X167560097Y-113914952D01*
X167607716Y-114010190D01*
X167607716Y-114295905D01*
X167560097Y-114391143D01*
X167512478Y-114438762D01*
X167417240Y-114486381D01*
X167274382Y-114486381D01*
X168036287Y-113819714D02*
X168036287Y-114486381D01*
X168036287Y-113914952D02*
X168083906Y-113867333D01*
X168179144Y-113819714D01*
X168322002Y-113819714D01*
X168417240Y-113867333D01*
X168464859Y-113962571D01*
X168464859Y-114486381D01*
X168941049Y-114391143D02*
X168988668Y-114438762D01*
X168941049Y-114486381D01*
X168893430Y-114438762D01*
X168941049Y-114391143D01*
X168941049Y-114486381D01*
X168941049Y-114105429D02*
X168893430Y-113534000D01*
X168941049Y-113486381D01*
X168988668Y-113534000D01*
X168941049Y-114105429D01*
X168941049Y-113486381D01*
X136525048Y-79319429D02*
X137286953Y-79319429D01*
X136906001Y-79700381D02*
X136906001Y-78938476D01*
X141970714Y-74239429D02*
X142732619Y-74239429D01*
X142351667Y-74620381D02*
X142351667Y-73858476D01*
X143732619Y-74620381D02*
X143161190Y-74620381D01*
X143446904Y-74620381D02*
X143446904Y-73620381D01*
X143351666Y-73763238D01*
X143256428Y-73858476D01*
X143161190Y-73906095D01*
X144113571Y-73715619D02*
X144161190Y-73668000D01*
X144256428Y-73620381D01*
X144494524Y-73620381D01*
X144589762Y-73668000D01*
X144637381Y-73715619D01*
X144685000Y-73810857D01*
X144685000Y-73906095D01*
X144637381Y-74048952D01*
X144065952Y-74620381D01*
X144685000Y-74620381D01*
X145018333Y-73953714D02*
X145256428Y-74620381D01*
X145494524Y-73953714D01*
X146494524Y-73953714D02*
X146875476Y-73953714D01*
X146637381Y-73620381D02*
X146637381Y-74477524D01*
X146685000Y-74572762D01*
X146780238Y-74620381D01*
X146875476Y-74620381D01*
X147351667Y-74620381D02*
X147256429Y-74572762D01*
X147208810Y-74525143D01*
X147161191Y-74429905D01*
X147161191Y-74144190D01*
X147208810Y-74048952D01*
X147256429Y-74001333D01*
X147351667Y-73953714D01*
X147494525Y-73953714D01*
X147589763Y-74001333D01*
X147637382Y-74048952D01*
X147685001Y-74144190D01*
X147685001Y-74429905D01*
X147637382Y-74525143D01*
X147589763Y-74572762D01*
X147494525Y-74620381D01*
X147351667Y-74620381D01*
X149446906Y-74620381D02*
X149113572Y-74144190D01*
X148875477Y-74620381D02*
X148875477Y-73620381D01*
X149256430Y-73620381D01*
X149351668Y-73668000D01*
X149399287Y-73715619D01*
X149446906Y-73810857D01*
X149446906Y-73953714D01*
X149399287Y-74048952D01*
X149351668Y-74096571D01*
X149256430Y-74144190D01*
X148875477Y-74144190D01*
X149827858Y-74334667D02*
X150304049Y-74334667D01*
X149732620Y-74620381D02*
X150065953Y-73620381D01*
X150399287Y-74620381D01*
X150637382Y-73620381D02*
X150875477Y-74620381D01*
X151065954Y-73906095D01*
X151256430Y-74620381D01*
X151494525Y-73620381D01*
X136271048Y-89733429D02*
X137032953Y-89733429D01*
X136652001Y-90114381D02*
X136652001Y-89352476D01*
X134747048Y-74493429D02*
X135508953Y-74493429D01*
X136271048Y-84399429D02*
X137032953Y-84399429D01*
X136271048Y-95829429D02*
X137032953Y-95829429D01*
X136271048Y-100401429D02*
X137032953Y-100401429D01*
X136652001Y-100782381D02*
X136652001Y-100020476D01*
X136152000Y-106171904D02*
X136104381Y-106267142D01*
X136104381Y-106409999D01*
X136152000Y-106552857D01*
X136247238Y-106648095D01*
X136342476Y-106695714D01*
X136532952Y-106743333D01*
X136675810Y-106743333D01*
X136866286Y-106695714D01*
X136961524Y-106648095D01*
X137056762Y-106552857D01*
X137104381Y-106409999D01*
X137104381Y-106314761D01*
X137056762Y-106171904D01*
X137009143Y-106124285D01*
X136675810Y-106124285D01*
X136675810Y-106314761D01*
X137104381Y-105695714D02*
X136104381Y-105695714D01*
X137104381Y-105124285D01*
X136104381Y-105124285D01*
X137104381Y-104648095D02*
X136104381Y-104648095D01*
X136104381Y-104410000D01*
X136152000Y-104267142D01*
X136247238Y-104171904D01*
X136342476Y-104124285D01*
X136532952Y-104076666D01*
X136675810Y-104076666D01*
X136866286Y-104124285D01*
X136961524Y-104171904D01*
X137056762Y-104267142D01*
X137104381Y-104410000D01*
X137104381Y-104648095D01*
X136469429Y-114037714D02*
X136469429Y-113275809D01*
X136850381Y-113656761D02*
X136088476Y-113656761D01*
X136850381Y-112275809D02*
X136850381Y-112847238D01*
X136850381Y-112561524D02*
X135850381Y-112561524D01*
X135993238Y-112656762D01*
X136088476Y-112752000D01*
X136136095Y-112847238D01*
X135945619Y-111894857D02*
X135898000Y-111847238D01*
X135850381Y-111752000D01*
X135850381Y-111513904D01*
X135898000Y-111418666D01*
X135945619Y-111371047D01*
X136040857Y-111323428D01*
X136136095Y-111323428D01*
X136278952Y-111371047D01*
X136850381Y-111942476D01*
X136850381Y-111323428D01*
X136183714Y-110990095D02*
X136850381Y-110752000D01*
X136183714Y-110513904D01*
X136945619Y-110371047D02*
X136945619Y-109609142D01*
X136850381Y-109371047D02*
X136183714Y-109371047D01*
X135850381Y-109371047D02*
X135898000Y-109418666D01*
X135945619Y-109371047D01*
X135898000Y-109323428D01*
X135850381Y-109371047D01*
X135945619Y-109371047D01*
X136183714Y-108894857D02*
X136850381Y-108894857D01*
X136278952Y-108894857D02*
X136231333Y-108847238D01*
X136183714Y-108752000D01*
X136183714Y-108609142D01*
X136231333Y-108513904D01*
X136326571Y-108466285D01*
X136850381Y-108466285D01*
D11*
X163532420Y-107950000D02*
G75*
G03X163532420Y-107950000I-718420J0D01*
G01*
X161544000Y-108966000D02*
X161544000Y-109220000D01*
X161544000Y-109220000D02*
X161544000Y-108966000D01*
X161544000Y-106934000D02*
X161544000Y-109220000D01*
X164084000Y-106934000D02*
X161544000Y-106934000D01*
X164084000Y-109220000D02*
X164084000Y-106934000D01*
X161544000Y-109220000D02*
X164084000Y-109220000D01*
D10*
X167076809Y-73064714D02*
X167314904Y-73731381D01*
X167553000Y-73064714D01*
X168505381Y-73731381D02*
X168172047Y-73255190D01*
X167933952Y-73731381D02*
X167933952Y-72731381D01*
X168314905Y-72731381D01*
X168410143Y-72779000D01*
X168457762Y-72826619D01*
X168505381Y-72921857D01*
X168505381Y-73064714D01*
X168457762Y-73159952D01*
X168410143Y-73207571D01*
X168314905Y-73255190D01*
X167933952Y-73255190D01*
X169314905Y-73683762D02*
X169219667Y-73731381D01*
X169029190Y-73731381D01*
X168933952Y-73683762D01*
X168886333Y-73588524D01*
X168886333Y-73207571D01*
X168933952Y-73112333D01*
X169029190Y-73064714D01*
X169219667Y-73064714D01*
X169314905Y-73112333D01*
X169362524Y-73207571D01*
X169362524Y-73302810D01*
X168886333Y-73398048D01*
X170219667Y-73064714D02*
X170219667Y-73874238D01*
X170172048Y-73969476D01*
X170124429Y-74017095D01*
X170029190Y-74064714D01*
X169886333Y-74064714D01*
X169791095Y-74017095D01*
X170219667Y-73683762D02*
X170124429Y-73731381D01*
X169933952Y-73731381D01*
X169838714Y-73683762D01*
X169791095Y-73636143D01*
X169743476Y-73540905D01*
X169743476Y-73255190D01*
X169791095Y-73159952D01*
X169838714Y-73112333D01*
X169933952Y-73064714D01*
X170124429Y-73064714D01*
X170219667Y-73112333D01*
X170457762Y-73826619D02*
X171219667Y-73826619D01*
X171457762Y-73207571D02*
X171791096Y-73207571D01*
X171933953Y-73731381D02*
X171457762Y-73731381D01*
X171457762Y-72731381D01*
X171933953Y-72731381D01*
X172362524Y-73731381D02*
X172362524Y-72731381D01*
X172933953Y-73731381D01*
X172933953Y-72731381D01*
X154821619Y-73191714D02*
X155059714Y-73858381D01*
X155297810Y-73191714D01*
X156250191Y-73858381D02*
X155916857Y-73382190D01*
X155678762Y-73858381D02*
X155678762Y-72858381D01*
X156059715Y-72858381D01*
X156154953Y-72906000D01*
X156202572Y-72953619D01*
X156250191Y-73048857D01*
X156250191Y-73191714D01*
X156202572Y-73286952D01*
X156154953Y-73334571D01*
X156059715Y-73382190D01*
X155678762Y-73382190D01*
X157059715Y-73810762D02*
X156964477Y-73858381D01*
X156774000Y-73858381D01*
X156678762Y-73810762D01*
X156631143Y-73715524D01*
X156631143Y-73334571D01*
X156678762Y-73239333D01*
X156774000Y-73191714D01*
X156964477Y-73191714D01*
X157059715Y-73239333D01*
X157107334Y-73334571D01*
X157107334Y-73429810D01*
X156631143Y-73525048D01*
X157964477Y-73191714D02*
X157964477Y-74001238D01*
X157916858Y-74096476D01*
X157869239Y-74144095D01*
X157774000Y-74191714D01*
X157631143Y-74191714D01*
X157535905Y-74144095D01*
X157964477Y-73810762D02*
X157869239Y-73858381D01*
X157678762Y-73858381D01*
X157583524Y-73810762D01*
X157535905Y-73763143D01*
X157488286Y-73667905D01*
X157488286Y-73382190D01*
X157535905Y-73286952D01*
X157583524Y-73239333D01*
X157678762Y-73191714D01*
X157869239Y-73191714D01*
X157964477Y-73239333D01*
X158678762Y-74191714D02*
X158678762Y-72763143D01*
X159393048Y-73858381D02*
X159393048Y-72858381D01*
X159964477Y-73858381D01*
X159964477Y-72858381D01*
X161012096Y-73858381D02*
X160678762Y-73382190D01*
X160440667Y-73858381D02*
X160440667Y-72858381D01*
X160821620Y-72858381D01*
X160916858Y-72906000D01*
X160964477Y-72953619D01*
X161012096Y-73048857D01*
X161012096Y-73191714D01*
X160964477Y-73286952D01*
X160916858Y-73334571D01*
X160821620Y-73382190D01*
X160440667Y-73382190D01*
X161774001Y-73334571D02*
X161440667Y-73334571D01*
X161440667Y-73858381D02*
X161440667Y-72858381D01*
X161916858Y-72858381D01*
X162535905Y-74191714D02*
X162535905Y-72763143D01*
X163107334Y-72858381D02*
X163440667Y-73858381D01*
X163774001Y-72858381D01*
X164678763Y-73763143D02*
X164631144Y-73810762D01*
X164488287Y-73858381D01*
X164393049Y-73858381D01*
X164250191Y-73810762D01*
X164154953Y-73715524D01*
X164107334Y-73620286D01*
X164059715Y-73429810D01*
X164059715Y-73286952D01*
X164107334Y-73096476D01*
X164154953Y-73001238D01*
X164250191Y-72906000D01*
X164393049Y-72858381D01*
X164488287Y-72858381D01*
X164631144Y-72906000D01*
X164678763Y-72953619D01*
X165678763Y-73763143D02*
X165631144Y-73810762D01*
X165488287Y-73858381D01*
X165393049Y-73858381D01*
X165250191Y-73810762D01*
X165154953Y-73715524D01*
X165107334Y-73620286D01*
X165059715Y-73429810D01*
X165059715Y-73286952D01*
X165107334Y-73096476D01*
X165154953Y-73001238D01*
X165250191Y-72906000D01*
X165393049Y-72858381D01*
X165488287Y-72858381D01*
X165631144Y-72906000D01*
X165678763Y-72953619D01*
D12*
X161892100Y-123197460D02*
X170592100Y-123197460D01*
X161892100Y-116792460D02*
X170592100Y-116792460D01*
X170592100Y-116792460D02*
X170592100Y-123197460D01*
X170592100Y-121967460D02*
X161892100Y-121967460D01*
X161892100Y-123197460D02*
X161892100Y-116792460D01*
X174142400Y-115062000D02*
X172974000Y-115062000D01*
X171069000Y-115062000D02*
X172186600Y-115062000D01*
X171043600Y-113792000D02*
X171043600Y-117602000D01*
X171043600Y-117602000D02*
X171323000Y-117602000D01*
X174142400Y-113792000D02*
X174142400Y-117602000D01*
X174142400Y-117602000D02*
X173863000Y-117602000D01*
X174143000Y-112242000D02*
X174143000Y-113792000D01*
X171043000Y-113792000D02*
X171043000Y-112242000D01*
X171043000Y-112242000D02*
X174143000Y-112242000D01*
X171323000Y-117602000D02*
X173863000Y-117602000D01*
X129540000Y-80498000D02*
X132334000Y-80498000D01*
X132334000Y-80498000D02*
X132334000Y-77958000D01*
X132334000Y-77958000D02*
X129540000Y-77958000D01*
X126365000Y-81310800D02*
X123825000Y-81310800D01*
X123825000Y-81310800D02*
X123825000Y-77246800D01*
X123825000Y-77246800D02*
X126365000Y-77246800D01*
X126365000Y-77246800D02*
X126365000Y-81310800D01*
X125349000Y-80904400D02*
X124714000Y-77856400D01*
X125476000Y-80777400D02*
X124841000Y-77729400D01*
X125708570Y-77810028D02*
G75*
G03X124741940Y-77757340I-509430J-452772D01*
G01*
X125628896Y-80752728D02*
G75*
G03X125676660Y-77764960I-1905496J1524728D01*
G01*
X124737156Y-77753589D02*
G75*
G03X124790200Y-80904400I1348444J-1553151D01*
G01*
X124740519Y-80853097D02*
G75*
G03X125666500Y-80711360I407821J431297D01*
G01*
X134112000Y-81260000D02*
X134112000Y-77196000D01*
X136017000Y-77196000D02*
X129540000Y-77196000D01*
X130302000Y-80879000D02*
X130302000Y-80498000D01*
X130302000Y-80879000D02*
X133477000Y-80879000D01*
X133477000Y-80879000D02*
X133477000Y-77577000D01*
X133477000Y-77577000D02*
X130302000Y-77577000D01*
X130302000Y-77577000D02*
X130302000Y-77958000D01*
X129159000Y-76738000D02*
X129159000Y-71658000D01*
X136017000Y-81260000D02*
X129540000Y-81260000D01*
X129540000Y-81260000D02*
X129540000Y-77196000D01*
X136017000Y-72293000D02*
X136017000Y-76230000D01*
X136017000Y-76080000D02*
X136017000Y-82176000D01*
X126746000Y-71658000D02*
X126746000Y-91828000D01*
X123571000Y-71508000D02*
X123571000Y-91828000D01*
X129159000Y-76588000D02*
X129159000Y-91764500D01*
X133794500Y-76293500D02*
X129540000Y-76293500D01*
X124740519Y-75823097D02*
G75*
G03X125666500Y-75681360I407821J431297D01*
G01*
X124737156Y-72723589D02*
G75*
G03X124790200Y-75874400I1348444J-1553151D01*
G01*
X125628896Y-75722728D02*
G75*
G03X125676660Y-72734960I-1905496J1524728D01*
G01*
X125708570Y-72780028D02*
G75*
G03X124741940Y-72727340I-509430J-452772D01*
G01*
X129540000Y-75899800D02*
X129540000Y-72597800D01*
X129540000Y-76280800D02*
X129540000Y-75899800D01*
X129540000Y-72216800D02*
X129540000Y-72597800D01*
X125476000Y-75747400D02*
X124841000Y-72699400D01*
X125349000Y-75874400D02*
X124714000Y-72826400D01*
X126365000Y-72216800D02*
X126365000Y-76280800D01*
X123825000Y-72216800D02*
X126365000Y-72216800D01*
X123825000Y-76280800D02*
X123825000Y-72216800D01*
X126365000Y-76280800D02*
X123825000Y-76280800D01*
X126619000Y-71658000D02*
X128143000Y-71658000D01*
X129159000Y-71658000D02*
X133858000Y-71658000D01*
X128143000Y-71658000D02*
X129159000Y-71658000D01*
X130302000Y-72597800D02*
X130302000Y-72978800D01*
X130302000Y-75899800D02*
X130302000Y-75518800D01*
X133477000Y-75899800D02*
X130302000Y-75899800D01*
X133477000Y-72597800D02*
X133477000Y-75899800D01*
X133477000Y-72597800D02*
X130302000Y-72597800D01*
X134112000Y-72216800D02*
X136017000Y-72216800D01*
X134112000Y-76280800D02*
X134112000Y-72216800D01*
X136017000Y-72216800D02*
X136017000Y-71658000D01*
X129540000Y-72216800D02*
X134112000Y-72216800D01*
X136017000Y-76280800D02*
X134112000Y-76280800D01*
X133604000Y-71150000D02*
X135255000Y-71150000D01*
X133858000Y-71658000D02*
X135001000Y-71658000D01*
X133604000Y-71150000D02*
X133858000Y-71658000D01*
X135001000Y-71658000D02*
X136017000Y-71658000D01*
X135255000Y-71150000D02*
X135001000Y-71658000D01*
X128397000Y-71150000D02*
X128143000Y-71658000D01*
X123571000Y-71150000D02*
X128397000Y-71150000D01*
X123571000Y-71658000D02*
X123571000Y-71150000D01*
X123571000Y-71658000D02*
X126619000Y-71658000D01*
X132334000Y-75518800D02*
X129540000Y-75518800D01*
X129540000Y-75518800D02*
X129540000Y-72978800D01*
X132334000Y-72978800D02*
X129540000Y-72978800D01*
X132334000Y-75518800D02*
X132334000Y-72978800D01*
X132334000Y-90532600D02*
X132334000Y-87992600D01*
X132334000Y-87992600D02*
X129540000Y-87992600D01*
X129540000Y-90532600D02*
X129540000Y-87992600D01*
X132334000Y-90532600D02*
X129540000Y-90532600D01*
X132334000Y-85528800D02*
X132334000Y-82988800D01*
X132334000Y-82988800D02*
X129540000Y-82988800D01*
X129540000Y-85528800D02*
X129540000Y-82988800D01*
X132334000Y-85528800D02*
X129540000Y-85528800D01*
X135001000Y-76293500D02*
X136017000Y-76293500D01*
X133858000Y-76293500D02*
X135001000Y-76293500D01*
X136017000Y-86290800D02*
X134112000Y-86290800D01*
X129540000Y-82226800D02*
X134112000Y-82226800D01*
X136017000Y-86290800D02*
X136017000Y-82226800D01*
X136017000Y-87230600D02*
X134112000Y-87230600D01*
X136017000Y-87230600D02*
X136017000Y-86290800D01*
X129540000Y-91294600D02*
X134112000Y-91294600D01*
X136017000Y-91828000D02*
X136017000Y-91294600D01*
X136017000Y-91294600D02*
X136017000Y-87230600D01*
X134112000Y-86290800D02*
X134112000Y-82226800D01*
X134112000Y-86290800D02*
X129540000Y-86290800D01*
X134112000Y-82226800D02*
X136017000Y-82226800D01*
X134112000Y-87230600D02*
X134112000Y-91294600D01*
X134112000Y-87230600D02*
X129540000Y-87230600D01*
X134112000Y-91294600D02*
X136017000Y-91294600D01*
X133477000Y-82607800D02*
X130302000Y-82607800D01*
X133477000Y-82607800D02*
X133477000Y-85909800D01*
X133477000Y-85909800D02*
X130302000Y-85909800D01*
X133477000Y-87611600D02*
X130302000Y-87611600D01*
X133477000Y-87611600D02*
X133477000Y-90913600D01*
X133477000Y-90913600D02*
X130302000Y-90913600D01*
X130302000Y-90913600D02*
X130302000Y-90532600D01*
X130302000Y-87611600D02*
X130302000Y-87992600D01*
X130302000Y-85909800D02*
X130302000Y-85528800D01*
X130302000Y-82607800D02*
X130302000Y-82988800D01*
X136017000Y-91828000D02*
X129159000Y-91828000D01*
X129159000Y-91828000D02*
X126619000Y-91828000D01*
X126619000Y-91828000D02*
X123571000Y-91828000D01*
X126365000Y-86290800D02*
X123825000Y-86290800D01*
X123825000Y-86290800D02*
X123825000Y-82226800D01*
X123825000Y-82226800D02*
X126365000Y-82226800D01*
X126365000Y-82226800D02*
X126365000Y-86290800D01*
X126365000Y-87230600D02*
X123825000Y-87230600D01*
X126365000Y-87230600D02*
X126365000Y-91294600D01*
X126365000Y-91294600D02*
X123825000Y-91294600D01*
X123825000Y-87230600D02*
X123825000Y-91294600D01*
X125349000Y-85884400D02*
X124714000Y-82836400D01*
X125476000Y-85757400D02*
X124841000Y-82709400D01*
X125349000Y-90888200D02*
X124714000Y-87837660D01*
X125476000Y-90761200D02*
X124841000Y-87713200D01*
X129540000Y-91294600D02*
X129540000Y-90913600D01*
X129540000Y-87230600D02*
X129540000Y-87611600D01*
X129540000Y-87611600D02*
X129540000Y-90913600D01*
X129540000Y-82226800D02*
X129540000Y-82607800D01*
X129540000Y-86290800D02*
X129540000Y-85909800D01*
X129540000Y-85909800D02*
X129540000Y-82607800D01*
X125708570Y-82790028D02*
G75*
G03X124741940Y-82737340I-509430J-452772D01*
G01*
X125628896Y-85732728D02*
G75*
G03X125676660Y-82744960I-1905496J1524728D01*
G01*
X124737156Y-82733589D02*
G75*
G03X124790200Y-85884400I1348444J-1553151D01*
G01*
X124740519Y-85833097D02*
G75*
G03X125666500Y-85691360I407821J431297D01*
G01*
X125711110Y-87793851D02*
G75*
G03X124741940Y-87738600I-511970J-452749D01*
G01*
X125628896Y-90733988D02*
G75*
G03X125676660Y-87746220I-1905496J1524728D01*
G01*
X124732153Y-87731427D02*
G75*
G03X124790200Y-90888200I1353447J-1554033D01*
G01*
X124742981Y-90837520D02*
G75*
G03X125666500Y-90692620I405359J431920D01*
G01*
X129540000Y-101660000D02*
X132334000Y-101660000D01*
X132334000Y-101660000D02*
X132334000Y-99120000D01*
X132334000Y-99120000D02*
X129540000Y-99120000D01*
X126365000Y-102472800D02*
X123825000Y-102472800D01*
X123825000Y-102472800D02*
X123825000Y-98408800D01*
X123825000Y-98408800D02*
X126365000Y-98408800D01*
X126365000Y-98408800D02*
X126365000Y-102472800D01*
X125349000Y-102066400D02*
X124714000Y-99018400D01*
X125476000Y-101939400D02*
X124841000Y-98891400D01*
X125708570Y-98972028D02*
G75*
G03X124741940Y-98919340I-509430J-452772D01*
G01*
X125628896Y-101914728D02*
G75*
G03X125676660Y-98926960I-1905496J1524728D01*
G01*
X124737156Y-98915589D02*
G75*
G03X124790200Y-102066400I1348444J-1553151D01*
G01*
X124740519Y-102015097D02*
G75*
G03X125666500Y-101873360I407821J431297D01*
G01*
X134112000Y-102422000D02*
X134112000Y-98358000D01*
X136017000Y-98358000D02*
X129540000Y-98358000D01*
X130302000Y-102041000D02*
X130302000Y-101660000D01*
X130302000Y-102041000D02*
X133477000Y-102041000D01*
X133477000Y-102041000D02*
X133477000Y-98739000D01*
X133477000Y-98739000D02*
X130302000Y-98739000D01*
X130302000Y-98739000D02*
X130302000Y-99120000D01*
X129159000Y-97900000D02*
X129159000Y-92820000D01*
X136017000Y-102422000D02*
X129540000Y-102422000D01*
X129540000Y-102422000D02*
X129540000Y-98358000D01*
X136017000Y-93455000D02*
X136017000Y-97392000D01*
X136017000Y-97242000D02*
X136017000Y-103338000D01*
X126746000Y-92820000D02*
X126746000Y-112990000D01*
X123571000Y-92670000D02*
X123571000Y-112990000D01*
X129159000Y-97750000D02*
X129159000Y-112926500D01*
X133794500Y-97455500D02*
X129540000Y-97455500D01*
X124740519Y-96985097D02*
G75*
G03X125666500Y-96843360I407821J431297D01*
G01*
X124737156Y-93885589D02*
G75*
G03X124790200Y-97036400I1348444J-1553151D01*
G01*
X125628896Y-96884728D02*
G75*
G03X125676660Y-93896960I-1905496J1524728D01*
G01*
X125708570Y-93942028D02*
G75*
G03X124741940Y-93889340I-509430J-452772D01*
G01*
X129540000Y-97061800D02*
X129540000Y-93759800D01*
X129540000Y-97442800D02*
X129540000Y-97061800D01*
X129540000Y-93378800D02*
X129540000Y-93759800D01*
X125476000Y-96909400D02*
X124841000Y-93861400D01*
X125349000Y-97036400D02*
X124714000Y-93988400D01*
X126365000Y-93378800D02*
X126365000Y-97442800D01*
X123825000Y-93378800D02*
X126365000Y-93378800D01*
X123825000Y-97442800D02*
X123825000Y-93378800D01*
X126365000Y-97442800D02*
X123825000Y-97442800D01*
X126619000Y-92820000D02*
X128143000Y-92820000D01*
X129159000Y-92820000D02*
X133858000Y-92820000D01*
X128143000Y-92820000D02*
X129159000Y-92820000D01*
X130302000Y-93759800D02*
X130302000Y-94140800D01*
X130302000Y-97061800D02*
X130302000Y-96680800D01*
X133477000Y-97061800D02*
X130302000Y-97061800D01*
X133477000Y-93759800D02*
X133477000Y-97061800D01*
X133477000Y-93759800D02*
X130302000Y-93759800D01*
X134112000Y-93378800D02*
X136017000Y-93378800D01*
X134112000Y-97442800D02*
X134112000Y-93378800D01*
X136017000Y-93378800D02*
X136017000Y-92820000D01*
X129540000Y-93378800D02*
X134112000Y-93378800D01*
X136017000Y-97442800D02*
X134112000Y-97442800D01*
X133604000Y-92312000D02*
X135255000Y-92312000D01*
X133858000Y-92820000D02*
X135001000Y-92820000D01*
X133604000Y-92312000D02*
X133858000Y-92820000D01*
X135001000Y-92820000D02*
X136017000Y-92820000D01*
X135255000Y-92312000D02*
X135001000Y-92820000D01*
X128397000Y-92312000D02*
X128143000Y-92820000D01*
X123571000Y-92312000D02*
X128397000Y-92312000D01*
X123571000Y-92820000D02*
X123571000Y-92312000D01*
X123571000Y-92820000D02*
X126619000Y-92820000D01*
X132334000Y-96680800D02*
X129540000Y-96680800D01*
X129540000Y-96680800D02*
X129540000Y-94140800D01*
X132334000Y-94140800D02*
X129540000Y-94140800D01*
X132334000Y-96680800D02*
X132334000Y-94140800D01*
X132334000Y-111694600D02*
X132334000Y-109154600D01*
X132334000Y-109154600D02*
X129540000Y-109154600D01*
X129540000Y-111694600D02*
X129540000Y-109154600D01*
X132334000Y-111694600D02*
X129540000Y-111694600D01*
X132334000Y-106690800D02*
X132334000Y-104150800D01*
X132334000Y-104150800D02*
X129540000Y-104150800D01*
X129540000Y-106690800D02*
X129540000Y-104150800D01*
X132334000Y-106690800D02*
X129540000Y-106690800D01*
X135001000Y-97455500D02*
X136017000Y-97455500D01*
X133858000Y-97455500D02*
X135001000Y-97455500D01*
X136017000Y-107452800D02*
X134112000Y-107452800D01*
X129540000Y-103388800D02*
X134112000Y-103388800D01*
X136017000Y-107452800D02*
X136017000Y-103388800D01*
X136017000Y-108392600D02*
X134112000Y-108392600D01*
X136017000Y-108392600D02*
X136017000Y-107452800D01*
X129540000Y-112456600D02*
X134112000Y-112456600D01*
X136017000Y-112990000D02*
X136017000Y-112456600D01*
X136017000Y-112456600D02*
X136017000Y-108392600D01*
X134112000Y-107452800D02*
X134112000Y-103388800D01*
X134112000Y-107452800D02*
X129540000Y-107452800D01*
X134112000Y-103388800D02*
X136017000Y-103388800D01*
X134112000Y-108392600D02*
X134112000Y-112456600D01*
X134112000Y-108392600D02*
X129540000Y-108392600D01*
X134112000Y-112456600D02*
X136017000Y-112456600D01*
X133477000Y-103769800D02*
X130302000Y-103769800D01*
X133477000Y-103769800D02*
X133477000Y-107071800D01*
X133477000Y-107071800D02*
X130302000Y-107071800D01*
X133477000Y-108773600D02*
X130302000Y-108773600D01*
X133477000Y-108773600D02*
X133477000Y-112075600D01*
X133477000Y-112075600D02*
X130302000Y-112075600D01*
X130302000Y-112075600D02*
X130302000Y-111694600D01*
X130302000Y-108773600D02*
X130302000Y-109154600D01*
X130302000Y-107071800D02*
X130302000Y-106690800D01*
X130302000Y-103769800D02*
X130302000Y-104150800D01*
X136017000Y-112990000D02*
X129159000Y-112990000D01*
X129159000Y-112990000D02*
X126619000Y-112990000D01*
X126619000Y-112990000D02*
X123571000Y-112990000D01*
X126365000Y-107452800D02*
X123825000Y-107452800D01*
X123825000Y-107452800D02*
X123825000Y-103388800D01*
X123825000Y-103388800D02*
X126365000Y-103388800D01*
X126365000Y-103388800D02*
X126365000Y-107452800D01*
X126365000Y-108392600D02*
X123825000Y-108392600D01*
X126365000Y-108392600D02*
X126365000Y-112456600D01*
X126365000Y-112456600D02*
X123825000Y-112456600D01*
X123825000Y-108392600D02*
X123825000Y-112456600D01*
X125349000Y-107046400D02*
X124714000Y-103998400D01*
X125476000Y-106919400D02*
X124841000Y-103871400D01*
X125349000Y-112050200D02*
X124714000Y-108999660D01*
X125476000Y-111923200D02*
X124841000Y-108875200D01*
X129540000Y-112456600D02*
X129540000Y-112075600D01*
X129540000Y-108392600D02*
X129540000Y-108773600D01*
X129540000Y-108773600D02*
X129540000Y-112075600D01*
X129540000Y-103388800D02*
X129540000Y-103769800D01*
X129540000Y-107452800D02*
X129540000Y-107071800D01*
X129540000Y-107071800D02*
X129540000Y-103769800D01*
X125708570Y-103952028D02*
G75*
G03X124741940Y-103899340I-509430J-452772D01*
G01*
X125628896Y-106894728D02*
G75*
G03X125676660Y-103906960I-1905496J1524728D01*
G01*
X124737156Y-103895589D02*
G75*
G03X124790200Y-107046400I1348444J-1553151D01*
G01*
X124740519Y-106995097D02*
G75*
G03X125666500Y-106853360I407821J431297D01*
G01*
X125711110Y-108955851D02*
G75*
G03X124741940Y-108900600I-511970J-452749D01*
G01*
X125628896Y-111895988D02*
G75*
G03X125676660Y-108908220I-1905496J1524728D01*
G01*
X124732153Y-108893427D02*
G75*
G03X124790200Y-112050200I1353447J-1554033D01*
G01*
X124742981Y-111999520D02*
G75*
G03X125666500Y-111854620I405359J431920D01*
G01*
X139065000Y-75565000D02*
X136525000Y-75565000D01*
X141885000Y-75845000D02*
X140335000Y-75845000D01*
X139065000Y-75565000D02*
X139065000Y-73025000D01*
X140335000Y-72745000D02*
X141885000Y-72745000D01*
X141885000Y-72745000D02*
X141885000Y-75845000D01*
X139065000Y-73025000D02*
X136525000Y-73025000D01*
X136525000Y-73025000D02*
X136525000Y-75565000D01*
X160401000Y-116459000D02*
X158496000Y-116459000D01*
X155956000Y-116459000D02*
X156718000Y-116459000D01*
X153543000Y-116459000D02*
X153416000Y-116459000D01*
X153543000Y-116459000D02*
X154178000Y-116459000D01*
X149733000Y-116459000D02*
X151511000Y-116459000D01*
X149733000Y-120142000D02*
X151384000Y-120142000D01*
X154051000Y-120269000D02*
X153416000Y-120269000D01*
X156591000Y-120269000D02*
X155956000Y-120269000D01*
X160401000Y-120142000D02*
X158750000Y-120142000D01*
X153543000Y-115316000D02*
X153543000Y-116459000D01*
X156591000Y-115316000D02*
X156591000Y-116459000D01*
X160401000Y-116459000D02*
X160401000Y-120142000D01*
X149733000Y-120142000D02*
X149733000Y-116459000D01*
X160401000Y-115316000D02*
X160401000Y-116459000D01*
X149733000Y-116459000D02*
X149733000Y-115316000D01*
X155067000Y-115316000D02*
X149733000Y-115316000D01*
X155067000Y-115316000D02*
X160401000Y-115316000D01*
X149733000Y-116459000D02*
X147828000Y-116459000D01*
X145288000Y-116459000D02*
X146050000Y-116459000D01*
X142875000Y-116459000D02*
X142748000Y-116459000D01*
X142875000Y-116459000D02*
X143510000Y-116459000D01*
X139065000Y-116459000D02*
X140843000Y-116459000D01*
X139065000Y-120142000D02*
X140716000Y-120142000D01*
X143383000Y-120269000D02*
X142748000Y-120269000D01*
X145923000Y-120269000D02*
X145288000Y-120269000D01*
X149733000Y-120142000D02*
X148082000Y-120142000D01*
X142875000Y-115316000D02*
X142875000Y-116459000D01*
X145923000Y-115316000D02*
X145923000Y-116459000D01*
X149733000Y-116459000D02*
X149733000Y-120142000D01*
X139065000Y-120142000D02*
X139065000Y-116459000D01*
X149733000Y-115316000D02*
X149733000Y-116459000D01*
X139065000Y-116459000D02*
X139065000Y-115316000D01*
X144399000Y-115316000D02*
X139065000Y-115316000D01*
X144399000Y-115316000D02*
X149733000Y-115316000D01*
X138938000Y-116459000D02*
X137033000Y-116459000D01*
X134493000Y-116459000D02*
X135255000Y-116459000D01*
X132080000Y-116459000D02*
X131953000Y-116459000D01*
X132080000Y-116459000D02*
X132715000Y-116459000D01*
X128270000Y-116459000D02*
X130048000Y-116459000D01*
X128270000Y-120142000D02*
X129921000Y-120142000D01*
X132588000Y-120269000D02*
X131953000Y-120269000D01*
X135128000Y-120269000D02*
X134493000Y-120269000D01*
X138938000Y-120142000D02*
X137287000Y-120142000D01*
X132080000Y-115316000D02*
X132080000Y-116459000D01*
X135128000Y-115316000D02*
X135128000Y-116459000D01*
X138938000Y-116459000D02*
X138938000Y-120142000D01*
X128270000Y-120142000D02*
X128270000Y-116459000D01*
X138938000Y-115316000D02*
X138938000Y-116459000D01*
X128270000Y-116459000D02*
X128270000Y-115316000D01*
X133604000Y-115316000D02*
X128270000Y-115316000D01*
X133604000Y-115316000D02*
X138938000Y-115316000D01*
X148415000Y-92250000D02*
X148415000Y-92450000D01*
X148415000Y-98250000D02*
X148415000Y-98050000D01*
X142415000Y-98250000D02*
X142415000Y-98050000D01*
X142415000Y-92250000D02*
X142415000Y-92450000D01*
X142415000Y-94050000D02*
X142415000Y-96450000D01*
X148415000Y-94050000D02*
X148415000Y-96450000D01*
X148415000Y-92250000D02*
X142415000Y-92250000D01*
X142415000Y-98250000D02*
X148415000Y-98250000D01*
X147115000Y-95250000D02*
G75*
G03X147115000Y-95250000I-1700000J0D01*
G01*
X148415000Y-85265000D02*
X148415000Y-85465000D01*
X148415000Y-91265000D02*
X148415000Y-91065000D01*
X142415000Y-91265000D02*
X142415000Y-91065000D01*
X142415000Y-85265000D02*
X142415000Y-85465000D01*
X142415000Y-87065000D02*
X142415000Y-89465000D01*
X148415000Y-87065000D02*
X148415000Y-89465000D01*
X148415000Y-85265000D02*
X142415000Y-85265000D01*
X142415000Y-91265000D02*
X148415000Y-91265000D01*
X147115000Y-88265000D02*
G75*
G03X147115000Y-88265000I-1700000J0D01*
G01*
X148415000Y-99235000D02*
X148415000Y-99435000D01*
X148415000Y-105235000D02*
X148415000Y-105035000D01*
X142415000Y-105235000D02*
X142415000Y-105035000D01*
X142415000Y-99235000D02*
X142415000Y-99435000D01*
X142415000Y-101035000D02*
X142415000Y-103435000D01*
X148415000Y-101035000D02*
X148415000Y-103435000D01*
X148415000Y-99235000D02*
X142415000Y-99235000D01*
X142415000Y-105235000D02*
X148415000Y-105235000D01*
X147115000Y-102235000D02*
G75*
G03X147115000Y-102235000I-1700000J0D01*
G01*
X148415000Y-78280000D02*
X148415000Y-78480000D01*
X148415000Y-84280000D02*
X148415000Y-84080000D01*
X142415000Y-84280000D02*
X142415000Y-84080000D01*
X142415000Y-78280000D02*
X142415000Y-78480000D01*
X142415000Y-80080000D02*
X142415000Y-82480000D01*
X148415000Y-80080000D02*
X148415000Y-82480000D01*
X148415000Y-78280000D02*
X142415000Y-78280000D01*
X142415000Y-84280000D02*
X148415000Y-84280000D01*
X147115000Y-81280000D02*
G75*
G03X147115000Y-81280000I-1700000J0D01*
G01*
X143080000Y-106758000D02*
X143080000Y-110158000D01*
X143082944Y-106760944D02*
G75*
G02X147180000Y-108458000I1697056J-1697056D01*
G01*
X143082944Y-110155056D02*
G75*
G03X147180000Y-108458000I1697056J1697056D01*
G01*
X168275000Y-74295000D02*
X170815000Y-74295000D01*
X165455000Y-74015000D02*
X167005000Y-74015000D01*
X168275000Y-74295000D02*
X168275000Y-76835000D01*
X167005000Y-77115000D02*
X165455000Y-77115000D01*
X165455000Y-77115000D02*
X165455000Y-74015000D01*
X168275000Y-76835000D02*
X170815000Y-76835000D01*
X170815000Y-76835000D02*
X170815000Y-74295000D01*
X159385000Y-76835000D02*
X164465000Y-76835000D01*
X164465000Y-76835000D02*
X164465000Y-74295000D01*
X164465000Y-74295000D02*
X159385000Y-74295000D01*
X156565000Y-74015000D02*
X158115000Y-74015000D01*
X159385000Y-74295000D02*
X159385000Y-76835000D01*
X158115000Y-77115000D02*
X156565000Y-77115000D01*
X156565000Y-77115000D02*
X156565000Y-74015000D01*
X140857000Y-108296000D02*
X140857000Y-107096000D01*
X142607000Y-107096000D02*
X142607000Y-108296000D01*
X150550000Y-107991000D02*
X150550000Y-112989000D01*
X150690000Y-107999000D02*
X150690000Y-112981000D01*
X150830000Y-108015000D02*
X150830000Y-110395000D01*
X150830000Y-110585000D02*
X150830000Y-112965000D01*
X150970000Y-108039000D02*
X150970000Y-110000000D01*
X150970000Y-110980000D02*
X150970000Y-112941000D01*
X151110000Y-108072000D02*
X151110000Y-109833000D01*
X151110000Y-111147000D02*
X151110000Y-112908000D01*
X151250000Y-108113000D02*
X151250000Y-109726000D01*
X151250000Y-111254000D02*
X151250000Y-112867000D01*
X151390000Y-108163000D02*
X151390000Y-109655000D01*
X151390000Y-111325000D02*
X151390000Y-112817000D01*
X151530000Y-108224000D02*
X151530000Y-109611000D01*
X151530000Y-111369000D02*
X151530000Y-112756000D01*
X151670000Y-108294000D02*
X151670000Y-109592000D01*
X151670000Y-111388000D02*
X151670000Y-112686000D01*
X151810000Y-108376000D02*
X151810000Y-109594000D01*
X151810000Y-111386000D02*
X151810000Y-112604000D01*
X151950000Y-108471000D02*
X151950000Y-109619000D01*
X151950000Y-111361000D02*
X151950000Y-112509000D01*
X152090000Y-108582000D02*
X152090000Y-109667000D01*
X152090000Y-111313000D02*
X152090000Y-112398000D01*
X152230000Y-108710000D02*
X152230000Y-109745000D01*
X152230000Y-111235000D02*
X152230000Y-112270000D01*
X152370000Y-108859000D02*
X152370000Y-109862000D01*
X152370000Y-111118000D02*
X152370000Y-112121000D01*
X152510000Y-109038000D02*
X152510000Y-110050000D01*
X152510000Y-110930000D02*
X152510000Y-111942000D01*
X152650000Y-109257000D02*
X152650000Y-111723000D01*
X152790000Y-109546000D02*
X152790000Y-111434000D01*
X152930000Y-110018000D02*
X152930000Y-110962000D01*
X152625000Y-110490000D02*
G75*
G03X152625000Y-110490000I-900000J0D01*
G01*
X153012500Y-110490000D02*
G75*
G03X153012500Y-110490000I-2537500J0D01*
G01*
X171450000Y-77597000D02*
X171450000Y-110744000D01*
X153797000Y-110744000D02*
X153670000Y-77597000D01*
X171450000Y-110744000D02*
X153797000Y-110744000D01*
X153670000Y-77597000D02*
X171450000Y-77597000D01*
X165028715Y-115382381D02*
X164552524Y-115382381D01*
X164504905Y-115858571D01*
X164552524Y-115810952D01*
X164647762Y-115763333D01*
X164885858Y-115763333D01*
X164981096Y-115810952D01*
X165028715Y-115858571D01*
X165076334Y-115953810D01*
X165076334Y-116191905D01*
X165028715Y-116287143D01*
X164981096Y-116334762D01*
X164885858Y-116382381D01*
X164647762Y-116382381D01*
X164552524Y-116334762D01*
X164504905Y-116287143D01*
X165409667Y-115715714D02*
X165647762Y-116382381D01*
X165885858Y-115715714D01*
X166028715Y-116477619D02*
X166790620Y-116477619D01*
X167028715Y-116382381D02*
X167028715Y-115715714D01*
X167028715Y-115382381D02*
X166981096Y-115430000D01*
X167028715Y-115477619D01*
X167076334Y-115430000D01*
X167028715Y-115382381D01*
X167028715Y-115477619D01*
X167504905Y-115715714D02*
X167504905Y-116382381D01*
X167504905Y-115810952D02*
X167552524Y-115763333D01*
X167647762Y-115715714D01*
X167790620Y-115715714D01*
X167885858Y-115763333D01*
X167933477Y-115858571D01*
X167933477Y-116382381D01*
X159194667Y-76176381D02*
X158861333Y-75700190D01*
X158623238Y-76176381D02*
X158623238Y-75176381D01*
X159004191Y-75176381D01*
X159099429Y-75224000D01*
X159147048Y-75271619D01*
X159194667Y-75366857D01*
X159194667Y-75509714D01*
X159147048Y-75604952D01*
X159099429Y-75652571D01*
X159004191Y-75700190D01*
X158623238Y-75700190D01*
X159623238Y-75652571D02*
X159956572Y-75652571D01*
X160099429Y-76176381D02*
X159623238Y-76176381D01*
X159623238Y-75176381D01*
X160099429Y-75176381D01*
X160861334Y-75652571D02*
X160528000Y-75652571D01*
X160528000Y-76176381D02*
X160528000Y-75176381D01*
X161004191Y-75176381D01*
X161528000Y-75176381D02*
X161528000Y-75414476D01*
X161289905Y-75319238D02*
X161528000Y-75414476D01*
X161766096Y-75319238D01*
X161385143Y-75604952D02*
X161528000Y-75414476D01*
X161670858Y-75604952D01*
X162289905Y-75176381D02*
X162289905Y-75414476D01*
X162051810Y-75319238D02*
X162289905Y-75414476D01*
X162528001Y-75319238D01*
X162147048Y-75604952D02*
X162289905Y-75414476D01*
X162432763Y-75604952D01*
X128341381Y-82399095D02*
X127341381Y-82399095D01*
X127341381Y-82018142D01*
X127389000Y-81922904D01*
X127436619Y-81875285D01*
X127531857Y-81827666D01*
X127674714Y-81827666D01*
X127769952Y-81875285D01*
X127817571Y-81922904D01*
X127865190Y-82018142D01*
X127865190Y-82399095D01*
X127436619Y-81446714D02*
X127389000Y-81399095D01*
X127341381Y-81303857D01*
X127341381Y-81065761D01*
X127389000Y-80970523D01*
X127436619Y-80922904D01*
X127531857Y-80875285D01*
X127627095Y-80875285D01*
X127769952Y-80922904D01*
X128341381Y-81494333D01*
X128341381Y-80875285D01*
X128595381Y-103862095D02*
X127595381Y-103862095D01*
X127595381Y-103481142D01*
X127643000Y-103385904D01*
X127690619Y-103338285D01*
X127785857Y-103290666D01*
X127928714Y-103290666D01*
X128023952Y-103338285D01*
X128071571Y-103385904D01*
X128119190Y-103481142D01*
X128119190Y-103862095D01*
X128595381Y-102338285D02*
X128595381Y-102909714D01*
X128595381Y-102624000D02*
X127595381Y-102624000D01*
X127738238Y-102719238D01*
X127833476Y-102814476D01*
X127881095Y-102909714D01*
X143184667Y-74890381D02*
X143184667Y-75604667D01*
X143137047Y-75747524D01*
X143041809Y-75842762D01*
X142898952Y-75890381D01*
X142803714Y-75890381D01*
X143660857Y-75890381D02*
X143660857Y-74890381D01*
X144041810Y-74890381D01*
X144137048Y-74938000D01*
X144184667Y-74985619D01*
X144232286Y-75080857D01*
X144232286Y-75223714D01*
X144184667Y-75318952D01*
X144137048Y-75366571D01*
X144041810Y-75414190D01*
X143660857Y-75414190D01*
X144565619Y-74890381D02*
X145184667Y-74890381D01*
X144851333Y-75271333D01*
X144994191Y-75271333D01*
X145089429Y-75318952D01*
X145137048Y-75366571D01*
X145184667Y-75461810D01*
X145184667Y-75699905D01*
X145137048Y-75795143D01*
X145089429Y-75842762D01*
X144994191Y-75890381D01*
X144708476Y-75890381D01*
X144613238Y-75842762D01*
X144565619Y-75795143D01*
X160059619Y-118332238D02*
X160012000Y-118427476D01*
X159916762Y-118522714D01*
X159773905Y-118665571D01*
X159726286Y-118760810D01*
X159726286Y-118856048D01*
X159964381Y-118808429D02*
X159916762Y-118903667D01*
X159821524Y-118998905D01*
X159631048Y-119046524D01*
X159297714Y-119046524D01*
X159107238Y-118998905D01*
X159012000Y-118903667D01*
X158964381Y-118808429D01*
X158964381Y-118617952D01*
X159012000Y-118522714D01*
X159107238Y-118427476D01*
X159297714Y-118379857D01*
X159631048Y-118379857D01*
X159821524Y-118427476D01*
X159916762Y-118522714D01*
X159964381Y-118617952D01*
X159964381Y-118808429D01*
X158964381Y-118046524D02*
X158964381Y-117427476D01*
X159345333Y-117760810D01*
X159345333Y-117617952D01*
X159392952Y-117522714D01*
X159440571Y-117475095D01*
X159535810Y-117427476D01*
X159773905Y-117427476D01*
X159869143Y-117475095D01*
X159916762Y-117522714D01*
X159964381Y-117617952D01*
X159964381Y-117903667D01*
X159916762Y-117998905D01*
X159869143Y-118046524D01*
X149391619Y-118205238D02*
X149344000Y-118300476D01*
X149248762Y-118395714D01*
X149105905Y-118538571D01*
X149058286Y-118633810D01*
X149058286Y-118729048D01*
X149296381Y-118681429D02*
X149248762Y-118776667D01*
X149153524Y-118871905D01*
X148963048Y-118919524D01*
X148629714Y-118919524D01*
X148439238Y-118871905D01*
X148344000Y-118776667D01*
X148296381Y-118681429D01*
X148296381Y-118490952D01*
X148344000Y-118395714D01*
X148439238Y-118300476D01*
X148629714Y-118252857D01*
X148963048Y-118252857D01*
X149153524Y-118300476D01*
X149248762Y-118395714D01*
X149296381Y-118490952D01*
X149296381Y-118681429D01*
X148391619Y-117871905D02*
X148344000Y-117824286D01*
X148296381Y-117729048D01*
X148296381Y-117490952D01*
X148344000Y-117395714D01*
X148391619Y-117348095D01*
X148486857Y-117300476D01*
X148582095Y-117300476D01*
X148724952Y-117348095D01*
X149296381Y-117919524D01*
X149296381Y-117300476D01*
X138596619Y-118332238D02*
X138549000Y-118427476D01*
X138453762Y-118522714D01*
X138310905Y-118665571D01*
X138263286Y-118760810D01*
X138263286Y-118856048D01*
X138501381Y-118808429D02*
X138453762Y-118903667D01*
X138358524Y-118998905D01*
X138168048Y-119046524D01*
X137834714Y-119046524D01*
X137644238Y-118998905D01*
X137549000Y-118903667D01*
X137501381Y-118808429D01*
X137501381Y-118617952D01*
X137549000Y-118522714D01*
X137644238Y-118427476D01*
X137834714Y-118379857D01*
X138168048Y-118379857D01*
X138358524Y-118427476D01*
X138453762Y-118522714D01*
X138501381Y-118617952D01*
X138501381Y-118808429D01*
X138501381Y-117427476D02*
X138501381Y-117998905D01*
X138501381Y-117713191D02*
X137501381Y-117713191D01*
X137644238Y-117808429D01*
X137739476Y-117903667D01*
X137787095Y-117998905D01*
X144081667Y-95654762D02*
X144224524Y-95702381D01*
X144462620Y-95702381D01*
X144557858Y-95654762D01*
X144605477Y-95607143D01*
X144653096Y-95511905D01*
X144653096Y-95416667D01*
X144605477Y-95321429D01*
X144557858Y-95273810D01*
X144462620Y-95226190D01*
X144272143Y-95178571D01*
X144176905Y-95130952D01*
X144129286Y-95083333D01*
X144081667Y-94988095D01*
X144081667Y-94892857D01*
X144129286Y-94797619D01*
X144176905Y-94750000D01*
X144272143Y-94702381D01*
X144510239Y-94702381D01*
X144653096Y-94750000D01*
X144986429Y-94702381D02*
X145224524Y-95702381D01*
X145415001Y-94988095D01*
X145605477Y-95702381D01*
X145843572Y-94702381D01*
X146653096Y-95035714D02*
X146653096Y-95702381D01*
X146415000Y-94654762D02*
X146176905Y-95369048D01*
X146795953Y-95369048D01*
X144081667Y-88669762D02*
X144224524Y-88717381D01*
X144462620Y-88717381D01*
X144557858Y-88669762D01*
X144605477Y-88622143D01*
X144653096Y-88526905D01*
X144653096Y-88431667D01*
X144605477Y-88336429D01*
X144557858Y-88288810D01*
X144462620Y-88241190D01*
X144272143Y-88193571D01*
X144176905Y-88145952D01*
X144129286Y-88098333D01*
X144081667Y-88003095D01*
X144081667Y-87907857D01*
X144129286Y-87812619D01*
X144176905Y-87765000D01*
X144272143Y-87717381D01*
X144510239Y-87717381D01*
X144653096Y-87765000D01*
X144986429Y-87717381D02*
X145224524Y-88717381D01*
X145415001Y-88003095D01*
X145605477Y-88717381D01*
X145843572Y-87717381D01*
X146129286Y-87717381D02*
X146748334Y-87717381D01*
X146415000Y-88098333D01*
X146557858Y-88098333D01*
X146653096Y-88145952D01*
X146700715Y-88193571D01*
X146748334Y-88288810D01*
X146748334Y-88526905D01*
X146700715Y-88622143D01*
X146653096Y-88669762D01*
X146557858Y-88717381D01*
X146272143Y-88717381D01*
X146176905Y-88669762D01*
X146129286Y-88622143D01*
X144081667Y-102512762D02*
X144224524Y-102560381D01*
X144462620Y-102560381D01*
X144557858Y-102512762D01*
X144605477Y-102465143D01*
X144653096Y-102369905D01*
X144653096Y-102274667D01*
X144605477Y-102179429D01*
X144557858Y-102131810D01*
X144462620Y-102084190D01*
X144272143Y-102036571D01*
X144176905Y-101988952D01*
X144129286Y-101941333D01*
X144081667Y-101846095D01*
X144081667Y-101750857D01*
X144129286Y-101655619D01*
X144176905Y-101608000D01*
X144272143Y-101560381D01*
X144510239Y-101560381D01*
X144653096Y-101608000D01*
X144986429Y-101560381D02*
X145224524Y-102560381D01*
X145415001Y-101846095D01*
X145605477Y-102560381D01*
X145843572Y-101560381D01*
X146176905Y-101655619D02*
X146224524Y-101608000D01*
X146319762Y-101560381D01*
X146557858Y-101560381D01*
X146653096Y-101608000D01*
X146700715Y-101655619D01*
X146748334Y-101750857D01*
X146748334Y-101846095D01*
X146700715Y-101988952D01*
X146129286Y-102560381D01*
X146748334Y-102560381D01*
X144081667Y-81557762D02*
X144224524Y-81605381D01*
X144462620Y-81605381D01*
X144557858Y-81557762D01*
X144605477Y-81510143D01*
X144653096Y-81414905D01*
X144653096Y-81319667D01*
X144605477Y-81224429D01*
X144557858Y-81176810D01*
X144462620Y-81129190D01*
X144272143Y-81081571D01*
X144176905Y-81033952D01*
X144129286Y-80986333D01*
X144081667Y-80891095D01*
X144081667Y-80795857D01*
X144129286Y-80700619D01*
X144176905Y-80653000D01*
X144272143Y-80605381D01*
X144510239Y-80605381D01*
X144653096Y-80653000D01*
X144986429Y-80605381D02*
X145224524Y-81605381D01*
X145415001Y-80891095D01*
X145605477Y-81605381D01*
X145843572Y-80605381D01*
X146748334Y-81605381D02*
X146176905Y-81605381D01*
X146462619Y-81605381D02*
X146462619Y-80605381D01*
X146367381Y-80748238D01*
X146272143Y-80843476D01*
X146176905Y-80891095D01*
D10*
X146792905Y-110807191D02*
X145992905Y-110807191D01*
X145992905Y-110616715D01*
X146031000Y-110502429D01*
X146107190Y-110426238D01*
X146183381Y-110388143D01*
X146335762Y-110350048D01*
X146450048Y-110350048D01*
X146602429Y-110388143D01*
X146678619Y-110426238D01*
X146754810Y-110502429D01*
X146792905Y-110616715D01*
X146792905Y-110807191D01*
X146754810Y-110045286D02*
X146792905Y-109931000D01*
X146792905Y-109740524D01*
X146754810Y-109664334D01*
X146716714Y-109626238D01*
X146640524Y-109588143D01*
X146564333Y-109588143D01*
X146488143Y-109626238D01*
X146450048Y-109664334D01*
X146411952Y-109740524D01*
X146373857Y-109892905D01*
X146335762Y-109969096D01*
X146297667Y-110007191D01*
X146221476Y-110045286D01*
X146145286Y-110045286D01*
X146069095Y-110007191D01*
X146031000Y-109969096D01*
X145992905Y-109892905D01*
X145992905Y-109702429D01*
X146031000Y-109588143D01*
X146792905Y-108826238D02*
X146792905Y-109283381D01*
X146792905Y-109054810D02*
X145992905Y-109054810D01*
X146107190Y-109131000D01*
X146183381Y-109207191D01*
X146221476Y-109283381D01*
X146335762Y-108369095D02*
X146297667Y-108445286D01*
X146259571Y-108483381D01*
X146183381Y-108521476D01*
X146145286Y-108521476D01*
X146069095Y-108483381D01*
X146031000Y-108445286D01*
X145992905Y-108369095D01*
X145992905Y-108216714D01*
X146031000Y-108140524D01*
X146069095Y-108102428D01*
X146145286Y-108064333D01*
X146183381Y-108064333D01*
X146259571Y-108102428D01*
X146297667Y-108140524D01*
X146335762Y-108216714D01*
X146335762Y-108369095D01*
X146373857Y-108445286D01*
X146411952Y-108483381D01*
X146488143Y-108521476D01*
X146640524Y-108521476D01*
X146716714Y-108483381D01*
X146754810Y-108445286D01*
X146792905Y-108369095D01*
X146792905Y-108216714D01*
X146754810Y-108140524D01*
X146716714Y-108102428D01*
X146640524Y-108064333D01*
X146488143Y-108064333D01*
X146411952Y-108102428D01*
X146373857Y-108140524D01*
X146335762Y-108216714D01*
X146792905Y-107721476D02*
X145992905Y-107721476D01*
X146297667Y-107721476D02*
X146259571Y-107645285D01*
X146259571Y-107492904D01*
X146297667Y-107416714D01*
X146335762Y-107378619D01*
X146411952Y-107340523D01*
X146640524Y-107340523D01*
X146716714Y-107378619D01*
X146754810Y-107416714D01*
X146792905Y-107492904D01*
X146792905Y-107645285D01*
X146754810Y-107721476D01*
X146069095Y-107035761D02*
X146031000Y-106997666D01*
X145992905Y-106921475D01*
X145992905Y-106730999D01*
X146031000Y-106654809D01*
X146069095Y-106616713D01*
X146145286Y-106578618D01*
X146221476Y-106578618D01*
X146335762Y-106616713D01*
X146792905Y-107073856D01*
X146792905Y-106578618D01*
X145992905Y-106083380D02*
X145992905Y-106007189D01*
X146031000Y-105930999D01*
X146069095Y-105892904D01*
X146145286Y-105854808D01*
X146297667Y-105816713D01*
X146488143Y-105816713D01*
X146640524Y-105854808D01*
X146716714Y-105892904D01*
X146754810Y-105930999D01*
X146792905Y-106007189D01*
X146792905Y-106083380D01*
X146754810Y-106159570D01*
X146716714Y-106197666D01*
X146640524Y-106235761D01*
X146488143Y-106273856D01*
X146297667Y-106273856D01*
X146145286Y-106235761D01*
X146069095Y-106197666D01*
X146031000Y-106159570D01*
X145992905Y-106083380D01*
D12*
X161357381Y-76398333D02*
X162071667Y-76398333D01*
X162214524Y-76445953D01*
X162309762Y-76541191D01*
X162357381Y-76684048D01*
X162357381Y-76779286D01*
X162357381Y-75922143D02*
X161357381Y-75922143D01*
X161357381Y-75541190D01*
X161405000Y-75445952D01*
X161452619Y-75398333D01*
X161547857Y-75350714D01*
X161690714Y-75350714D01*
X161785952Y-75398333D01*
X161833571Y-75445952D01*
X161881190Y-75541190D01*
X161881190Y-75922143D01*
X161452619Y-74969762D02*
X161405000Y-74922143D01*
X161357381Y-74826905D01*
X161357381Y-74588809D01*
X161405000Y-74493571D01*
X161452619Y-74445952D01*
X161547857Y-74398333D01*
X161643095Y-74398333D01*
X161785952Y-74445952D01*
X162357381Y-75017381D01*
X162357381Y-74398333D01*
X155154381Y-76525333D02*
X155868667Y-76525333D01*
X156011524Y-76572953D01*
X156106762Y-76668191D01*
X156154381Y-76811048D01*
X156154381Y-76906286D01*
X156154381Y-76049143D02*
X155154381Y-76049143D01*
X155154381Y-75668190D01*
X155202000Y-75572952D01*
X155249619Y-75525333D01*
X155344857Y-75477714D01*
X155487714Y-75477714D01*
X155582952Y-75525333D01*
X155630571Y-75572952D01*
X155678190Y-75668190D01*
X155678190Y-76049143D01*
X156154381Y-74525333D02*
X156154381Y-75096762D01*
X156154381Y-74811048D02*
X155154381Y-74811048D01*
X155297238Y-74906286D01*
X155392476Y-75001524D01*
X155440095Y-75096762D01*
X140660381Y-107735666D02*
X140184190Y-108069000D01*
X140660381Y-108307095D02*
X139660381Y-108307095D01*
X139660381Y-107926142D01*
X139708000Y-107830904D01*
X139755619Y-107783285D01*
X139850857Y-107735666D01*
X139993714Y-107735666D01*
X140088952Y-107783285D01*
X140136571Y-107830904D01*
X140184190Y-107926142D01*
X140184190Y-108307095D01*
X140660381Y-106783285D02*
X140660381Y-107354714D01*
X140660381Y-107069000D02*
X139660381Y-107069000D01*
X139803238Y-107164238D01*
X139898476Y-107259476D01*
X139946095Y-107354714D01*
X149439334Y-107545143D02*
X149391715Y-107592762D01*
X149248858Y-107640381D01*
X149153620Y-107640381D01*
X149010762Y-107592762D01*
X148915524Y-107497524D01*
X148867905Y-107402286D01*
X148820286Y-107211810D01*
X148820286Y-107068952D01*
X148867905Y-106878476D01*
X148915524Y-106783238D01*
X149010762Y-106688000D01*
X149153620Y-106640381D01*
X149248858Y-106640381D01*
X149391715Y-106688000D01*
X149439334Y-106735619D01*
X150391715Y-107640381D02*
X149820286Y-107640381D01*
X150106000Y-107640381D02*
X150106000Y-106640381D01*
X150010762Y-106783238D01*
X149915524Y-106878476D01*
X149820286Y-106926095D01*
M02*
